M48
; DRILL file {KiCad 5.1.12-84ad8e8a86~92~ubuntu20.04.1} date Thu 23 Jun 2022 18:15:22 EDT
; FORMAT={-:-/ absolute / metric / decimal}
; #@! TF.CreationDate,2022-06-23T18:15:22-04:00
; #@! TF.GenerationSoftware,Kicad,Pcbnew,5.1.12-84ad8e8a86~92~ubuntu20.04.1
FMAT,2
METRIC
T1C0.750
T2C0.787
T3C0.800
T4C0.850
T5C0.900
T6C1.000
T7C1.092
%
G90
G05
T1
X208.534Y-81.343
X208.534Y-88.963
T2
X111.76Y-95.123
X111.76Y-107.315
X117.615Y-64.389
X117.615Y-76.581
X117.615Y-88.265
X117.729Y-50.165
X121.412Y-52.324
X122.682Y-58.547
X122.682Y-69.596
X122.682Y-83.198
X124.46Y-76.581
X124.478Y-88.284
X124.841Y-64.548
X125.222Y-50.165
X126.685Y-83.147
X132.829Y-58.547
X134.375Y-102.235
X135.382Y-69.596
X138.938Y-52.324
X139.065Y-102.235
X142.748Y-52.324
X143.891Y-81.14
X146.431Y-70.993
X148.971Y-94.996
X150.254Y-59.309
X156.21Y-76.073
X156.243Y-64.15
X156.318Y-87.865
X157.48Y-100.584
X157.848Y-71.12
X157.848Y-81.153
X157.874Y-59.309
X157.874Y-94.996
X159.004Y-52.324
X160.274Y-135.001
X160.274Y-143.51
X162.941Y-64.135
X162.941Y-76.073
X162.941Y-87.884
X162.941Y-100.457
X180.34Y-109.782
X181.102Y-105.283
X184.404Y-103.569
X185.356Y-109.791
X188.722Y-105.346
X191.516Y-135.382
X191.516Y-140.335
X201.105Y-120.777
X201.105Y-129.857
X202.184Y-103.569
T3
X116.967Y-55.833
X116.967Y-60.833
X116.967Y-68.152
X116.967Y-73.152
X116.967Y-79.836
X116.967Y-84.836
X116.967Y-91.52
X116.967Y-96.52
X117.983Y-111.125
X117.983Y-126.365
X120.142Y-54.61
X120.142Y-62.23
X120.142Y-66.548
X120.142Y-74.168
X120.142Y-78.486
X120.142Y-86.106
X120.142Y-90.297
X120.142Y-97.917
X120.523Y-111.125
X120.523Y-126.365
X122.682Y-54.61
X122.682Y-62.23
X122.682Y-66.548
X122.682Y-74.168
X122.682Y-78.486
X122.682Y-86.106
X122.682Y-90.297
X122.682Y-97.917
X123.063Y-111.125
X123.063Y-126.365
X125.222Y-54.61
X125.222Y-62.23
X125.222Y-66.548
X125.222Y-74.168
X125.222Y-78.486
X125.222Y-86.106
X125.222Y-90.297
X125.222Y-97.917
X125.603Y-111.125
X125.603Y-126.365
X127.762Y-54.61
X127.762Y-62.23
X127.762Y-66.548
X127.762Y-74.168
X127.762Y-78.486
X127.762Y-86.106
X127.762Y-90.297
X127.762Y-97.917
X128.143Y-111.125
X128.143Y-126.365
X130.302Y-54.61
X130.302Y-62.23
X130.302Y-66.548
X130.302Y-74.168
X130.302Y-78.486
X130.302Y-86.106
X130.302Y-90.297
X130.302Y-97.917
X130.683Y-111.125
X130.683Y-126.365
X132.842Y-54.61
X132.842Y-62.23
X132.842Y-66.548
X132.842Y-74.168
X132.842Y-78.486
X132.842Y-86.106
X132.842Y-90.297
X132.842Y-97.917
X133.223Y-111.125
X133.223Y-126.365
X135.382Y-54.61
X135.382Y-62.23
X135.382Y-66.548
X135.382Y-74.168
X135.382Y-78.486
X135.382Y-86.106
X135.382Y-90.297
X135.382Y-97.917
X135.763Y-111.125
X135.763Y-126.365
X137.922Y-54.61
X137.922Y-62.23
X137.922Y-66.548
X137.922Y-74.168
X137.922Y-78.486
X137.922Y-86.106
X137.922Y-90.297
X137.922Y-97.917
X138.303Y-111.125
X138.303Y-126.365
X140.843Y-111.125
X140.843Y-126.365
X142.621Y-54.61
X142.621Y-62.23
X142.621Y-66.506
X142.621Y-74.126
X142.621Y-78.401
X142.621Y-86.021
X142.621Y-90.297
X142.621Y-97.917
X143.383Y-111.125
X143.383Y-126.365
X145.161Y-54.61
X145.161Y-62.23
X145.161Y-66.506
X145.161Y-74.126
X145.161Y-78.401
X145.161Y-86.021
X145.161Y-90.297
X145.161Y-97.917
X145.923Y-111.125
X145.923Y-126.365
X147.701Y-54.61
X147.701Y-62.23
X147.701Y-66.506
X147.701Y-74.126
X147.701Y-78.401
X147.701Y-86.021
X147.701Y-90.297
X147.701Y-97.917
X148.463Y-111.125
X148.463Y-126.365
X148.59Y-129.413
X150.241Y-54.61
X150.241Y-62.23
X150.241Y-66.506
X150.241Y-74.126
X150.241Y-78.401
X150.241Y-86.021
X150.241Y-90.297
X150.241Y-97.917
X151.003Y-111.125
X151.003Y-126.365
X152.781Y-54.61
X152.781Y-62.23
X152.781Y-66.506
X152.781Y-74.126
X152.781Y-78.401
X152.781Y-86.021
X152.781Y-90.297
X152.781Y-97.917
X153.543Y-111.125
X153.543Y-126.365
X153.59Y-129.413
X155.321Y-54.61
X155.321Y-62.23
X155.321Y-66.506
X155.321Y-74.126
X155.321Y-78.401
X155.321Y-86.021
X155.321Y-90.297
X155.321Y-97.917
X156.083Y-111.125
X156.083Y-126.365
X157.861Y-54.61
X157.861Y-62.23
X157.861Y-66.506
X157.861Y-74.126
X157.861Y-78.401
X157.861Y-86.021
X157.861Y-90.297
X157.861Y-97.917
X158.623Y-111.125
X158.623Y-126.365
X160.401Y-54.61
X160.401Y-62.23
X160.401Y-66.506
X160.401Y-74.126
X160.401Y-78.401
X160.401Y-86.021
X160.401Y-90.297
X160.401Y-97.917
X161.163Y-111.125
X161.163Y-126.365
X163.322Y-134.62
X163.576Y-56.134
X163.576Y-61.134
X163.576Y-68.072
X163.576Y-73.072
X163.576Y-80.01
X163.576Y-85.01
X163.576Y-91.567
X163.576Y-96.567
X163.703Y-111.125
X163.703Y-126.365
X164.538Y-130.683
X165.822Y-134.62
X166.243Y-111.125
X166.243Y-126.365
X168.061Y-134.62
X168.631Y-39.323
X168.631Y-44.323
X169.418Y-130.683
X170.561Y-134.62
X179.237Y-53.53
X181.483Y-122.341
X181.483Y-127.341
X181.737Y-53.53
X182.412Y-89.09
X182.689Y-62.5
X182.689Y-67.501
X183.185Y-39.323
X183.185Y-44.323
X184.404Y-93.472
X184.404Y-101.092
X184.531Y-121.031
X184.531Y-128.651
X184.912Y-50.038
X184.912Y-53.53
X184.912Y-57.023
X184.912Y-89.09
X185.483Y-71.263
X185.483Y-76.263
X185.483Y-78.74
X185.483Y-83.74
X185.992Y-60.452
X185.992Y-68.072
X186.944Y-93.472
X186.944Y-101.092
X187.516Y-108.14
X187.706Y-121.031
X187.706Y-128.651
X188.531Y-60.452
X188.531Y-68.072
X188.849Y-78.676
X188.849Y-86.296
X189.484Y-93.472
X189.484Y-101.092
X190.667Y-74.993
X191.071Y-60.452
X191.071Y-68.072
X191.135Y-122.341
X191.135Y-127.341
X192.024Y-93.472
X192.024Y-101.092
X192.087Y-81.471
X192.087Y-89.09
X192.516Y-108.14
X192.532Y-50.038
X192.532Y-53.53
X192.532Y-57.023
X193.167Y-74.993
X193.611Y-60.452
X193.611Y-68.072
X194.437Y-121.031
X194.437Y-128.651
X194.564Y-93.472
X194.564Y-101.092
X195.072Y-53.53
X195.135Y-50.038
X195.135Y-57.023
X195.326Y-81.534
X195.326Y-89.154
X195.834Y-71.628
X195.897Y-74.867
X195.897Y-78.168
X196.151Y-60.452
X196.151Y-68.072
X197.104Y-93.472
X197.104Y-101.092
X197.485Y-122.341
X197.485Y-127.341
X197.739Y-39.323
X197.739Y-44.323
X197.993Y-88.837
X198.691Y-60.452
X198.691Y-68.072
X198.691Y-109.728
X198.691Y-112.268
X198.691Y-114.808
X198.691Y-117.348
X199.644Y-93.472
X199.644Y-101.092
X201.231Y-60.452
X201.231Y-68.072
X201.311Y-106.489
X202.184Y-93.472
X202.184Y-101.092
X202.692Y-53.53
X202.755Y-50.038
X202.755Y-57.023
X202.993Y-88.837
X203.454Y-71.628
X203.517Y-74.867
X203.517Y-78.168
X204.597Y-120.269
X204.597Y-127.889
X205.359Y-53.404
X205.549Y-91.504
X205.549Y-99.123
X205.867Y-81.343
X205.867Y-88.963
X206.311Y-106.489
X206.311Y-109.728
X206.311Y-112.268
X206.311Y-114.808
X206.311Y-117.348
X207.859Y-53.404
X207.899Y-121.602
X207.899Y-126.602
T4
X143.383Y-107.823
X145.923Y-107.823
X148.463Y-107.823
X151.003Y-107.823
X153.543Y-107.823
X156.083Y-107.823
X158.623Y-107.823
X161.163Y-107.823
X171.831Y-102.362
X171.831Y-104.902
X171.831Y-107.442
X171.831Y-109.982
X171.831Y-112.522
X171.831Y-115.062
X171.831Y-117.602
X171.831Y-120.142
T5
X198.12Y-80.852
X198.12Y-85.852
X203.12Y-83.352
T6
X156.464Y-129.667
X158.115Y-103.632
X159.004Y-129.667
X160.655Y-103.632
X161.417Y-38.735
X161.417Y-41.275
X161.417Y-43.815
X163.195Y-103.632
X175.958Y-38.735
X175.958Y-41.275
X175.958Y-43.815
X182.562Y-112.234
X182.562Y-114.774
X182.562Y-117.314
X188.182Y-112.204
X188.182Y-114.744
X188.182Y-117.284
X188.531Y-89.408
X190.373Y-38.735
X190.373Y-41.275
X190.373Y-43.815
X193.802Y-112.204
X193.802Y-114.744
X193.802Y-117.284
X205.74Y-102.108
T7
X174.625Y-132.524
X177.8Y-132.524
X180.875Y-132.524
X184.15Y-132.524
T0
M30
