M48
; DRILL file {KiCad 7.0.7-7.0.7~ubuntu22.04.1} date Fri 01 Sep 2023 08:18:44 AM EDT
; FORMAT={-:-/ absolute / metric / decimal}
; #@! TF.CreationDate,2023-09-01T08:18:44-04:00
; #@! TF.GenerationSoftware,Kicad,Pcbnew,7.0.7-7.0.7~ubuntu22.04.1
; #@! TF.FileFunction,MixedPlating,1,2
FMAT,2
METRIC
; #@! TA.AperFunction,Plated,PTH,ViaDrill
T1C0.787
; #@! TA.AperFunction,Plated,PTH,ComponentDrill
T2C0.800
; #@! TA.AperFunction,Plated,PTH,ComponentDrill
T3C0.850
; #@! TA.AperFunction,Plated,PTH,ComponentDrill
T4C1.000
; #@! TA.AperFunction,Plated,PTH,ComponentDrill
T5C2.693
; #@! TA.AperFunction,Plated,PTH,ComponentDrill
T6C2.818
; #@! TA.AperFunction,NonPlated,NPTH,ComponentDrill
T7C2.476
%
G90
G05
T1
X161.798Y-145.034
X164.338Y-103.124
X164.846Y-62.23
X164.846Y-74.93
X164.846Y-88.392
T2
X115.331Y-58.719
X115.331Y-66.339
X115.331Y-71.15
X115.331Y-78.77
X115.331Y-84.343
X115.331Y-91.963
X115.331Y-98.059
X115.331Y-105.679
X117.871Y-58.719
X117.871Y-66.339
X117.871Y-71.15
X117.871Y-78.77
X117.871Y-84.343
X117.871Y-91.963
X117.871Y-98.059
X117.871Y-105.679
X118.613Y-116.606
X118.613Y-131.846
X120.411Y-58.719
X120.411Y-66.339
X120.411Y-71.15
X120.411Y-78.77
X120.411Y-84.343
X120.411Y-91.963
X120.411Y-98.059
X120.411Y-105.679
X121.153Y-116.606
X121.153Y-131.846
X122.951Y-58.719
X122.951Y-66.339
X122.951Y-71.15
X122.951Y-78.77
X122.951Y-84.343
X122.951Y-91.963
X122.951Y-98.059
X122.951Y-105.679
X123.693Y-116.606
X123.693Y-131.846
X125.491Y-58.719
X125.491Y-66.339
X125.491Y-71.15
X125.491Y-78.77
X125.491Y-84.343
X125.491Y-91.963
X125.491Y-98.059
X125.491Y-105.679
X126.233Y-116.606
X126.233Y-131.846
X128.031Y-58.719
X128.031Y-66.339
X128.031Y-71.15
X128.031Y-78.77
X128.031Y-84.343
X128.031Y-91.963
X128.031Y-98.059
X128.031Y-105.679
X128.773Y-116.606
X128.773Y-131.846
X130.571Y-58.719
X130.571Y-66.339
X130.571Y-71.15
X130.571Y-78.77
X130.571Y-84.343
X130.571Y-91.963
X130.571Y-98.059
X130.571Y-105.679
X131.313Y-116.606
X131.313Y-131.846
X133.111Y-58.719
X133.111Y-66.339
X133.111Y-71.15
X133.111Y-78.77
X133.111Y-84.343
X133.111Y-91.963
X133.111Y-98.059
X133.111Y-105.679
X133.853Y-116.606
X133.853Y-131.846
X136.144Y-60.024
X136.144Y-65.024
X136.144Y-72.938
X136.144Y-77.938
X136.144Y-85.384
X136.144Y-90.384
X136.144Y-99.354
X136.144Y-104.354
X136.393Y-116.606
X136.393Y-131.846
X138.933Y-116.606
X138.933Y-131.846
X140.447Y-59.984
X140.447Y-64.984
X140.462Y-72.938
X140.462Y-77.938
X140.462Y-85.424
X140.462Y-90.424
X140.462Y-99.354
X140.462Y-104.354
X141.473Y-116.606
X141.473Y-131.846
X143.51Y-58.689
X143.51Y-66.309
X143.51Y-71.12
X143.51Y-78.74
X143.51Y-84.313
X143.51Y-91.933
X143.51Y-98.029
X143.51Y-105.649
X144.013Y-116.606
X144.013Y-131.846
X146.05Y-58.689
X146.05Y-66.309
X146.05Y-71.12
X146.05Y-78.74
X146.05Y-84.313
X146.05Y-91.933
X146.05Y-98.029
X146.05Y-105.649
X146.553Y-116.606
X146.553Y-131.846
X148.59Y-58.689
X148.59Y-66.309
X148.59Y-71.12
X148.59Y-78.74
X148.59Y-84.313
X148.59Y-91.933
X148.59Y-98.029
X148.59Y-105.649
X148.924Y-134.874
X149.093Y-116.606
X149.093Y-131.846
X151.13Y-58.689
X151.13Y-66.309
X151.13Y-71.12
X151.13Y-78.74
X151.13Y-84.313
X151.13Y-91.933
X151.13Y-98.029
X151.13Y-105.649
X151.633Y-116.606
X151.633Y-131.846
X153.67Y-58.689
X153.67Y-66.309
X153.67Y-71.12
X153.67Y-78.74
X153.67Y-84.313
X153.67Y-91.933
X153.67Y-98.029
X153.67Y-105.649
X153.924Y-134.874
X154.173Y-116.606
X154.173Y-131.846
X156.21Y-58.689
X156.21Y-66.309
X156.21Y-71.12
X156.21Y-78.74
X156.21Y-84.313
X156.21Y-91.933
X156.21Y-98.029
X156.21Y-105.649
X156.713Y-116.606
X156.713Y-131.846
X158.75Y-58.689
X158.75Y-66.309
X158.75Y-71.12
X158.75Y-78.74
X158.75Y-84.313
X158.75Y-91.933
X158.75Y-98.029
X158.75Y-105.649
X159.253Y-116.606
X159.253Y-131.846
X160.02Y-135.402
X160.02Y-137.902
X161.29Y-58.689
X161.29Y-66.309
X161.29Y-71.12
X161.29Y-78.74
X161.29Y-84.313
X161.29Y-91.933
X161.29Y-98.029
X161.29Y-105.649
X161.793Y-116.606
X161.793Y-131.846
X162.894Y-51.562
X164.333Y-116.606
X164.333Y-131.846
X164.846Y-136.398
X166.873Y-116.606
X166.873Y-131.846
X167.894Y-51.562
X168.656Y-60.452
X169.726Y-136.398
X171.156Y-60.452
X171.45Y-48.514
X171.45Y-56.134
X174.244Y-57.404
X174.244Y-60.437
X174.498Y-135.402
X174.498Y-137.902
X177.098Y-136.652
X177.292Y-99.568
X177.292Y-107.188
X177.793Y-128.143
X178.069Y-85.613
X178.069Y-93.233
X178.348Y-136.652
X179.07Y-63.5
X179.07Y-71.12
X180.34Y-99.568
X180.34Y-107.188
X180.537Y-51.562
X180.609Y-85.613
X180.609Y-93.233
X181.112Y-113.807
X181.61Y-63.5
X181.61Y-71.12
X181.864Y-57.404
X181.864Y-60.437
X181.869Y-74.661
X181.954Y-110.236
X182.325Y-117.729
X182.325Y-125.349
X182.793Y-128.143
X182.92Y-96.266
X183.149Y-85.613
X183.149Y-93.233
X183.348Y-136.652
X183.398Y-99.583
X183.398Y-107.203
X184.15Y-63.5
X184.15Y-71.12
X184.598Y-136.652
X185.293Y-128.143
X185.537Y-51.562
X185.689Y-85.613
X185.689Y-93.233
X185.754Y-82.55
X185.938Y-99.583
X185.938Y-107.203
X186.69Y-63.5
X186.69Y-71.12
X186.869Y-74.661
X186.954Y-110.236
X187.92Y-96.266
X188.229Y-85.613
X188.229Y-93.233
X188.478Y-99.583
X188.478Y-107.203
X188.732Y-113.807
X188.976Y-48.514
X188.976Y-56.134
X189.23Y-63.5
X189.23Y-71.12
X189.459Y-139.7
X189.865Y-117.729
X189.865Y-125.349
X190.293Y-128.143
X190.754Y-82.55
X190.769Y-85.613
X190.769Y-93.233
X191.018Y-99.583
X191.018Y-107.203
X191.018Y-113.807
X191.77Y-63.5
X191.77Y-71.12
X191.77Y-77.47
X191.775Y-74.407
X191.959Y-139.7
X192.024Y-57.404
X192.024Y-60.452
X192.074Y-96.266
X192.993Y-128.143
X193.309Y-85.613
X193.309Y-93.233
X194.31Y-63.5
X194.31Y-71.12
X194.32Y-99.583
X194.32Y-107.203
X195.122Y-110.251
X195.849Y-85.613
X195.849Y-93.233
X196.018Y-113.807
X197.074Y-96.266
X197.555Y-51.562
X197.565Y-117.729
X197.565Y-125.349
X197.622Y-99.568
X197.622Y-107.188
X197.993Y-128.143
X199.39Y-77.47
X199.395Y-74.407
X199.644Y-57.404
X199.644Y-60.452
X200.122Y-110.251
X200.162Y-99.568
X200.162Y-107.188
X200.67Y-88.915
X200.67Y-96.535
X202.224Y-74.422
X202.478Y-60.198
X202.555Y-51.562
X202.702Y-99.568
X202.702Y-107.188
X203.718Y-91.535
X203.718Y-96.535
X204.724Y-74.422
X204.978Y-60.198
X205.242Y-99.568
X205.242Y-107.188
X206.502Y-48.514
X206.502Y-56.134
X206.766Y-88.915
X206.766Y-96.535
T3
X128.778Y-136.114
X131.318Y-136.114
X133.858Y-136.114
X136.398Y-136.114
X138.938Y-136.114
X140.716Y-111.028
X141.478Y-136.114
X143.256Y-111.028
X144.018Y-136.114
X145.796Y-111.028
X146.558Y-136.114
X148.336Y-111.028
X150.876Y-111.028
X153.416Y-111.028
X155.956Y-111.028
X158.496Y-111.028
T4
X156.972Y-135.377
X156.972Y-137.917
X161.783Y-110.998
X164.323Y-110.998
X166.863Y-110.998
X173.756Y-97.312
X173.756Y-101.122
X178.515Y-119.522
X178.515Y-122.062
X178.515Y-124.602
X186.055Y-119.537
X186.055Y-122.077
X186.055Y-124.617
X193.755Y-119.507
X193.755Y-122.047
X193.755Y-124.587
T5
X169.672Y-43.972
X185.674Y-43.942
X202.624Y-43.972
T6
X169.672Y-39.472
X185.674Y-39.442
X202.624Y-39.472
T7
X165.422Y-36.322
X173.922Y-36.322
X181.424Y-36.292
X189.924Y-36.292
X198.374Y-36.322
X206.874Y-36.322
T0
M30
