M48
; DRILL file {KiCad 5.1.12-84ad8e8a86~92~ubuntu20.04.1} date Sat 30 Apr 2022 13:54:13 EDT
; FORMAT={-:-/ absolute / metric / decimal}
; #@! TF.CreationDate,2022-04-30T13:54:13-04:00
; #@! TF.GenerationSoftware,Kicad,Pcbnew,5.1.12-84ad8e8a86~92~ubuntu20.04.1
FMAT,2
METRIC
T1C0.787
T2C0.800
T3C0.850
T4C0.900
T5C1.000
T6C2.000
%
G90
G05
T1
X111.76Y-95.123
X111.76Y-107.315
X117.615Y-64.389
X117.615Y-76.581
X117.615Y-88.265
X117.729Y-50.165
X121.412Y-52.324
X122.682Y-58.547
X122.682Y-69.596
X122.682Y-83.198
X124.46Y-76.581
X124.478Y-88.284
X124.841Y-64.548
X125.222Y-50.165
X126.685Y-83.147
X132.829Y-58.547
X134.375Y-102.235
X135.382Y-69.596
X138.938Y-52.324
X139.065Y-102.235
X142.748Y-52.324
X143.891Y-81.14
X146.431Y-70.993
X148.971Y-94.996
X150.254Y-59.309
X156.21Y-76.073
X156.243Y-64.15
X156.318Y-87.865
X157.48Y-100.584
X157.848Y-71.12
X157.848Y-81.153
X157.874Y-59.309
X157.874Y-94.996
X159.004Y-52.324
X160.274Y-135.001
X160.274Y-143.51
X162.941Y-64.135
X162.941Y-76.073
X162.941Y-87.884
X162.941Y-100.457
X168.021Y-42.608
X168.021Y-49.974
X178.943Y-59.182
X181.61Y-59.118
X181.864Y-80.01
X190.754Y-80.137
X191.008Y-41.783
X191.516Y-135.382
X191.516Y-140.335
X192.913Y-58.483
X196.977Y-58.547
X200.025Y-41.783
X202.184Y-110.172
X204.089Y-120.523
X204.089Y-126.746
X205.867Y-110.045
T2
X116.967Y-55.833
X116.967Y-60.833
X116.967Y-68.152
X116.967Y-73.152
X116.967Y-79.836
X116.967Y-84.836
X116.967Y-91.52
X116.967Y-96.52
X117.983Y-111.125
X117.983Y-126.365
X120.142Y-54.61
X120.142Y-62.23
X120.142Y-66.548
X120.142Y-74.168
X120.142Y-78.486
X120.142Y-86.106
X120.142Y-90.297
X120.142Y-97.917
X120.523Y-111.125
X120.523Y-126.365
X122.682Y-54.61
X122.682Y-62.23
X122.682Y-66.548
X122.682Y-74.168
X122.682Y-78.486
X122.682Y-86.106
X122.682Y-90.297
X122.682Y-97.917
X123.063Y-111.125
X123.063Y-126.365
X125.222Y-54.61
X125.222Y-62.23
X125.222Y-66.548
X125.222Y-74.168
X125.222Y-78.486
X125.222Y-86.106
X125.222Y-90.297
X125.222Y-97.917
X125.603Y-111.125
X125.603Y-126.365
X127.762Y-54.61
X127.762Y-62.23
X127.762Y-66.548
X127.762Y-74.168
X127.762Y-78.486
X127.762Y-86.106
X127.762Y-90.297
X127.762Y-97.917
X128.143Y-111.125
X128.143Y-126.365
X130.302Y-54.61
X130.302Y-62.23
X130.302Y-66.548
X130.302Y-74.168
X130.302Y-78.486
X130.302Y-86.106
X130.302Y-90.297
X130.302Y-97.917
X130.683Y-111.125
X130.683Y-126.365
X132.842Y-54.61
X132.842Y-62.23
X132.842Y-66.548
X132.842Y-74.168
X132.842Y-78.486
X132.842Y-86.106
X132.842Y-90.297
X132.842Y-97.917
X133.223Y-111.125
X133.223Y-126.365
X135.382Y-54.61
X135.382Y-62.23
X135.382Y-66.548
X135.382Y-74.168
X135.382Y-78.486
X135.382Y-86.106
X135.382Y-90.297
X135.382Y-97.917
X135.763Y-111.125
X135.763Y-126.365
X137.922Y-54.61
X137.922Y-62.23
X137.922Y-66.548
X137.922Y-74.168
X137.922Y-78.486
X137.922Y-86.106
X137.922Y-90.297
X137.922Y-97.917
X138.303Y-111.125
X138.303Y-126.365
X140.843Y-111.125
X140.843Y-126.365
X142.621Y-54.61
X142.621Y-62.23
X142.621Y-66.506
X142.621Y-74.126
X142.621Y-78.401
X142.621Y-86.021
X142.621Y-90.297
X142.621Y-97.917
X143.383Y-111.125
X143.383Y-126.365
X145.161Y-54.61
X145.161Y-62.23
X145.161Y-66.506
X145.161Y-74.126
X145.161Y-78.401
X145.161Y-86.021
X145.161Y-90.297
X145.161Y-97.917
X145.923Y-111.125
X145.923Y-126.365
X147.701Y-54.61
X147.701Y-62.23
X147.701Y-66.506
X147.701Y-74.126
X147.701Y-78.401
X147.701Y-86.021
X147.701Y-90.297
X147.701Y-97.917
X148.463Y-111.125
X148.463Y-126.365
X148.59Y-129.413
X150.241Y-54.61
X150.241Y-62.23
X150.241Y-66.506
X150.241Y-74.126
X150.241Y-78.401
X150.241Y-86.021
X150.241Y-90.297
X150.241Y-97.917
X151.003Y-111.125
X151.003Y-126.365
X152.781Y-54.61
X152.781Y-62.23
X152.781Y-66.506
X152.781Y-74.126
X152.781Y-78.401
X152.781Y-86.021
X152.781Y-90.297
X152.781Y-97.917
X153.543Y-111.125
X153.543Y-126.365
X153.59Y-129.413
X155.321Y-54.61
X155.321Y-62.23
X155.321Y-66.506
X155.321Y-74.126
X155.321Y-78.401
X155.321Y-86.021
X155.321Y-90.297
X155.321Y-97.917
X156.083Y-111.125
X156.083Y-126.365
X157.861Y-54.61
X157.861Y-62.23
X157.861Y-66.506
X157.861Y-74.126
X157.861Y-78.401
X157.861Y-86.021
X157.861Y-90.297
X157.861Y-97.917
X158.623Y-111.125
X158.623Y-126.365
X160.401Y-54.61
X160.401Y-62.23
X160.401Y-66.506
X160.401Y-74.126
X160.401Y-78.401
X160.401Y-86.021
X160.401Y-90.297
X160.401Y-97.917
X161.163Y-111.125
X161.163Y-126.365
X163.322Y-134.62
X163.576Y-56.134
X163.576Y-61.134
X163.576Y-68.072
X163.576Y-73.072
X163.576Y-80.01
X163.576Y-85.01
X163.576Y-91.567
X163.576Y-96.567
X163.703Y-111.125
X163.703Y-126.365
X164.538Y-130.683
X165.822Y-134.62
X166.243Y-111.125
X166.243Y-126.365
X168.061Y-134.62
X169.418Y-130.683
X170.561Y-134.62
X174.625Y-134.366
X175.875Y-134.366
X177.411Y-45.847
X177.705Y-52.832
X179.705Y-52.832
X179.911Y-45.847
X180.875Y-134.366
X181.483Y-122.341
X181.483Y-127.341
X182.125Y-134.366
X182.753Y-69.85
X183.515Y-53.848
X183.515Y-57.277
X183.722Y-82.169
X183.761Y-88.519
X183.769Y-99.949
X184.055Y-95.504
X184.277Y-60.64
X184.277Y-62.64
X184.357Y-44.704
X184.531Y-121.031
X184.531Y-128.651
X185.293Y-69.85
X186.055Y-95.504
X186.261Y-88.519
X186.309Y-99.949
X187.706Y-121.031
X187.706Y-128.651
X188.722Y-82.169
X188.849Y-69.85
X189.357Y-44.704
X189.357Y-95.377
X189.357Y-98.425
X189.865Y-60.64
X189.865Y-62.64
X190.707Y-86.487
X190.881Y-101.854
X190.881Y-103.854
X191.135Y-53.848
X191.135Y-57.277
X191.135Y-122.341
X191.135Y-127.341
X191.389Y-69.85
X193.85Y-45.847
X194.056Y-52.832
X194.437Y-121.031
X194.437Y-128.651
X194.691Y-70.485
X195.707Y-86.487
X196.024Y-74.041
X196.024Y-81.661
X196.056Y-52.832
X196.35Y-45.847
X196.596Y-101.981
X196.596Y-103.981
X196.977Y-95.377
X196.977Y-98.425
X197.294Y-67.437
X197.485Y-122.341
X197.485Y-127.341
X199.39Y-56.706
X199.39Y-64.325
X199.644Y-74.041
X199.644Y-81.661
X200.152Y-107.442
X201.803Y-100.457
X201.93Y-56.706
X201.93Y-64.325
X202.294Y-67.437
X202.311Y-70.485
X202.311Y-74.041
X202.311Y-81.661
X203.153Y-53.721
X203.327Y-92.877
X203.327Y-95.377
X204.343Y-100.457
X204.47Y-56.706
X204.47Y-64.325
X205.152Y-107.442
X205.613Y-74.041
X205.613Y-81.661
X206.248Y-66.865
X206.248Y-71.865
X207.01Y-56.706
X207.01Y-64.325
X208.153Y-53.721
T3
X143.383Y-107.823
X145.923Y-107.823
X148.463Y-107.823
X151.003Y-107.823
X153.543Y-107.823
X156.083Y-107.823
X158.623Y-107.823
X161.163Y-107.823
X171.831Y-102.362
X171.831Y-104.902
X171.831Y-107.442
X171.831Y-109.982
X171.831Y-112.522
X171.831Y-115.062
X171.831Y-117.602
X171.831Y-120.142
T4
X180.039Y-116.355
X185.039Y-113.855
X185.039Y-118.855
X188.294Y-118.872
X190.794Y-113.872
X193.294Y-118.872
X197.184Y-118.745
X199.684Y-113.745
X199.898Y-83.9
X199.898Y-88.9
X202.184Y-118.745
X204.898Y-86.4
T5
X156.464Y-129.667
X158.115Y-103.632
X159.004Y-129.667
X160.655Y-103.632
X163.195Y-103.632
X182.499Y-66.421
X183.769Y-103.251
X183.769Y-108.204
X183.769Y-110.744
X185.039Y-66.421
X186.309Y-103.251
X187.706Y-108.204
X187.706Y-110.744
X188.722Y-66.421
X191.262Y-66.421
X191.643Y-108.204
X191.643Y-110.744
X195.58Y-108.204
X195.58Y-110.744
X196.024Y-61.468
X196.024Y-64.008
X201.676Y-103.759
X202.12Y-50.419
X204.216Y-103.759
X204.66Y-50.419
T6
X182.539Y-116.355
X190.794Y-116.372
X199.684Y-116.245
X202.398Y-86.4
T0
M30
