M48
; DRILL file {KiCad 7.0.8-7.0.8~ubuntu22.04.1} date Wed 15 Nov 2023 11:42:17 AM EST
; FORMAT={-:-/ absolute / metric / decimal}
; #@! TF.CreationDate,2023-11-15T11:42:17-05:00
; #@! TF.GenerationSoftware,Kicad,Pcbnew,7.0.8-7.0.8~ubuntu22.04.1
; #@! TF.FileFunction,Plated,1,2,PTH
FMAT,2
METRIC
; #@! TA.AperFunction,Plated,PTH,ViaDrill
T1C0.787
; #@! TA.AperFunction,Plated,PTH,ComponentDrill
T2C0.800
; #@! TA.AperFunction,Plated,PTH,ComponentDrill
T3C0.850
; #@! TA.AperFunction,Plated,PTH,ComponentDrill
T4C1.000
; #@! TA.AperFunction,Plated,PTH,ComponentDrill
T5C2.693
; #@! TA.AperFunction,Plated,PTH,ComponentDrill
T6C2.818
%
G90
G05
T1
X161.798Y-145.034
T2
X118.618Y-116.586
X118.618Y-131.826
X121.158Y-116.586
X121.158Y-131.826
X123.698Y-116.586
X123.698Y-131.826
X126.238Y-116.586
X126.238Y-131.826
X128.778Y-116.586
X128.778Y-131.826
X131.318Y-116.586
X131.318Y-131.826
X133.858Y-116.586
X133.858Y-131.826
X136.398Y-116.586
X136.398Y-131.826
X136.652Y-84.408
X136.652Y-89.408
X136.906Y-97.322
X136.906Y-102.322
X138.938Y-116.586
X138.938Y-131.826
X140.96Y-84.328
X140.96Y-91.948
X140.97Y-97.282
X140.97Y-104.902
X141.478Y-116.586
X141.478Y-131.826
X143.5Y-84.328
X143.5Y-91.948
X143.51Y-97.282
X143.51Y-104.902
X144.018Y-116.586
X144.018Y-131.826
X146.04Y-84.328
X146.04Y-91.948
X146.05Y-97.282
X146.05Y-104.902
X146.558Y-116.586
X146.558Y-131.826
X148.58Y-84.328
X148.58Y-91.948
X148.59Y-97.282
X148.59Y-104.902
X148.924Y-134.874
X149.098Y-116.586
X149.098Y-131.826
X151.12Y-84.328
X151.12Y-91.948
X151.13Y-97.282
X151.13Y-104.902
X151.638Y-116.586
X151.638Y-131.826
X153.66Y-84.328
X153.66Y-91.948
X153.67Y-97.282
X153.67Y-104.902
X153.924Y-134.874
X154.178Y-116.586
X154.178Y-131.826
X156.2Y-84.328
X156.2Y-91.948
X156.21Y-97.282
X156.21Y-104.902
X156.718Y-116.586
X156.718Y-131.826
X158.74Y-84.328
X158.74Y-91.948
X158.75Y-97.282
X158.75Y-104.902
X159.258Y-116.586
X159.258Y-131.826
X160.02Y-135.402
X160.02Y-137.902
X161.28Y-84.328
X161.28Y-91.948
X161.29Y-97.282
X161.29Y-104.902
X161.798Y-116.586
X161.798Y-131.826
X164.338Y-116.586
X164.338Y-131.826
X164.846Y-136.398
X166.878Y-116.586
X166.878Y-131.826
X169.726Y-136.398
X174.498Y-135.402
X174.498Y-137.902
X176.606Y-96.204
X176.606Y-98.704
X178.511Y-109.753
X178.511Y-117.373
X179.019Y-103.522
X181.026Y-95.265
X181.026Y-100.265
X181.483Y-109.804
X181.559Y-106.062
X184.099Y-103.522
X187.02Y-103.53
X188.254Y-135.128
X189.103Y-109.804
X189.459Y-139.7
X191.959Y-139.7
X193.254Y-135.128
X194.64Y-103.53
T3
X128.778Y-136.114
X131.318Y-136.114
X133.858Y-136.114
X136.398Y-136.114
X138.938Y-136.114
X140.716Y-111.028
X141.478Y-136.114
X143.256Y-111.028
X144.018Y-136.114
X145.796Y-111.028
X146.558Y-136.114
X148.336Y-111.028
X150.876Y-111.028
X153.416Y-111.028
X155.956Y-111.028
X158.496Y-111.028
T4
X156.972Y-135.123
X156.972Y-137.663
X161.783Y-110.998
X164.323Y-110.998
X166.863Y-110.998
X170.434Y-128.773
X170.434Y-131.313
T5
X185.674Y-90.794
T6
X185.674Y-86.294
T0
M30
