%TF.GenerationSoftware,KiCad,Pcbnew,7.0.8-7.0.8~ubuntu22.04.1*%
%TF.CreationDate,2023-11-13T18:52:44-05:00*%
%TF.ProjectId,TMS9118,544d5339-3131-4382-9e6b-696361645f70,rev?*%
%TF.SameCoordinates,Original*%
%TF.FileFunction,Copper,L1,Top*%
%TF.FilePolarity,Positive*%
%FSLAX46Y46*%
G04 Gerber Fmt 4.6, Leading zero omitted, Abs format (unit mm)*
G04 Created by KiCad (PCBNEW 7.0.8-7.0.8~ubuntu22.04.1) date 2023-11-13 18:52:44*
%MOMM*%
%LPD*%
G01*
G04 APERTURE LIST*
%ADD10C,0.330200*%
%TA.AperFunction,NonConductor*%
%ADD11C,0.330200*%
%TD*%
%TA.AperFunction,ConnectorPad*%
%ADD12R,1.905000X6.858000*%
%TD*%
%TA.AperFunction,ComponentPad*%
%ADD13R,1.600000X2.400000*%
%TD*%
%TA.AperFunction,ComponentPad*%
%ADD14O,1.600000X2.400000*%
%TD*%
%TA.AperFunction,ComponentPad*%
%ADD15C,1.600000*%
%TD*%
%TA.AperFunction,ComponentPad*%
%ADD16O,1.600000X1.600000*%
%TD*%
%TA.AperFunction,ComponentPad*%
%ADD17R,1.600000X1.600000*%
%TD*%
%TA.AperFunction,ComponentPad*%
%ADD18C,1.500000*%
%TD*%
%TA.AperFunction,ComponentPad*%
%ADD19R,1.700000X1.700000*%
%TD*%
%TA.AperFunction,ComponentPad*%
%ADD20O,1.700000X1.700000*%
%TD*%
%TA.AperFunction,ComponentPad*%
%ADD21R,1.450000X1.450000*%
%TD*%
%TA.AperFunction,ComponentPad*%
%ADD22C,1.450000*%
%TD*%
%TA.AperFunction,ComponentPad*%
%ADD23C,4.039000*%
%TD*%
%TA.AperFunction,ComponentPad*%
%ADD24C,4.227000*%
%TD*%
%TA.AperFunction,ViaPad*%
%ADD25C,1.625600*%
%TD*%
%TA.AperFunction,Conductor*%
%ADD26C,0.304800*%
%TD*%
G04 APERTURE END LIST*
D10*
D11*
X118570614Y-107714284D02*
X118499186Y-107642856D01*
X118499186Y-107642856D02*
X118427757Y-107499999D01*
X118427757Y-107499999D02*
X118427757Y-107142856D01*
X118427757Y-107142856D02*
X118499186Y-106999999D01*
X118499186Y-106999999D02*
X118570614Y-106928570D01*
X118570614Y-106928570D02*
X118713471Y-106857141D01*
X118713471Y-106857141D02*
X118856329Y-106857141D01*
X118856329Y-106857141D02*
X119070614Y-106928570D01*
X119070614Y-106928570D02*
X119927757Y-107785713D01*
X119927757Y-107785713D02*
X119927757Y-106857141D01*
X118427757Y-105928570D02*
X118427757Y-105785713D01*
X118427757Y-105785713D02*
X118499186Y-105642856D01*
X118499186Y-105642856D02*
X118570614Y-105571428D01*
X118570614Y-105571428D02*
X118713471Y-105499999D01*
X118713471Y-105499999D02*
X118999186Y-105428570D01*
X118999186Y-105428570D02*
X119356329Y-105428570D01*
X119356329Y-105428570D02*
X119642043Y-105499999D01*
X119642043Y-105499999D02*
X119784900Y-105571428D01*
X119784900Y-105571428D02*
X119856329Y-105642856D01*
X119856329Y-105642856D02*
X119927757Y-105785713D01*
X119927757Y-105785713D02*
X119927757Y-105928570D01*
X119927757Y-105928570D02*
X119856329Y-106071428D01*
X119856329Y-106071428D02*
X119784900Y-106142856D01*
X119784900Y-106142856D02*
X119642043Y-106214285D01*
X119642043Y-106214285D02*
X119356329Y-106285713D01*
X119356329Y-106285713D02*
X118999186Y-106285713D01*
X118999186Y-106285713D02*
X118713471Y-106214285D01*
X118713471Y-106214285D02*
X118570614Y-106142856D01*
X118570614Y-106142856D02*
X118499186Y-106071428D01*
X118499186Y-106071428D02*
X118427757Y-105928570D01*
X118570614Y-104857142D02*
X118499186Y-104785714D01*
X118499186Y-104785714D02*
X118427757Y-104642857D01*
X118427757Y-104642857D02*
X118427757Y-104285714D01*
X118427757Y-104285714D02*
X118499186Y-104142857D01*
X118499186Y-104142857D02*
X118570614Y-104071428D01*
X118570614Y-104071428D02*
X118713471Y-103999999D01*
X118713471Y-103999999D02*
X118856329Y-103999999D01*
X118856329Y-103999999D02*
X119070614Y-104071428D01*
X119070614Y-104071428D02*
X119927757Y-104928571D01*
X119927757Y-104928571D02*
X119927757Y-103999999D01*
X118427757Y-103500000D02*
X118427757Y-102571428D01*
X118427757Y-102571428D02*
X118999186Y-103071428D01*
X118999186Y-103071428D02*
X118999186Y-102857143D01*
X118999186Y-102857143D02*
X119070614Y-102714286D01*
X119070614Y-102714286D02*
X119142043Y-102642857D01*
X119142043Y-102642857D02*
X119284900Y-102571428D01*
X119284900Y-102571428D02*
X119642043Y-102571428D01*
X119642043Y-102571428D02*
X119784900Y-102642857D01*
X119784900Y-102642857D02*
X119856329Y-102714286D01*
X119856329Y-102714286D02*
X119927757Y-102857143D01*
X119927757Y-102857143D02*
X119927757Y-103285714D01*
X119927757Y-103285714D02*
X119856329Y-103428571D01*
X119856329Y-103428571D02*
X119784900Y-103500000D01*
X118427757Y-100357143D02*
X119499186Y-100357143D01*
X119499186Y-100357143D02*
X119713471Y-100428572D01*
X119713471Y-100428572D02*
X119856329Y-100571429D01*
X119856329Y-100571429D02*
X119927757Y-100785715D01*
X119927757Y-100785715D02*
X119927757Y-100928572D01*
X119499186Y-99714286D02*
X119499186Y-99000001D01*
X119927757Y-99857143D02*
X118427757Y-99357143D01*
X118427757Y-99357143D02*
X119927757Y-98857143D01*
X119213471Y-98071429D02*
X119927757Y-98071429D01*
X118427757Y-98571429D02*
X119213471Y-98071429D01*
X119213471Y-98071429D02*
X118427757Y-97571429D01*
X119784900Y-95071430D02*
X119856329Y-95142858D01*
X119856329Y-95142858D02*
X119927757Y-95357144D01*
X119927757Y-95357144D02*
X119927757Y-95500001D01*
X119927757Y-95500001D02*
X119856329Y-95714287D01*
X119856329Y-95714287D02*
X119713471Y-95857144D01*
X119713471Y-95857144D02*
X119570614Y-95928573D01*
X119570614Y-95928573D02*
X119284900Y-96000001D01*
X119284900Y-96000001D02*
X119070614Y-96000001D01*
X119070614Y-96000001D02*
X118784900Y-95928573D01*
X118784900Y-95928573D02*
X118642043Y-95857144D01*
X118642043Y-95857144D02*
X118499186Y-95714287D01*
X118499186Y-95714287D02*
X118427757Y-95500001D01*
X118427757Y-95500001D02*
X118427757Y-95357144D01*
X118427757Y-95357144D02*
X118499186Y-95142858D01*
X118499186Y-95142858D02*
X118570614Y-95071430D01*
X118427757Y-94142858D02*
X118427757Y-93857144D01*
X118427757Y-93857144D02*
X118499186Y-93714287D01*
X118499186Y-93714287D02*
X118642043Y-93571430D01*
X118642043Y-93571430D02*
X118927757Y-93500001D01*
X118927757Y-93500001D02*
X119427757Y-93500001D01*
X119427757Y-93500001D02*
X119713471Y-93571430D01*
X119713471Y-93571430D02*
X119856329Y-93714287D01*
X119856329Y-93714287D02*
X119927757Y-93857144D01*
X119927757Y-93857144D02*
X119927757Y-94142858D01*
X119927757Y-94142858D02*
X119856329Y-94285716D01*
X119856329Y-94285716D02*
X119713471Y-94428573D01*
X119713471Y-94428573D02*
X119427757Y-94500001D01*
X119427757Y-94500001D02*
X118927757Y-94500001D01*
X118927757Y-94500001D02*
X118642043Y-94428573D01*
X118642043Y-94428573D02*
X118499186Y-94285716D01*
X118499186Y-94285716D02*
X118427757Y-94142858D01*
X119927757Y-92857144D02*
X118427757Y-92857144D01*
X118427757Y-92857144D02*
X119927757Y-92000001D01*
X119927757Y-92000001D02*
X118427757Y-92000001D01*
X118427757Y-91500000D02*
X119927757Y-91000000D01*
X119927757Y-91000000D02*
X118427757Y-90500000D01*
X119142043Y-90000001D02*
X119142043Y-89500001D01*
X119927757Y-89285715D02*
X119927757Y-90000001D01*
X119927757Y-90000001D02*
X118427757Y-90000001D01*
X118427757Y-90000001D02*
X118427757Y-89285715D01*
X119927757Y-87785715D02*
X119213471Y-88285715D01*
X119927757Y-88642858D02*
X118427757Y-88642858D01*
X118427757Y-88642858D02*
X118427757Y-88071429D01*
X118427757Y-88071429D02*
X118499186Y-87928572D01*
X118499186Y-87928572D02*
X118570614Y-87857143D01*
X118570614Y-87857143D02*
X118713471Y-87785715D01*
X118713471Y-87785715D02*
X118927757Y-87785715D01*
X118927757Y-87785715D02*
X119070614Y-87857143D01*
X119070614Y-87857143D02*
X119142043Y-87928572D01*
X119142043Y-87928572D02*
X119213471Y-88071429D01*
X119213471Y-88071429D02*
X119213471Y-88642858D01*
X118427757Y-87357143D02*
X118427757Y-86500001D01*
X119927757Y-86928572D02*
X118427757Y-86928572D01*
X119927757Y-86000001D02*
X118427757Y-86000001D01*
X119927757Y-85285715D02*
X118427757Y-85285715D01*
X118427757Y-85285715D02*
X119927757Y-84428572D01*
X119927757Y-84428572D02*
X118427757Y-84428572D01*
X118427757Y-83428571D02*
X118427757Y-83142857D01*
X118427757Y-83142857D02*
X118499186Y-83000000D01*
X118499186Y-83000000D02*
X118642043Y-82857143D01*
X118642043Y-82857143D02*
X118927757Y-82785714D01*
X118927757Y-82785714D02*
X119427757Y-82785714D01*
X119427757Y-82785714D02*
X119713471Y-82857143D01*
X119713471Y-82857143D02*
X119856329Y-83000000D01*
X119856329Y-83000000D02*
X119927757Y-83142857D01*
X119927757Y-83142857D02*
X119927757Y-83428571D01*
X119927757Y-83428571D02*
X119856329Y-83571429D01*
X119856329Y-83571429D02*
X119713471Y-83714286D01*
X119713471Y-83714286D02*
X119427757Y-83785714D01*
X119427757Y-83785714D02*
X118927757Y-83785714D01*
X118927757Y-83785714D02*
X118642043Y-83714286D01*
X118642043Y-83714286D02*
X118499186Y-83571429D01*
X118499186Y-83571429D02*
X118427757Y-83428571D01*
X120842757Y-107464283D02*
X120842757Y-106607141D01*
X122342757Y-107035712D02*
X120842757Y-107035712D01*
X122342757Y-106107141D02*
X120842757Y-106107141D01*
X120842757Y-106107141D02*
X121914186Y-105607141D01*
X121914186Y-105607141D02*
X120842757Y-105107141D01*
X120842757Y-105107141D02*
X122342757Y-105107141D01*
X122271329Y-104464283D02*
X122342757Y-104249998D01*
X122342757Y-104249998D02*
X122342757Y-103892855D01*
X122342757Y-103892855D02*
X122271329Y-103749998D01*
X122271329Y-103749998D02*
X122199900Y-103678569D01*
X122199900Y-103678569D02*
X122057043Y-103607140D01*
X122057043Y-103607140D02*
X121914186Y-103607140D01*
X121914186Y-103607140D02*
X121771329Y-103678569D01*
X121771329Y-103678569D02*
X121699900Y-103749998D01*
X121699900Y-103749998D02*
X121628471Y-103892855D01*
X121628471Y-103892855D02*
X121557043Y-104178569D01*
X121557043Y-104178569D02*
X121485614Y-104321426D01*
X121485614Y-104321426D02*
X121414186Y-104392855D01*
X121414186Y-104392855D02*
X121271329Y-104464283D01*
X121271329Y-104464283D02*
X121128471Y-104464283D01*
X121128471Y-104464283D02*
X120985614Y-104392855D01*
X120985614Y-104392855D02*
X120914186Y-104321426D01*
X120914186Y-104321426D02*
X120842757Y-104178569D01*
X120842757Y-104178569D02*
X120842757Y-103821426D01*
X120842757Y-103821426D02*
X120914186Y-103607140D01*
X122342757Y-102892855D02*
X122342757Y-102607141D01*
X122342757Y-102607141D02*
X122271329Y-102464284D01*
X122271329Y-102464284D02*
X122199900Y-102392855D01*
X122199900Y-102392855D02*
X121985614Y-102249998D01*
X121985614Y-102249998D02*
X121699900Y-102178569D01*
X121699900Y-102178569D02*
X121128471Y-102178569D01*
X121128471Y-102178569D02*
X120985614Y-102249998D01*
X120985614Y-102249998D02*
X120914186Y-102321427D01*
X120914186Y-102321427D02*
X120842757Y-102464284D01*
X120842757Y-102464284D02*
X120842757Y-102749998D01*
X120842757Y-102749998D02*
X120914186Y-102892855D01*
X120914186Y-102892855D02*
X120985614Y-102964284D01*
X120985614Y-102964284D02*
X121128471Y-103035712D01*
X121128471Y-103035712D02*
X121485614Y-103035712D01*
X121485614Y-103035712D02*
X121628471Y-102964284D01*
X121628471Y-102964284D02*
X121699900Y-102892855D01*
X121699900Y-102892855D02*
X121771329Y-102749998D01*
X121771329Y-102749998D02*
X121771329Y-102464284D01*
X121771329Y-102464284D02*
X121699900Y-102321427D01*
X121699900Y-102321427D02*
X121628471Y-102249998D01*
X121628471Y-102249998D02*
X121485614Y-102178569D01*
X122342757Y-100749998D02*
X122342757Y-101607141D01*
X122342757Y-101178570D02*
X120842757Y-101178570D01*
X120842757Y-101178570D02*
X121057043Y-101321427D01*
X121057043Y-101321427D02*
X121199900Y-101464284D01*
X121199900Y-101464284D02*
X121271329Y-101607141D01*
X122342757Y-99321427D02*
X122342757Y-100178570D01*
X122342757Y-99749999D02*
X120842757Y-99749999D01*
X120842757Y-99749999D02*
X121057043Y-99892856D01*
X121057043Y-99892856D02*
X121199900Y-100035713D01*
X121199900Y-100035713D02*
X121271329Y-100178570D01*
X121485614Y-98464285D02*
X121414186Y-98607142D01*
X121414186Y-98607142D02*
X121342757Y-98678571D01*
X121342757Y-98678571D02*
X121199900Y-98749999D01*
X121199900Y-98749999D02*
X121128471Y-98749999D01*
X121128471Y-98749999D02*
X120985614Y-98678571D01*
X120985614Y-98678571D02*
X120914186Y-98607142D01*
X120914186Y-98607142D02*
X120842757Y-98464285D01*
X120842757Y-98464285D02*
X120842757Y-98178571D01*
X120842757Y-98178571D02*
X120914186Y-98035714D01*
X120914186Y-98035714D02*
X120985614Y-97964285D01*
X120985614Y-97964285D02*
X121128471Y-97892856D01*
X121128471Y-97892856D02*
X121199900Y-97892856D01*
X121199900Y-97892856D02*
X121342757Y-97964285D01*
X121342757Y-97964285D02*
X121414186Y-98035714D01*
X121414186Y-98035714D02*
X121485614Y-98178571D01*
X121485614Y-98178571D02*
X121485614Y-98464285D01*
X121485614Y-98464285D02*
X121557043Y-98607142D01*
X121557043Y-98607142D02*
X121628471Y-98678571D01*
X121628471Y-98678571D02*
X121771329Y-98749999D01*
X121771329Y-98749999D02*
X122057043Y-98749999D01*
X122057043Y-98749999D02*
X122199900Y-98678571D01*
X122199900Y-98678571D02*
X122271329Y-98607142D01*
X122271329Y-98607142D02*
X122342757Y-98464285D01*
X122342757Y-98464285D02*
X122342757Y-98178571D01*
X122342757Y-98178571D02*
X122271329Y-98035714D01*
X122271329Y-98035714D02*
X122199900Y-97964285D01*
X122199900Y-97964285D02*
X122057043Y-97892856D01*
X122057043Y-97892856D02*
X121771329Y-97892856D01*
X121771329Y-97892856D02*
X121628471Y-97964285D01*
X121628471Y-97964285D02*
X121557043Y-98035714D01*
X121557043Y-98035714D02*
X121485614Y-98178571D01*
X120842757Y-96321428D02*
X120842757Y-95464286D01*
X122342757Y-95892857D02*
X120842757Y-95892857D01*
X121557043Y-94964286D02*
X121557043Y-94464286D01*
X122342757Y-94250000D02*
X122342757Y-94964286D01*
X122342757Y-94964286D02*
X120842757Y-94964286D01*
X120842757Y-94964286D02*
X120842757Y-94250000D01*
X122271329Y-93678571D02*
X122342757Y-93464286D01*
X122342757Y-93464286D02*
X122342757Y-93107143D01*
X122342757Y-93107143D02*
X122271329Y-92964286D01*
X122271329Y-92964286D02*
X122199900Y-92892857D01*
X122199900Y-92892857D02*
X122057043Y-92821428D01*
X122057043Y-92821428D02*
X121914186Y-92821428D01*
X121914186Y-92821428D02*
X121771329Y-92892857D01*
X121771329Y-92892857D02*
X121699900Y-92964286D01*
X121699900Y-92964286D02*
X121628471Y-93107143D01*
X121628471Y-93107143D02*
X121557043Y-93392857D01*
X121557043Y-93392857D02*
X121485614Y-93535714D01*
X121485614Y-93535714D02*
X121414186Y-93607143D01*
X121414186Y-93607143D02*
X121271329Y-93678571D01*
X121271329Y-93678571D02*
X121128471Y-93678571D01*
X121128471Y-93678571D02*
X120985614Y-93607143D01*
X120985614Y-93607143D02*
X120914186Y-93535714D01*
X120914186Y-93535714D02*
X120842757Y-93392857D01*
X120842757Y-93392857D02*
X120842757Y-93035714D01*
X120842757Y-93035714D02*
X120914186Y-92821428D01*
X120842757Y-92392857D02*
X120842757Y-91535715D01*
X122342757Y-91964286D02*
X120842757Y-91964286D01*
X121557043Y-89392858D02*
X121628471Y-89178572D01*
X121628471Y-89178572D02*
X121699900Y-89107143D01*
X121699900Y-89107143D02*
X121842757Y-89035715D01*
X121842757Y-89035715D02*
X122057043Y-89035715D01*
X122057043Y-89035715D02*
X122199900Y-89107143D01*
X122199900Y-89107143D02*
X122271329Y-89178572D01*
X122271329Y-89178572D02*
X122342757Y-89321429D01*
X122342757Y-89321429D02*
X122342757Y-89892858D01*
X122342757Y-89892858D02*
X120842757Y-89892858D01*
X120842757Y-89892858D02*
X120842757Y-89392858D01*
X120842757Y-89392858D02*
X120914186Y-89250001D01*
X120914186Y-89250001D02*
X120985614Y-89178572D01*
X120985614Y-89178572D02*
X121128471Y-89107143D01*
X121128471Y-89107143D02*
X121271329Y-89107143D01*
X121271329Y-89107143D02*
X121414186Y-89178572D01*
X121414186Y-89178572D02*
X121485614Y-89250001D01*
X121485614Y-89250001D02*
X121557043Y-89392858D01*
X121557043Y-89392858D02*
X121557043Y-89892858D01*
X120842757Y-88107143D02*
X120842757Y-87821429D01*
X120842757Y-87821429D02*
X120914186Y-87678572D01*
X120914186Y-87678572D02*
X121057043Y-87535715D01*
X121057043Y-87535715D02*
X121342757Y-87464286D01*
X121342757Y-87464286D02*
X121842757Y-87464286D01*
X121842757Y-87464286D02*
X122128471Y-87535715D01*
X122128471Y-87535715D02*
X122271329Y-87678572D01*
X122271329Y-87678572D02*
X122342757Y-87821429D01*
X122342757Y-87821429D02*
X122342757Y-88107143D01*
X122342757Y-88107143D02*
X122271329Y-88250001D01*
X122271329Y-88250001D02*
X122128471Y-88392858D01*
X122128471Y-88392858D02*
X121842757Y-88464286D01*
X121842757Y-88464286D02*
X121342757Y-88464286D01*
X121342757Y-88464286D02*
X121057043Y-88392858D01*
X121057043Y-88392858D02*
X120914186Y-88250001D01*
X120914186Y-88250001D02*
X120842757Y-88107143D01*
X121914186Y-86892857D02*
X121914186Y-86178572D01*
X122342757Y-87035714D02*
X120842757Y-86535714D01*
X120842757Y-86535714D02*
X122342757Y-86035714D01*
X122342757Y-84678572D02*
X121628471Y-85178572D01*
X122342757Y-85535715D02*
X120842757Y-85535715D01*
X120842757Y-85535715D02*
X120842757Y-84964286D01*
X120842757Y-84964286D02*
X120914186Y-84821429D01*
X120914186Y-84821429D02*
X120985614Y-84750000D01*
X120985614Y-84750000D02*
X121128471Y-84678572D01*
X121128471Y-84678572D02*
X121342757Y-84678572D01*
X121342757Y-84678572D02*
X121485614Y-84750000D01*
X121485614Y-84750000D02*
X121557043Y-84821429D01*
X121557043Y-84821429D02*
X121628471Y-84964286D01*
X121628471Y-84964286D02*
X121628471Y-85535715D01*
X122342757Y-84035715D02*
X120842757Y-84035715D01*
X120842757Y-84035715D02*
X120842757Y-83678572D01*
X120842757Y-83678572D02*
X120914186Y-83464286D01*
X120914186Y-83464286D02*
X121057043Y-83321429D01*
X121057043Y-83321429D02*
X121199900Y-83250000D01*
X121199900Y-83250000D02*
X121485614Y-83178572D01*
X121485614Y-83178572D02*
X121699900Y-83178572D01*
X121699900Y-83178572D02*
X121985614Y-83250000D01*
X121985614Y-83250000D02*
X122128471Y-83321429D01*
X122128471Y-83321429D02*
X122271329Y-83464286D01*
X122271329Y-83464286D02*
X122342757Y-83678572D01*
X122342757Y-83678572D02*
X122342757Y-84035715D01*
X123257757Y-96464284D02*
X124757757Y-95964284D01*
X124757757Y-95964284D02*
X123257757Y-95464284D01*
X124757757Y-94178570D02*
X124757757Y-95035713D01*
X124757757Y-94607142D02*
X123257757Y-94607142D01*
X123257757Y-94607142D02*
X123472043Y-94749999D01*
X123472043Y-94749999D02*
X123614900Y-94892856D01*
X123614900Y-94892856D02*
X123686329Y-95035713D01*
D12*
%TO.P,CON1,B1,RD1*%
%TO.N,unconnected-(CON1-RD1-PadB1)*%
X114554000Y-149860000D03*
%TO.P,CON1,B2,RD0*%
%TO.N,unconnected-(CON1-RD0-PadB2)*%
X117094000Y-149860000D03*
%TO.P,CON1,B3,RC2*%
%TO.N,unconnected-(CON1-RC2-PadB3)*%
X119634000Y-149860000D03*
%TO.P,CON1,B4,RC1*%
%TO.N,unconnected-(CON1-RC1-PadB4)*%
X122174000Y-149860000D03*
%TO.P,CON1,B5,RC0*%
%TO.N,unconnected-(CON1-RC0-PadB5)*%
X124714000Y-149860000D03*
%TO.P,CON1,B6,RA6*%
%TO.N,unconnected-(CON1-RA6-PadB6)*%
X127254000Y-149860000D03*
%TO.P,CON1,B7,RA7*%
%TO.N,unconnected-(CON1-RA7-PadB7)*%
X129794000Y-149860000D03*
%TO.P,CON1,B8,RA5*%
%TO.N,unconnected-(CON1-RA5-PadB8)*%
X132334000Y-149860000D03*
%TO.P,CON1,B9,RA4*%
%TO.N,unconnected-(CON1-RA4-PadB9)*%
X134874000Y-149860000D03*
%TO.P,CON1,B10,RA3*%
%TO.N,unconnected-(CON1-RA3-PadB10)*%
X137414000Y-149860000D03*
%TO.P,CON1,B11,RA2*%
%TO.N,unconnected-(CON1-RA2-PadB11)*%
X139954000Y-149860000D03*
%TO.P,CON1,B12,RA1*%
%TO.N,unconnected-(CON1-RA1-PadB12)*%
X142494000Y-149860000D03*
%TO.P,CON1,B13,RA0*%
%TO.N,unconnected-(CON1-RA0-PadB13)*%
X145034000Y-149860000D03*
%TO.P,CON1,B14,RD2*%
%TO.N,unconnected-(CON1-RD2-PadB14)*%
X147574000Y-149860000D03*
%TO.P,CON1,B15,RD3*%
%TO.N,unconnected-(CON1-RD3-PadB15)*%
X150114000Y-149860000D03*
%TO.P,CON1,B16,RC6*%
%TO.N,unconnected-(CON1-RC6-PadB16)*%
X152654000Y-149860000D03*
%TO.P,CON1,B17,RC7*%
%TO.N,unconnected-(CON1-RC7-PadB17)*%
X155194000Y-149860000D03*
%TO.P,CON1,B18,RD4*%
%TO.N,unconnected-(CON1-RD4-PadB18)*%
X157734000Y-149860000D03*
%TO.P,CON1,B19,RD5*%
%TO.N,unconnected-(CON1-RD5-PadB19)*%
X160274000Y-149860000D03*
%TO.P,CON1,B20,RD6*%
%TO.N,unconnected-(CON1-RD6-PadB20)*%
X162814000Y-149860000D03*
%TO.P,CON1,B21,RD7*%
%TO.N,unconnected-(CON1-RD7-PadB21)*%
X165354000Y-149860000D03*
%TO.P,CON1,B22,GND*%
%TO.N,VSS*%
X167894000Y-149860000D03*
%TO.P,CON1,B23,RB0*%
%TO.N,unconnected-(CON1-RB0-PadB23)*%
X170434000Y-149860000D03*
%TO.P,CON1,B24,RB1*%
%TO.N,unconnected-(CON1-RB1-PadB24)*%
X172974000Y-149860000D03*
%TO.P,CON1,B25,RB2*%
%TO.N,unconnected-(CON1-RB2-PadB25)*%
X175514000Y-149860000D03*
%TO.P,CON1,B26,RB3*%
%TO.N,unconnected-(CON1-RB3-PadB26)*%
X178054000Y-149860000D03*
%TO.P,CON1,B27,RB4*%
%TO.N,unconnected-(CON1-RB4-PadB27)*%
X180594000Y-149860000D03*
%TO.P,CON1,B28,RB5*%
%TO.N,unconnected-(CON1-RB5-PadB28)*%
X183134000Y-149860000D03*
%TO.P,CON1,B29,RB6*%
%TO.N,unconnected-(CON1-RB6-PadB29)*%
X185674000Y-149860000D03*
%TO.P,CON1,B30,RB7*%
%TO.N,unconnected-(CON1-RB7-PadB30)*%
X188214000Y-149860000D03*
%TO.P,CON1,B31,GND*%
%TO.N,VSS*%
X190754000Y-149860000D03*
%TO.P,CON1,B32,+5V*%
%TO.N,VCC*%
X193294000Y-149860000D03*
%TD*%
D13*
%TO.P,U1,1,~{G}*%
%TO.N,VSS*%
X161280000Y-84328000D03*
D14*
%TO.P,U1,2,DQ1*%
%TO.N,/R0*%
X158740000Y-84328000D03*
%TO.P,U1,3,DQ2*%
%TO.N,/R1*%
X156200000Y-84328000D03*
%TO.P,U1,4,~{W}*%
%TO.N,/RnW*%
X153660000Y-84328000D03*
%TO.P,U1,5,~{RAS}*%
%TO.N,/nRAS*%
X151120000Y-84328000D03*
%TO.P,U1,6,A6*%
%TO.N,/AD1*%
X148580000Y-84328000D03*
%TO.P,U1,7,A5*%
%TO.N,/AD2*%
X146040000Y-84328000D03*
%TO.P,U1,8,A4*%
%TO.N,/AD3*%
X143500000Y-84328000D03*
%TO.P,U1,9,VDD*%
%TO.N,VCC*%
X140960000Y-84328000D03*
%TO.P,U1,10,A7*%
%TO.N,/AD0*%
X140960000Y-91948000D03*
%TO.P,U1,11,A3*%
%TO.N,/AD4*%
X143500000Y-91948000D03*
%TO.P,U1,12,A2*%
%TO.N,/AD5*%
X146040000Y-91948000D03*
%TO.P,U1,13,A1*%
%TO.N,/AD6*%
X148580000Y-91948000D03*
%TO.P,U1,14,A0*%
%TO.N,/AD7*%
X151120000Y-91948000D03*
%TO.P,U1,15,DQ3*%
%TO.N,/R2*%
X153660000Y-91948000D03*
%TO.P,U1,16,~{CAS}*%
%TO.N,/nCAS*%
X156200000Y-91948000D03*
%TO.P,U1,17,DQ4*%
%TO.N,/R3*%
X158740000Y-91948000D03*
%TO.P,U1,18,VSS*%
%TO.N,VSS*%
X161280000Y-91948000D03*
%TD*%
D15*
%TO.P,C2,1*%
%TO.N,VCC*%
X136652000Y-84408000D03*
%TO.P,C2,2*%
%TO.N,VSS*%
X136652000Y-89408000D03*
%TD*%
D13*
%TO.P,U14,1,~{RAS}*%
%TO.N,/nRAS*%
X166878000Y-116586000D03*
D14*
%TO.P,U14,2,~{CAS}*%
%TO.N,/nCAS*%
X164338000Y-116586000D03*
%TO.P,U14,3,AD7*%
%TO.N,/AD7*%
X161798000Y-116586000D03*
%TO.P,U14,4,AD6*%
%TO.N,/AD6*%
X159258000Y-116586000D03*
%TO.P,U14,5,AD5*%
%TO.N,/AD5*%
X156718000Y-116586000D03*
%TO.P,U14,6,AD4*%
%TO.N,/AD4*%
X154178000Y-116586000D03*
%TO.P,U14,7,AD3*%
%TO.N,/AD3*%
X151638000Y-116586000D03*
%TO.P,U14,8,AD2*%
%TO.N,/AD2*%
X149098000Y-116586000D03*
%TO.P,U14,9,AD1*%
%TO.N,/AD1*%
X146558000Y-116586000D03*
%TO.P,U14,10,AD0*%
%TO.N,/AD0*%
X144018000Y-116586000D03*
%TO.P,U14,11,R/~{W}*%
%TO.N,/RnW*%
X141478000Y-116586000D03*
%TO.P,U14,12,VSS*%
%TO.N,VSS*%
X138938000Y-116586000D03*
%TO.P,U14,13,MODE*%
%TO.N,/MODE*%
X136398000Y-116586000D03*
%TO.P,U14,14,~{CSW}*%
%TO.N,/nCSW*%
X133858000Y-116586000D03*
%TO.P,U14,15,~{CSR}*%
%TO.N,/nCSR*%
X131318000Y-116586000D03*
%TO.P,U14,16,~{INT}*%
%TO.N,/nINT*%
X128778000Y-116586000D03*
%TO.P,U14,17,CD7*%
%TO.N,/D7*%
X126238000Y-116586000D03*
%TO.P,U14,18,CD6*%
%TO.N,/D6*%
X123698000Y-116586000D03*
%TO.P,U14,19,CD5*%
%TO.N,/D5*%
X121158000Y-116586000D03*
%TO.P,U14,20,CD4*%
%TO.N,/D4*%
X118618000Y-116586000D03*
%TO.P,U14,21,CD3*%
%TO.N,/D3*%
X118618000Y-131826000D03*
%TO.P,U14,22,CD2*%
%TO.N,/D2*%
X121158000Y-131826000D03*
%TO.P,U14,23,CD1*%
%TO.N,/D1*%
X123698000Y-131826000D03*
%TO.P,U14,24,CD0*%
%TO.N,/D0*%
X126238000Y-131826000D03*
%TO.P,U14,25,RD7*%
%TO.N,/R7*%
X128778000Y-131826000D03*
%TO.P,U14,26,RD6*%
%TO.N,/R6*%
X131318000Y-131826000D03*
%TO.P,U14,27,RD5*%
%TO.N,/R5*%
X133858000Y-131826000D03*
%TO.P,U14,28,RD4*%
%TO.N,/R4*%
X136398000Y-131826000D03*
%TO.P,U14,29,RD3*%
%TO.N,/R3*%
X138938000Y-131826000D03*
%TO.P,U14,30,RD2*%
%TO.N,/R2*%
X141478000Y-131826000D03*
%TO.P,U14,31,RD1*%
%TO.N,/R1*%
X144018000Y-131826000D03*
%TO.P,U14,32,RD0*%
%TO.N,/R0*%
X146558000Y-131826000D03*
%TO.P,U14,33,VCC*%
%TO.N,VCC*%
X149098000Y-131826000D03*
%TO.P,U14,34,~{RESET}*%
%TO.N,/nRESET*%
X151638000Y-131826000D03*
%TO.P,U14,35,EXTVID*%
%TO.N,Net-(J3-Pin_1)*%
X154178000Y-131826000D03*
%TO.P,U14,36,COMVID*%
%TO.N,/Y*%
X156718000Y-131826000D03*
%TO.P,U14,37,NC*%
%TO.N,unconnected-(U14-NC-Pad37)*%
X159258000Y-131826000D03*
%TO.P,U14,38,CPUCLK*%
%TO.N,Net-(J2-Pin_1)*%
X161798000Y-131826000D03*
%TO.P,U14,39,XTAL2*%
%TO.N,Net-(U14-XTAL2)*%
X164338000Y-131826000D03*
%TO.P,U14,40,XTAL1*%
%TO.N,Net-(U14-XTAL1)*%
X166878000Y-131826000D03*
%TD*%
D15*
%TO.P,C3,1*%
%TO.N,VCC*%
X136906000Y-97322000D03*
%TO.P,C3,2*%
%TO.N,VSS*%
X136906000Y-102322000D03*
%TD*%
D13*
%TO.P,U3,1,~{G}*%
%TO.N,VSS*%
X161290000Y-97282000D03*
D14*
%TO.P,U3,2,DQ1*%
%TO.N,/R7*%
X158750000Y-97282000D03*
%TO.P,U3,3,DQ2*%
%TO.N,/R6*%
X156210000Y-97282000D03*
%TO.P,U3,4,~{W}*%
%TO.N,/RnW*%
X153670000Y-97282000D03*
%TO.P,U3,5,~{RAS}*%
%TO.N,/nRAS*%
X151130000Y-97282000D03*
%TO.P,U3,6,A6*%
%TO.N,/AD1*%
X148590000Y-97282000D03*
%TO.P,U3,7,A5*%
%TO.N,/AD2*%
X146050000Y-97282000D03*
%TO.P,U3,8,A4*%
%TO.N,/AD3*%
X143510000Y-97282000D03*
%TO.P,U3,9,VDD*%
%TO.N,VCC*%
X140970000Y-97282000D03*
%TO.P,U3,10,A7*%
%TO.N,/AD0*%
X140970000Y-104902000D03*
%TO.P,U3,11,A3*%
%TO.N,/AD4*%
X143510000Y-104902000D03*
%TO.P,U3,12,A2*%
%TO.N,/AD5*%
X146050000Y-104902000D03*
%TO.P,U3,13,A1*%
%TO.N,/AD6*%
X148590000Y-104902000D03*
%TO.P,U3,14,A0*%
%TO.N,/AD7*%
X151130000Y-104902000D03*
%TO.P,U3,15,DQ3*%
%TO.N,/R5*%
X153670000Y-104902000D03*
%TO.P,U3,16,~{CAS}*%
%TO.N,/nCAS*%
X156210000Y-104902000D03*
%TO.P,U3,17,DQ4*%
%TO.N,/R4*%
X158750000Y-104902000D03*
%TO.P,U3,18,VSS*%
%TO.N,VSS*%
X161290000Y-104902000D03*
%TD*%
D15*
%TO.P,R7,1*%
%TO.N,/Y*%
X180136800Y-110871000D03*
D16*
%TO.P,R7,2*%
%TO.N,VSS*%
X180136800Y-118491000D03*
%TD*%
D15*
%TO.P,C11,1*%
%TO.N,VSS*%
X174498000Y-137902000D03*
%TO.P,C11,2*%
%TO.N,Net-(U14-XTAL1)*%
X174498000Y-135402000D03*
%TD*%
D17*
%TO.P,C14,1*%
%TO.N,Net-(C14-Pad1)*%
X189611000Y-99350200D03*
D15*
%TO.P,C14,2*%
%TO.N,Net-(J1-In)*%
X189611000Y-96850200D03*
%TD*%
D17*
%TO.P,C7,1*%
%TO.N,VCC*%
X186334400Y-120472200D03*
D15*
%TO.P,C7,2*%
%TO.N,VSS*%
X183834400Y-120472200D03*
%TD*%
D18*
%TO.P,Y1,1,1*%
%TO.N,Net-(U14-XTAL1)*%
X169726000Y-136398000D03*
%TO.P,Y1,2,2*%
%TO.N,Net-(U14-XTAL2)*%
X164846000Y-136398000D03*
%TD*%
D15*
%TO.P,R1,1*%
%TO.N,Net-(C14-Pad1)*%
X184988200Y-99364800D03*
D16*
%TO.P,R1,2*%
%TO.N,Net-(R1-Pad2)*%
X184988200Y-106984800D03*
%TD*%
D19*
%TO.P,J10,1,Pin_1*%
%TO.N,/nRAS*%
X166863000Y-110998000D03*
D20*
%TO.P,J10,2,Pin_2*%
%TO.N,/nCAS*%
X164323000Y-110998000D03*
%TO.P,J10,3,Pin_3*%
%TO.N,/RnW*%
X161783000Y-110998000D03*
%TD*%
D15*
%TO.P,C5,1*%
%TO.N,VCC*%
X193254000Y-135128000D03*
%TO.P,C5,2*%
%TO.N,VSS*%
X188254000Y-135128000D03*
%TD*%
%TO.P,C12,1*%
%TO.N,Net-(U14-XTAL2)*%
X160020000Y-135402000D03*
%TO.P,C12,2*%
%TO.N,VSS*%
X160020000Y-137902000D03*
%TD*%
D21*
%TO.P,J8,1,Pin_1*%
%TO.N,/AD0*%
X140716000Y-111028000D03*
D22*
%TO.P,J8,2,Pin_2*%
%TO.N,/AD1*%
X143256000Y-111028000D03*
%TO.P,J8,3,Pin_3*%
%TO.N,/AD2*%
X145796000Y-111028000D03*
%TO.P,J8,4,Pin_4*%
%TO.N,/AD3*%
X148336000Y-111028000D03*
%TO.P,J8,5,Pin_5*%
%TO.N,/AD4*%
X150876000Y-111028000D03*
%TO.P,J8,6,Pin_6*%
%TO.N,/AD5*%
X153416000Y-111028000D03*
%TO.P,J8,7,Pin_7*%
%TO.N,/AD6*%
X155956000Y-111028000D03*
%TO.P,J8,8,Pin_8*%
%TO.N,/AD7*%
X158496000Y-111028000D03*
%TD*%
D15*
%TO.P,C4,1*%
%TO.N,VCC*%
X187894600Y-116052600D03*
%TO.P,C4,2*%
%TO.N,VSS*%
X182894600Y-116052600D03*
%TD*%
D19*
%TO.P,J2,1,Pin_1*%
%TO.N,Net-(J2-Pin_1)*%
X170434000Y-128773000D03*
D20*
%TO.P,J2,2,Pin_2*%
%TO.N,VSS*%
X170434000Y-131313000D03*
%TD*%
D19*
%TO.P,J3,1,Pin_1*%
%TO.N,Net-(J3-Pin_1)*%
X156972000Y-135123000D03*
D20*
%TO.P,J3,2,Pin_2*%
%TO.N,VSS*%
X156972000Y-137663000D03*
%TD*%
D17*
%TO.P,C1,1*%
%TO.N,VCC*%
X191959112Y-139700000D03*
D15*
%TO.P,C1,2*%
%TO.N,VSS*%
X189459112Y-139700000D03*
%TD*%
%TO.P,C17,1*%
%TO.N,/Y*%
X176936400Y-110936400D03*
%TO.P,C17,2*%
%TO.N,VSS*%
X176936400Y-115936400D03*
%TD*%
%TO.P,R4,1*%
%TO.N,Net-(C14-Pad1)*%
X181381400Y-99364800D03*
D16*
%TO.P,R4,2*%
%TO.N,VSS*%
X181381400Y-106984800D03*
%TD*%
D15*
%TO.P,C6,1*%
%TO.N,VCC*%
X148924000Y-134874000D03*
%TO.P,C6,2*%
%TO.N,VSS*%
X153924000Y-134874000D03*
%TD*%
D21*
%TO.P,J9,1,Pin_1*%
%TO.N,/R0*%
X146558000Y-136114000D03*
D22*
%TO.P,J9,2,Pin_2*%
%TO.N,/R1*%
X144018000Y-136114000D03*
%TO.P,J9,3,Pin_3*%
%TO.N,/R2*%
X141478000Y-136114000D03*
%TO.P,J9,4,Pin_4*%
%TO.N,/R3*%
X138938000Y-136114000D03*
%TO.P,J9,5,Pin_5*%
%TO.N,/R4*%
X136398000Y-136114000D03*
%TO.P,J9,6,Pin_6*%
%TO.N,/R5*%
X133858000Y-136114000D03*
%TO.P,J9,7,Pin_7*%
%TO.N,/R6*%
X131318000Y-136114000D03*
%TO.P,J9,8,Pin_8*%
%TO.N,/R7*%
X128778000Y-136114000D03*
%TD*%
D23*
%TO.P,J1,1,In*%
%TO.N,Net-(J1-In)*%
X185674000Y-90794500D03*
D24*
%TO.P,J1,2,Ext*%
%TO.N,VSS*%
X185674000Y-86294500D03*
%TD*%
D25*
%TO.N,VSS*%
X161798000Y-145034000D03*
%TD*%
D26*
%TO.N,VCC*%
X186334400Y-120472200D02*
X186334400Y-117612800D01*
X191959112Y-139700000D02*
X191959112Y-139127112D01*
X193294000Y-149860000D02*
X193294000Y-141034888D01*
X156718000Y-124206000D02*
X182600600Y-124206000D01*
X140905000Y-97322000D02*
X140960000Y-97267000D01*
X176263200Y-138442800D02*
X175481800Y-139224200D01*
X149098000Y-131826000D02*
X156718000Y-124206000D01*
X193294000Y-141034888D02*
X191959112Y-139700000D01*
X136652000Y-84408000D02*
X140840000Y-84408000D01*
X175481800Y-139224200D02*
X153274200Y-139224200D01*
X140840000Y-84408000D02*
X140950000Y-84298000D01*
X191274800Y-138442800D02*
X176263200Y-138442800D01*
X153274200Y-139224200D02*
X148924000Y-134874000D01*
X191959112Y-139127112D02*
X191274800Y-138442800D01*
X182600600Y-124206000D02*
X186334400Y-120472200D01*
X136906000Y-97322000D02*
X140905000Y-97322000D01*
X186334400Y-117612800D02*
X187894600Y-116052600D01*
%TO.N,/R0*%
X171196000Y-86106000D02*
X159156400Y-86106000D01*
X158740000Y-85689600D02*
X158740000Y-84328000D01*
X172516800Y-87426800D02*
X171196000Y-86106000D01*
X159156400Y-86106000D02*
X158740000Y-85689600D01*
X168547295Y-123596899D02*
X172516800Y-119627394D01*
X172516800Y-119627394D02*
X172516800Y-87426800D01*
X154787101Y-123596899D02*
X168547295Y-123596899D01*
X146558000Y-131826000D02*
X154787101Y-123596899D01*
%TO.N,/R1*%
X152456202Y-122987798D02*
X168294998Y-122987798D01*
X171856400Y-89052400D02*
X170027101Y-87223101D01*
X156200000Y-85842000D02*
X156200000Y-84328000D01*
X157581101Y-87223101D02*
X156200000Y-85842000D01*
X170027101Y-87223101D02*
X157581101Y-87223101D01*
X168294998Y-122987798D02*
X171856400Y-119426396D01*
X144018000Y-131426000D02*
X152456202Y-122987798D01*
X144018000Y-131826000D02*
X144018000Y-131426000D01*
X171856400Y-119426396D02*
X171856400Y-89052400D01*
%TO.N,/R2*%
X141478000Y-131826000D02*
X150925303Y-122378697D01*
X168910000Y-88646000D02*
X155422600Y-88646000D01*
X155422600Y-88646000D02*
X153660000Y-90408600D01*
X153660000Y-90408600D02*
X153660000Y-91948000D01*
X168042701Y-122378697D02*
X171221400Y-119199998D01*
X171221400Y-90957400D02*
X168910000Y-88646000D01*
X150925303Y-122378697D02*
X168042701Y-122378697D01*
X171221400Y-119199998D02*
X171221400Y-90957400D01*
%TO.N,/R3*%
X159207200Y-89916000D02*
X158740000Y-90383200D01*
X167536407Y-121769593D02*
X170510200Y-118795800D01*
X170510200Y-118795800D02*
X170510200Y-92278200D01*
X158740000Y-90383200D02*
X158740000Y-91948000D01*
X138938000Y-131826000D02*
X148994407Y-121769593D01*
X168148000Y-89916000D02*
X159207200Y-89916000D01*
X170510200Y-92278200D02*
X168148000Y-89916000D01*
X148994407Y-121769593D02*
X167536407Y-121769593D01*
%TO.N,/R4*%
X137680800Y-130543200D02*
X137680800Y-109651700D01*
X158750000Y-106324400D02*
X158750000Y-104902000D01*
X136398000Y-131826000D02*
X137680800Y-130543200D01*
X156870400Y-108204000D02*
X158750000Y-106324400D01*
X137680800Y-109651700D02*
X139128500Y-108204000D01*
X139128500Y-108204000D02*
X156870400Y-108204000D01*
%TO.N,/R5*%
X153670000Y-106172000D02*
X153670000Y-104902000D01*
X152654000Y-107188000D02*
X153670000Y-106172000D01*
X137083800Y-107188000D02*
X152654000Y-107188000D01*
X135140800Y-109131000D02*
X137083800Y-107188000D01*
X133858000Y-131826000D02*
X135140800Y-130543200D01*
X135140800Y-130543200D02*
X135140800Y-109131000D01*
%TO.N,/R6*%
X134721600Y-95250000D02*
X155854400Y-95250000D01*
X132588000Y-97383600D02*
X134721600Y-95250000D01*
X155854400Y-95250000D02*
X156210000Y-95605600D01*
X131318000Y-131826000D02*
X132588000Y-130556000D01*
X132588000Y-130556000D02*
X132588000Y-97383600D01*
X156210000Y-95605600D02*
X156210000Y-97282000D01*
%TO.N,/R7*%
X128778000Y-131826000D02*
X130060800Y-130543200D01*
X130060800Y-97472400D02*
X133553200Y-93980000D01*
X157759400Y-93980000D02*
X158750000Y-94970600D01*
X133553200Y-93980000D02*
X157759400Y-93980000D01*
X130060800Y-130543200D02*
X130060800Y-97472400D01*
X158750000Y-94970600D02*
X158750000Y-97282000D01*
%TD*%
%TA.AperFunction,Conductor*%
%TO.N,VSS*%
G36*
X196013573Y-80284502D02*
G01*
X196069152Y-80339755D01*
X196089650Y-80414176D01*
X196342000Y-103378000D01*
X196342000Y-130551466D01*
X196341460Y-130560493D01*
X195580000Y-136905995D01*
X195580000Y-136905999D01*
X195580000Y-136906000D01*
X195645706Y-139747796D01*
X195681100Y-141278575D01*
X195681100Y-145898600D01*
X195660816Y-145974300D01*
X195605400Y-146029716D01*
X195529700Y-146050000D01*
X194292344Y-146050000D01*
X194286871Y-146049802D01*
X194282707Y-146049500D01*
X194282706Y-146049500D01*
X194282704Y-146049500D01*
X193979300Y-146049500D01*
X193903600Y-146029216D01*
X193848184Y-145973800D01*
X193827900Y-145898100D01*
X193827900Y-141044027D01*
X193830095Y-140979776D01*
X193820117Y-140938836D01*
X193818671Y-140931225D01*
X193812935Y-140889489D01*
X193807064Y-140875974D01*
X193798835Y-140851500D01*
X193795347Y-140837185D01*
X193774696Y-140800458D01*
X193771245Y-140793509D01*
X193754464Y-140754875D01*
X193754464Y-140754874D01*
X193745158Y-140743436D01*
X193730633Y-140722093D01*
X193723414Y-140709254D01*
X193693634Y-140679474D01*
X193688437Y-140673716D01*
X193661842Y-140641026D01*
X193661840Y-140641024D01*
X193649798Y-140632524D01*
X193630051Y-140615891D01*
X193184956Y-140170795D01*
X193145771Y-140102924D01*
X193140612Y-140063739D01*
X193140612Y-138863794D01*
X193140611Y-138863790D01*
X193129808Y-138789642D01*
X193129808Y-138789639D01*
X193073888Y-138675254D01*
X192983858Y-138585224D01*
X192869473Y-138529304D01*
X192869471Y-138529303D01*
X192869469Y-138529303D01*
X192795321Y-138518500D01*
X192795318Y-138518500D01*
X192168261Y-138518500D01*
X192092561Y-138498216D01*
X192061205Y-138474156D01*
X191658773Y-138071724D01*
X191614908Y-138024756D01*
X191614907Y-138024755D01*
X191614906Y-138024754D01*
X191584334Y-138006162D01*
X191578905Y-138002860D01*
X191572501Y-137998502D01*
X191551181Y-137982335D01*
X191538928Y-137973043D01*
X191525221Y-137967638D01*
X191502101Y-137956155D01*
X191489506Y-137948495D01*
X191448941Y-137937130D01*
X191441587Y-137934658D01*
X191402397Y-137919203D01*
X191402395Y-137919202D01*
X191387727Y-137917694D01*
X191362378Y-137912876D01*
X191348187Y-137908900D01*
X191348183Y-137908900D01*
X191306059Y-137908900D01*
X191298318Y-137908503D01*
X191272161Y-137905814D01*
X191256403Y-137904194D01*
X191256397Y-137904194D01*
X191241871Y-137906699D01*
X191216149Y-137908900D01*
X176272322Y-137908900D01*
X176208088Y-137906706D01*
X176208087Y-137906706D01*
X176208086Y-137906706D01*
X176167156Y-137916679D01*
X176159540Y-137918126D01*
X176117810Y-137923862D01*
X176117800Y-137923865D01*
X176104276Y-137929739D01*
X176079820Y-137937962D01*
X176065500Y-137941452D01*
X176065493Y-137941454D01*
X176028777Y-137962099D01*
X176021833Y-137965548D01*
X175983186Y-137982335D01*
X175983182Y-137982337D01*
X175971747Y-137991641D01*
X175950415Y-138006160D01*
X175937565Y-138013386D01*
X175937564Y-138013386D01*
X175937562Y-138013388D01*
X175907773Y-138043176D01*
X175902017Y-138048370D01*
X175869337Y-138074958D01*
X175860837Y-138087000D01*
X175844206Y-138106743D01*
X175304995Y-138645956D01*
X175237124Y-138685141D01*
X175197939Y-138690300D01*
X173328600Y-138690300D01*
X173252900Y-138670016D01*
X173197484Y-138614600D01*
X173177200Y-138538900D01*
X173177200Y-136043848D01*
X173197484Y-135968148D01*
X173252900Y-135912732D01*
X173328600Y-135892448D01*
X173404300Y-135912732D01*
X173459716Y-135968148D01*
X173464128Y-135976363D01*
X173489165Y-136026645D01*
X173621114Y-136201375D01*
X173621116Y-136201377D01*
X173621120Y-136201382D01*
X173782937Y-136348897D01*
X173969104Y-136464167D01*
X174173282Y-136543266D01*
X174388518Y-136583500D01*
X174388522Y-136583500D01*
X174607478Y-136583500D01*
X174607482Y-136583500D01*
X174822718Y-136543266D01*
X175026896Y-136464167D01*
X175213063Y-136348897D01*
X175374880Y-136201382D01*
X175506835Y-136026644D01*
X175604436Y-135830636D01*
X175664359Y-135620030D01*
X175684562Y-135402000D01*
X175680002Y-135352794D01*
X175664359Y-135183972D01*
X175664357Y-135183963D01*
X175648434Y-135128001D01*
X192067438Y-135128001D01*
X192087640Y-135346027D01*
X192087642Y-135346036D01*
X192147562Y-135556630D01*
X192147564Y-135556636D01*
X192245165Y-135752645D01*
X192377114Y-135927375D01*
X192377116Y-135927377D01*
X192377120Y-135927382D01*
X192538937Y-136074897D01*
X192725104Y-136190167D01*
X192725108Y-136190168D01*
X192725109Y-136190169D01*
X192754053Y-136201382D01*
X192929282Y-136269266D01*
X193144518Y-136309500D01*
X193144522Y-136309500D01*
X193363478Y-136309500D01*
X193363482Y-136309500D01*
X193578718Y-136269266D01*
X193782896Y-136190167D01*
X193969063Y-136074897D01*
X194130880Y-135927382D01*
X194262835Y-135752644D01*
X194360436Y-135556636D01*
X194420359Y-135346030D01*
X194440562Y-135128000D01*
X194420359Y-134909970D01*
X194360436Y-134699364D01*
X194262835Y-134503356D01*
X194262834Y-134503355D01*
X194262834Y-134503354D01*
X194130885Y-134328624D01*
X194130883Y-134328622D01*
X194130880Y-134328618D01*
X193969063Y-134181103D01*
X193797094Y-134074624D01*
X193782898Y-134065834D01*
X193782890Y-134065830D01*
X193578722Y-133986735D01*
X193578714Y-133986733D01*
X193363484Y-133946500D01*
X193363482Y-133946500D01*
X193144518Y-133946500D01*
X193144515Y-133946500D01*
X192929285Y-133986733D01*
X192929277Y-133986735D01*
X192725109Y-134065830D01*
X192725101Y-134065834D01*
X192538935Y-134181104D01*
X192377118Y-134328620D01*
X192377114Y-134328624D01*
X192245165Y-134503354D01*
X192147564Y-134699363D01*
X192147562Y-134699369D01*
X192087642Y-134909963D01*
X192087640Y-134909972D01*
X192067438Y-135127998D01*
X192067438Y-135128001D01*
X175648434Y-135128001D01*
X175640273Y-135099318D01*
X175604436Y-134973364D01*
X175506835Y-134777356D01*
X175506834Y-134777355D01*
X175506834Y-134777354D01*
X175374885Y-134602624D01*
X175374883Y-134602622D01*
X175374880Y-134602618D01*
X175213063Y-134455103D01*
X175026896Y-134339833D01*
X175026890Y-134339830D01*
X174822722Y-134260735D01*
X174822714Y-134260733D01*
X174607484Y-134220500D01*
X174607482Y-134220500D01*
X174388518Y-134220500D01*
X174388515Y-134220500D01*
X174173285Y-134260733D01*
X174173277Y-134260735D01*
X173969109Y-134339830D01*
X173969101Y-134339834D01*
X173782935Y-134455104D01*
X173621118Y-134602620D01*
X173621114Y-134602624D01*
X173489164Y-134777356D01*
X173489163Y-134777357D01*
X173464127Y-134827637D01*
X173412227Y-134886359D01*
X173337919Y-134911264D01*
X173261114Y-134895678D01*
X173202392Y-134843778D01*
X173177487Y-134769470D01*
X173177200Y-134760151D01*
X173177200Y-133680200D01*
X167269378Y-133654952D01*
X167193766Y-133634346D01*
X167138587Y-133578693D01*
X167118627Y-133502907D01*
X167139234Y-133427294D01*
X167194887Y-133372115D01*
X167215322Y-133362383D01*
X167406896Y-133288167D01*
X167593063Y-133172897D01*
X167754880Y-133025382D01*
X167886835Y-132850644D01*
X167984436Y-132654636D01*
X168044359Y-132444030D01*
X168059500Y-132280629D01*
X168059500Y-131371371D01*
X168044359Y-131207970D01*
X167984436Y-130997364D01*
X167886835Y-130801356D01*
X167886834Y-130801355D01*
X167886834Y-130801354D01*
X167754885Y-130626624D01*
X167754883Y-130626622D01*
X167754880Y-130626618D01*
X167593063Y-130479103D01*
X167409944Y-130365720D01*
X167406898Y-130363834D01*
X167406890Y-130363830D01*
X167202722Y-130284735D01*
X167202714Y-130284733D01*
X166987484Y-130244500D01*
X166987482Y-130244500D01*
X166768518Y-130244500D01*
X166768515Y-130244500D01*
X166553285Y-130284733D01*
X166553277Y-130284735D01*
X166349109Y-130363830D01*
X166349101Y-130363834D01*
X166162935Y-130479104D01*
X166001118Y-130626620D01*
X166001114Y-130626624D01*
X165869165Y-130801354D01*
X165771564Y-130997363D01*
X165771561Y-130997369D01*
X165753620Y-131060428D01*
X165713394Y-131127687D01*
X165644928Y-131165822D01*
X165566567Y-131164615D01*
X165499308Y-131124389D01*
X165462380Y-131060428D01*
X165444438Y-130997369D01*
X165444436Y-130997364D01*
X165346835Y-130801356D01*
X165346834Y-130801355D01*
X165346834Y-130801354D01*
X165214885Y-130626624D01*
X165214883Y-130626622D01*
X165214880Y-130626618D01*
X165053063Y-130479103D01*
X164869944Y-130365720D01*
X164866898Y-130363834D01*
X164866890Y-130363830D01*
X164662722Y-130284735D01*
X164662714Y-130284733D01*
X164447484Y-130244500D01*
X164447482Y-130244500D01*
X164228518Y-130244500D01*
X164228515Y-130244500D01*
X164013285Y-130284733D01*
X164013277Y-130284735D01*
X163809109Y-130363830D01*
X163809101Y-130363834D01*
X163622935Y-130479104D01*
X163461118Y-130626620D01*
X163461114Y-130626624D01*
X163329165Y-130801354D01*
X163231564Y-130997363D01*
X163231561Y-130997369D01*
X163213620Y-131060428D01*
X163173394Y-131127687D01*
X163104928Y-131165822D01*
X163026567Y-131164615D01*
X162959308Y-131124389D01*
X162922380Y-131060428D01*
X162904438Y-130997369D01*
X162904436Y-130997364D01*
X162806835Y-130801356D01*
X162806834Y-130801355D01*
X162806834Y-130801354D01*
X162674885Y-130626624D01*
X162674883Y-130626622D01*
X162674880Y-130626618D01*
X162513063Y-130479103D01*
X162329944Y-130365720D01*
X162326898Y-130363834D01*
X162326890Y-130363830D01*
X162122722Y-130284735D01*
X162122714Y-130284733D01*
X161907484Y-130244500D01*
X161907482Y-130244500D01*
X161688518Y-130244500D01*
X161688515Y-130244500D01*
X161473285Y-130284733D01*
X161473277Y-130284735D01*
X161269109Y-130363830D01*
X161269101Y-130363834D01*
X161082935Y-130479104D01*
X160921118Y-130626620D01*
X160921114Y-130626624D01*
X160789165Y-130801354D01*
X160691564Y-130997363D01*
X160691561Y-130997369D01*
X160673620Y-131060428D01*
X160633394Y-131127687D01*
X160564928Y-131165822D01*
X160486567Y-131164615D01*
X160419308Y-131124389D01*
X160382380Y-131060428D01*
X160364438Y-130997369D01*
X160364436Y-130997364D01*
X160266835Y-130801356D01*
X160266834Y-130801355D01*
X160266834Y-130801354D01*
X160134885Y-130626624D01*
X160134883Y-130626622D01*
X160134880Y-130626618D01*
X159973063Y-130479103D01*
X159789944Y-130365720D01*
X159786898Y-130363834D01*
X159786890Y-130363830D01*
X159582722Y-130284735D01*
X159582714Y-130284733D01*
X159367484Y-130244500D01*
X159367482Y-130244500D01*
X159148518Y-130244500D01*
X159148515Y-130244500D01*
X158933285Y-130284733D01*
X158933277Y-130284735D01*
X158729109Y-130363830D01*
X158729101Y-130363834D01*
X158542935Y-130479104D01*
X158381118Y-130626620D01*
X158381114Y-130626624D01*
X158249165Y-130801354D01*
X158151564Y-130997363D01*
X158151561Y-130997369D01*
X158133620Y-131060428D01*
X158093394Y-131127687D01*
X158024928Y-131165822D01*
X157946567Y-131164615D01*
X157879308Y-131124389D01*
X157842380Y-131060428D01*
X157824438Y-130997369D01*
X157824436Y-130997364D01*
X157726835Y-130801356D01*
X157726834Y-130801355D01*
X157726834Y-130801354D01*
X157594885Y-130626624D01*
X157594883Y-130626622D01*
X157594880Y-130626618D01*
X157433063Y-130479103D01*
X157249944Y-130365720D01*
X157246898Y-130363834D01*
X157246890Y-130363830D01*
X157042722Y-130284735D01*
X157042714Y-130284733D01*
X156827484Y-130244500D01*
X156827482Y-130244500D01*
X156608518Y-130244500D01*
X156608515Y-130244500D01*
X156393285Y-130284733D01*
X156393277Y-130284735D01*
X156189109Y-130363830D01*
X156189101Y-130363834D01*
X156002935Y-130479104D01*
X155841118Y-130626620D01*
X155841114Y-130626624D01*
X155709165Y-130801354D01*
X155611564Y-130997363D01*
X155611561Y-130997369D01*
X155593620Y-131060428D01*
X155553394Y-131127687D01*
X155484928Y-131165822D01*
X155406567Y-131164615D01*
X155339308Y-131124389D01*
X155302380Y-131060428D01*
X155284438Y-130997369D01*
X155284436Y-130997364D01*
X155186835Y-130801356D01*
X155186834Y-130801355D01*
X155186834Y-130801354D01*
X155054885Y-130626624D01*
X155054883Y-130626622D01*
X155054880Y-130626618D01*
X154893063Y-130479103D01*
X154709944Y-130365720D01*
X154706898Y-130363834D01*
X154706890Y-130363830D01*
X154502722Y-130284735D01*
X154502714Y-130284733D01*
X154287484Y-130244500D01*
X154287482Y-130244500D01*
X154068518Y-130244500D01*
X154068515Y-130244500D01*
X153853285Y-130284733D01*
X153853277Y-130284735D01*
X153649109Y-130363830D01*
X153649101Y-130363834D01*
X153462935Y-130479104D01*
X153301118Y-130626620D01*
X153301114Y-130626624D01*
X153169165Y-130801354D01*
X153071564Y-130997363D01*
X153071561Y-130997369D01*
X153053620Y-131060428D01*
X153013394Y-131127687D01*
X152944928Y-131165822D01*
X152866567Y-131164615D01*
X152799308Y-131124389D01*
X152762380Y-131060428D01*
X152744438Y-130997369D01*
X152744436Y-130997364D01*
X152646835Y-130801356D01*
X152646834Y-130801355D01*
X152646834Y-130801354D01*
X152514885Y-130626624D01*
X152514883Y-130626622D01*
X152514880Y-130626618D01*
X152353063Y-130479103D01*
X152169944Y-130365720D01*
X152166898Y-130363834D01*
X152166890Y-130363830D01*
X151962722Y-130284735D01*
X151962714Y-130284733D01*
X151766169Y-130247993D01*
X151695485Y-130214145D01*
X151651195Y-130149490D01*
X151645166Y-130071352D01*
X151679014Y-130000668D01*
X151686918Y-129992129D01*
X152019841Y-129659206D01*
X169202500Y-129659206D01*
X169213304Y-129733361D01*
X169269224Y-129847746D01*
X169359254Y-129937776D01*
X169473639Y-129993696D01*
X169547794Y-130004500D01*
X169547795Y-130004500D01*
X171320205Y-130004500D01*
X171320206Y-130004500D01*
X171394361Y-129993696D01*
X171508746Y-129937776D01*
X171598776Y-129847746D01*
X171654696Y-129733361D01*
X171665500Y-129659206D01*
X171665500Y-127886794D01*
X171654696Y-127812639D01*
X171598776Y-127698254D01*
X171508746Y-127608224D01*
X171394361Y-127552304D01*
X171394359Y-127552303D01*
X171394357Y-127552303D01*
X171320209Y-127541500D01*
X171320206Y-127541500D01*
X169547794Y-127541500D01*
X169547790Y-127541500D01*
X169473642Y-127552303D01*
X169473639Y-127552304D01*
X169359253Y-127608224D01*
X169269224Y-127698253D01*
X169213304Y-127812639D01*
X169213303Y-127812642D01*
X169202500Y-127886790D01*
X169202500Y-127886794D01*
X169202500Y-129659206D01*
X152019841Y-129659206D01*
X156894805Y-124784244D01*
X156962676Y-124745059D01*
X157001861Y-124739900D01*
X182591478Y-124739900D01*
X182655712Y-124742094D01*
X182685398Y-124734859D01*
X182696641Y-124732120D01*
X182704260Y-124730671D01*
X182745999Y-124724935D01*
X182759517Y-124719062D01*
X182783983Y-124710835D01*
X182798306Y-124707346D01*
X182835050Y-124686684D01*
X182841963Y-124683251D01*
X182880614Y-124666464D01*
X182892045Y-124657163D01*
X182913387Y-124642637D01*
X182926235Y-124635414D01*
X182956031Y-124605616D01*
X182961768Y-124600439D01*
X182994462Y-124573842D01*
X183002963Y-124561797D01*
X183019590Y-124542057D01*
X185863604Y-121698044D01*
X185931475Y-121658859D01*
X185970660Y-121653700D01*
X187170605Y-121653700D01*
X187170606Y-121653700D01*
X187244761Y-121642896D01*
X187359146Y-121586976D01*
X187449176Y-121496946D01*
X187505096Y-121382561D01*
X187515900Y-121308406D01*
X187515900Y-119635994D01*
X187505096Y-119561839D01*
X187449176Y-119447454D01*
X187359146Y-119357424D01*
X187244761Y-119301504D01*
X187244759Y-119301503D01*
X187244757Y-119301503D01*
X187170609Y-119290700D01*
X187170606Y-119290700D01*
X187019700Y-119290700D01*
X186944000Y-119270416D01*
X186888584Y-119215000D01*
X186868300Y-119139300D01*
X186868300Y-117896660D01*
X186888584Y-117820960D01*
X186912640Y-117789608D01*
X187461639Y-117240608D01*
X187529508Y-117201425D01*
X187596512Y-117198844D01*
X187785118Y-117234100D01*
X187785122Y-117234100D01*
X188004078Y-117234100D01*
X188004082Y-117234100D01*
X188219318Y-117193866D01*
X188423496Y-117114767D01*
X188609663Y-116999497D01*
X188771480Y-116851982D01*
X188903435Y-116677244D01*
X189001036Y-116481236D01*
X189060959Y-116270630D01*
X189081162Y-116052600D01*
X189060959Y-115834570D01*
X189001036Y-115623964D01*
X188903435Y-115427956D01*
X188903434Y-115427955D01*
X188903434Y-115427954D01*
X188771485Y-115253224D01*
X188771483Y-115253222D01*
X188771480Y-115253218D01*
X188609663Y-115105703D01*
X188463664Y-115015304D01*
X188423498Y-114990434D01*
X188423490Y-114990430D01*
X188219322Y-114911335D01*
X188219314Y-114911333D01*
X188004084Y-114871100D01*
X188004082Y-114871100D01*
X187785118Y-114871100D01*
X187785115Y-114871100D01*
X187569885Y-114911333D01*
X187569877Y-114911335D01*
X187365709Y-114990430D01*
X187365701Y-114990434D01*
X187179535Y-115105704D01*
X187147962Y-115134487D01*
X187033204Y-115239103D01*
X187017718Y-115253220D01*
X187017714Y-115253224D01*
X186885765Y-115427954D01*
X186788164Y-115623963D01*
X186788162Y-115623969D01*
X186728242Y-115834563D01*
X186728240Y-115834572D01*
X186708038Y-116052598D01*
X186708038Y-116052601D01*
X186728240Y-116270627D01*
X186728241Y-116270633D01*
X186746704Y-116335519D01*
X186747911Y-116413881D01*
X186709777Y-116482347D01*
X186708140Y-116484009D01*
X185963324Y-117228826D01*
X185916353Y-117272694D01*
X185894463Y-117308688D01*
X185890103Y-117315095D01*
X185864647Y-117348665D01*
X185864644Y-117348670D01*
X185859236Y-117362384D01*
X185847757Y-117385495D01*
X185840095Y-117398094D01*
X185828728Y-117438665D01*
X185826256Y-117446016D01*
X185810802Y-117485201D01*
X185809294Y-117499873D01*
X185804475Y-117525226D01*
X185800500Y-117539413D01*
X185800500Y-117581540D01*
X185800103Y-117589286D01*
X185795794Y-117631195D01*
X185795794Y-117631202D01*
X185798299Y-117645729D01*
X185800500Y-117671451D01*
X185800500Y-119139300D01*
X185780216Y-119215000D01*
X185724800Y-119270416D01*
X185649100Y-119290700D01*
X185498190Y-119290700D01*
X185424042Y-119301503D01*
X185424039Y-119301504D01*
X185309653Y-119357424D01*
X185219624Y-119447453D01*
X185163704Y-119561839D01*
X185163703Y-119561842D01*
X185152900Y-119635990D01*
X185152900Y-120835939D01*
X185132616Y-120911639D01*
X185108556Y-120942995D01*
X182423795Y-123627756D01*
X182355924Y-123666941D01*
X182316739Y-123672100D01*
X169592655Y-123672100D01*
X169516955Y-123651816D01*
X169461539Y-123596400D01*
X169441255Y-123520700D01*
X169461539Y-123445000D01*
X169485599Y-123413644D01*
X172887875Y-120011367D01*
X172934845Y-119967501D01*
X172956735Y-119931504D01*
X172961093Y-119925100D01*
X172986555Y-119891524D01*
X172991961Y-119877812D01*
X173003446Y-119854691D01*
X173011104Y-119842100D01*
X173022475Y-119801509D01*
X173024935Y-119794195D01*
X173040397Y-119754991D01*
X173041904Y-119740325D01*
X173046725Y-119714964D01*
X173050700Y-119700778D01*
X173050700Y-119658652D01*
X173051097Y-119650905D01*
X173052630Y-119635994D01*
X173055406Y-119608995D01*
X173052901Y-119594464D01*
X173050700Y-119568743D01*
X173050700Y-110936401D01*
X175749838Y-110936401D01*
X175770040Y-111154427D01*
X175770042Y-111154436D01*
X175829962Y-111365030D01*
X175829964Y-111365036D01*
X175927565Y-111561045D01*
X176059514Y-111735775D01*
X176059516Y-111735777D01*
X176059520Y-111735782D01*
X176221337Y-111883297D01*
X176407504Y-111998567D01*
X176611682Y-112077666D01*
X176826918Y-112117900D01*
X176826922Y-112117900D01*
X177045878Y-112117900D01*
X177045882Y-112117900D01*
X177261118Y-112077666D01*
X177465296Y-111998567D01*
X177651463Y-111883297D01*
X177813280Y-111735782D01*
X177945235Y-111561044D01*
X178042836Y-111365036D01*
X178102759Y-111154430D01*
X178122962Y-110936400D01*
X178116902Y-110871001D01*
X178950238Y-110871001D01*
X178970440Y-111089027D01*
X178970442Y-111089036D01*
X179030362Y-111299630D01*
X179030364Y-111299636D01*
X179127965Y-111495645D01*
X179259914Y-111670375D01*
X179259916Y-111670377D01*
X179259920Y-111670382D01*
X179421737Y-111817897D01*
X179607904Y-111933167D01*
X179607908Y-111933168D01*
X179607909Y-111933169D01*
X179638415Y-111944987D01*
X179812082Y-112012266D01*
X180027318Y-112052500D01*
X180027322Y-112052500D01*
X180246278Y-112052500D01*
X180246282Y-112052500D01*
X180461518Y-112012266D01*
X180665696Y-111933167D01*
X180851863Y-111817897D01*
X181013680Y-111670382D01*
X181145635Y-111495644D01*
X181243236Y-111299636D01*
X181303159Y-111089030D01*
X181323362Y-110871000D01*
X181303159Y-110652970D01*
X181243236Y-110442364D01*
X181145635Y-110246356D01*
X181145634Y-110246355D01*
X181145634Y-110246354D01*
X181013685Y-110071624D01*
X181013683Y-110071622D01*
X181013680Y-110071618D01*
X180851863Y-109924103D01*
X180705089Y-109833224D01*
X180665698Y-109808834D01*
X180665690Y-109808830D01*
X180461522Y-109729735D01*
X180461514Y-109729733D01*
X180246284Y-109689500D01*
X180246282Y-109689500D01*
X180027318Y-109689500D01*
X180027315Y-109689500D01*
X179812085Y-109729733D01*
X179812077Y-109729735D01*
X179607909Y-109808830D01*
X179607901Y-109808834D01*
X179421735Y-109924104D01*
X179259918Y-110071620D01*
X179259914Y-110071624D01*
X179127965Y-110246354D01*
X179030364Y-110442363D01*
X179030362Y-110442369D01*
X178970442Y-110652963D01*
X178970440Y-110652972D01*
X178950238Y-110870998D01*
X178950238Y-110871001D01*
X178116902Y-110871001D01*
X178102759Y-110718370D01*
X178042836Y-110507764D01*
X177945235Y-110311756D01*
X177945234Y-110311755D01*
X177945234Y-110311754D01*
X177813285Y-110137024D01*
X177813283Y-110137022D01*
X177813280Y-110137018D01*
X177651463Y-109989503D01*
X177465296Y-109874233D01*
X177465290Y-109874230D01*
X177261122Y-109795135D01*
X177261114Y-109795133D01*
X177045884Y-109754900D01*
X177045882Y-109754900D01*
X176826918Y-109754900D01*
X176826915Y-109754900D01*
X176611685Y-109795133D01*
X176611677Y-109795135D01*
X176407509Y-109874230D01*
X176407501Y-109874234D01*
X176221335Y-109989504D01*
X176059518Y-110137020D01*
X176059514Y-110137024D01*
X175927565Y-110311754D01*
X175829964Y-110507763D01*
X175829962Y-110507769D01*
X175770042Y-110718363D01*
X175770040Y-110718372D01*
X175749838Y-110936398D01*
X175749838Y-110936401D01*
X173050700Y-110936401D01*
X173050700Y-106984801D01*
X183801638Y-106984801D01*
X183821840Y-107202827D01*
X183821842Y-107202836D01*
X183881762Y-107413430D01*
X183881764Y-107413436D01*
X183979365Y-107609445D01*
X184111314Y-107784175D01*
X184111316Y-107784177D01*
X184111320Y-107784182D01*
X184273137Y-107931697D01*
X184459304Y-108046967D01*
X184663482Y-108126066D01*
X184878718Y-108166300D01*
X184878722Y-108166300D01*
X185097678Y-108166300D01*
X185097682Y-108166300D01*
X185312918Y-108126066D01*
X185517096Y-108046967D01*
X185703263Y-107931697D01*
X185865080Y-107784182D01*
X185997035Y-107609444D01*
X186094636Y-107413436D01*
X186154559Y-107202830D01*
X186174762Y-106984800D01*
X186154559Y-106766770D01*
X186094636Y-106556164D01*
X185997035Y-106360156D01*
X185997034Y-106360155D01*
X185997034Y-106360154D01*
X185865085Y-106185424D01*
X185865083Y-106185422D01*
X185865080Y-106185418D01*
X185703263Y-106037903D01*
X185517096Y-105922633D01*
X185517090Y-105922630D01*
X185312922Y-105843535D01*
X185312914Y-105843533D01*
X185097684Y-105803300D01*
X185097682Y-105803300D01*
X184878718Y-105803300D01*
X184878715Y-105803300D01*
X184663485Y-105843533D01*
X184663477Y-105843535D01*
X184459309Y-105922630D01*
X184459301Y-105922634D01*
X184273135Y-106037904D01*
X184111318Y-106185420D01*
X184111314Y-106185424D01*
X183979365Y-106360154D01*
X183881764Y-106556163D01*
X183881762Y-106556169D01*
X183821842Y-106766763D01*
X183821840Y-106766772D01*
X183801638Y-106984798D01*
X183801638Y-106984801D01*
X173050700Y-106984801D01*
X173050700Y-99364801D01*
X180194838Y-99364801D01*
X180215040Y-99582827D01*
X180215042Y-99582836D01*
X180274962Y-99793430D01*
X180274964Y-99793436D01*
X180372565Y-99989445D01*
X180504514Y-100164175D01*
X180504516Y-100164177D01*
X180504520Y-100164182D01*
X180666337Y-100311697D01*
X180852504Y-100426967D01*
X181056682Y-100506066D01*
X181271918Y-100546300D01*
X181271922Y-100546300D01*
X181490878Y-100546300D01*
X181490882Y-100546300D01*
X181706118Y-100506066D01*
X181910296Y-100426967D01*
X182096463Y-100311697D01*
X182258280Y-100164182D01*
X182390235Y-99989444D01*
X182487836Y-99793436D01*
X182547759Y-99582830D01*
X182567962Y-99364801D01*
X183801638Y-99364801D01*
X183821840Y-99582827D01*
X183821842Y-99582836D01*
X183881762Y-99793430D01*
X183881764Y-99793436D01*
X183979365Y-99989445D01*
X184111314Y-100164175D01*
X184111316Y-100164177D01*
X184111320Y-100164182D01*
X184273137Y-100311697D01*
X184459304Y-100426967D01*
X184663482Y-100506066D01*
X184878718Y-100546300D01*
X184878722Y-100546300D01*
X185097678Y-100546300D01*
X185097682Y-100546300D01*
X185312918Y-100506066D01*
X185517096Y-100426967D01*
X185703263Y-100311697D01*
X185865080Y-100164182D01*
X185997035Y-99989444D01*
X186094636Y-99793436D01*
X186154559Y-99582830D01*
X186174762Y-99364800D01*
X186154559Y-99146770D01*
X186094636Y-98936164D01*
X185997035Y-98740156D01*
X185997034Y-98740155D01*
X185997034Y-98740154D01*
X185865085Y-98565424D01*
X185865083Y-98565422D01*
X185865080Y-98565418D01*
X185703263Y-98417903D01*
X185553953Y-98325454D01*
X185517098Y-98302634D01*
X185517090Y-98302630D01*
X185312922Y-98223535D01*
X185312914Y-98223533D01*
X185097684Y-98183300D01*
X185097682Y-98183300D01*
X184878718Y-98183300D01*
X184878715Y-98183300D01*
X184663485Y-98223533D01*
X184663477Y-98223535D01*
X184459309Y-98302630D01*
X184459301Y-98302634D01*
X184273135Y-98417904D01*
X184111318Y-98565420D01*
X184111314Y-98565424D01*
X183979365Y-98740154D01*
X183881764Y-98936163D01*
X183881762Y-98936169D01*
X183821842Y-99146763D01*
X183821840Y-99146772D01*
X183801638Y-99364798D01*
X183801638Y-99364801D01*
X182567962Y-99364801D01*
X182567962Y-99364800D01*
X182547759Y-99146770D01*
X182487836Y-98936164D01*
X182390235Y-98740156D01*
X182390234Y-98740155D01*
X182390234Y-98740154D01*
X182258285Y-98565424D01*
X182258283Y-98565422D01*
X182258280Y-98565418D01*
X182096463Y-98417903D01*
X181947153Y-98325454D01*
X181910298Y-98302634D01*
X181910290Y-98302630D01*
X181706122Y-98223535D01*
X181706114Y-98223533D01*
X181490884Y-98183300D01*
X181490882Y-98183300D01*
X181271918Y-98183300D01*
X181271915Y-98183300D01*
X181056685Y-98223533D01*
X181056677Y-98223535D01*
X180852509Y-98302630D01*
X180852501Y-98302634D01*
X180666335Y-98417904D01*
X180504518Y-98565420D01*
X180504514Y-98565424D01*
X180372565Y-98740154D01*
X180274964Y-98936163D01*
X180274962Y-98936169D01*
X180215042Y-99146763D01*
X180215040Y-99146772D01*
X180194838Y-99364798D01*
X180194838Y-99364801D01*
X173050700Y-99364801D01*
X173050700Y-96850201D01*
X188424438Y-96850201D01*
X188444640Y-97068227D01*
X188444642Y-97068236D01*
X188504562Y-97278830D01*
X188504564Y-97278836D01*
X188602165Y-97474845D01*
X188734114Y-97649575D01*
X188734116Y-97649577D01*
X188734120Y-97649582D01*
X188895937Y-97797097D01*
X189023667Y-97876184D01*
X189043682Y-97888577D01*
X189097365Y-97945674D01*
X189115308Y-98021963D01*
X189092703Y-98097002D01*
X189035606Y-98150685D01*
X188963980Y-98168700D01*
X188774790Y-98168700D01*
X188700642Y-98179503D01*
X188700639Y-98179504D01*
X188586253Y-98235424D01*
X188496224Y-98325453D01*
X188440304Y-98439839D01*
X188440303Y-98439842D01*
X188429500Y-98513990D01*
X188429500Y-98513994D01*
X188429500Y-100186406D01*
X188440304Y-100260561D01*
X188496224Y-100374946D01*
X188586254Y-100464976D01*
X188700639Y-100520896D01*
X188774794Y-100531700D01*
X188774795Y-100531700D01*
X190447205Y-100531700D01*
X190447206Y-100531700D01*
X190521361Y-100520896D01*
X190635746Y-100464976D01*
X190725776Y-100374946D01*
X190781696Y-100260561D01*
X190792500Y-100186406D01*
X190792500Y-98513994D01*
X190781696Y-98439839D01*
X190725776Y-98325454D01*
X190635746Y-98235424D01*
X190521361Y-98179504D01*
X190521359Y-98179503D01*
X190521357Y-98179503D01*
X190447209Y-98168700D01*
X190447206Y-98168700D01*
X190258020Y-98168700D01*
X190182320Y-98148416D01*
X190126904Y-98093000D01*
X190106620Y-98017300D01*
X190126904Y-97941600D01*
X190178318Y-97888577D01*
X190198333Y-97876184D01*
X190326063Y-97797097D01*
X190487880Y-97649582D01*
X190619835Y-97474844D01*
X190717436Y-97278836D01*
X190777359Y-97068230D01*
X190797562Y-96850200D01*
X190795447Y-96827380D01*
X190784032Y-96704184D01*
X190777359Y-96632170D01*
X190717436Y-96421564D01*
X190619835Y-96225556D01*
X190619834Y-96225555D01*
X190619834Y-96225554D01*
X190487885Y-96050824D01*
X190487883Y-96050822D01*
X190487880Y-96050818D01*
X190326063Y-95903303D01*
X190139896Y-95788033D01*
X190139890Y-95788030D01*
X189935722Y-95708935D01*
X189935714Y-95708933D01*
X189720484Y-95668700D01*
X189720482Y-95668700D01*
X189501518Y-95668700D01*
X189501515Y-95668700D01*
X189286285Y-95708933D01*
X189286277Y-95708935D01*
X189082109Y-95788030D01*
X189082101Y-95788034D01*
X188895935Y-95903304D01*
X188734118Y-96050820D01*
X188734114Y-96050824D01*
X188602165Y-96225554D01*
X188504564Y-96421563D01*
X188504562Y-96421569D01*
X188444642Y-96632163D01*
X188444640Y-96632172D01*
X188424438Y-96850198D01*
X188424438Y-96850201D01*
X173050700Y-96850201D01*
X173050700Y-90794503D01*
X183268253Y-90794503D01*
X183287222Y-91096013D01*
X183287225Y-91096036D01*
X183343831Y-91392772D01*
X183343835Y-91392787D01*
X183437192Y-91680114D01*
X183446762Y-91700451D01*
X183565828Y-91953477D01*
X183565831Y-91953482D01*
X183565836Y-91953491D01*
X183727709Y-92208562D01*
X183727710Y-92208563D01*
X183920286Y-92441347D01*
X183920288Y-92441349D01*
X183920289Y-92441350D01*
X184140522Y-92648163D01*
X184140523Y-92648164D01*
X184384933Y-92825737D01*
X184384937Y-92825740D01*
X184504138Y-92891270D01*
X184649683Y-92971285D01*
X184930583Y-93082501D01*
X185072938Y-93119051D01*
X185223206Y-93157635D01*
X185324537Y-93170435D01*
X185522942Y-93195500D01*
X185522950Y-93195500D01*
X185825050Y-93195500D01*
X185825058Y-93195500D01*
X186074127Y-93164035D01*
X186124793Y-93157635D01*
X186199927Y-93138343D01*
X186417417Y-93082501D01*
X186698317Y-92971285D01*
X186963064Y-92825739D01*
X187205487Y-92649609D01*
X187207476Y-92648164D01*
X187207477Y-92648163D01*
X187207477Y-92648162D01*
X187207481Y-92648160D01*
X187427714Y-92441347D01*
X187620290Y-92208563D01*
X187782172Y-91953477D01*
X187910807Y-91680115D01*
X188004166Y-91392785D01*
X188060777Y-91096020D01*
X188079747Y-90794500D01*
X188076860Y-90748620D01*
X188069724Y-90635191D01*
X188060777Y-90492980D01*
X188058040Y-90478634D01*
X188012175Y-90238201D01*
X188004166Y-90196215D01*
X187910807Y-89908885D01*
X187782172Y-89635523D01*
X187782165Y-89635512D01*
X187782163Y-89635508D01*
X187620290Y-89380437D01*
X187564001Y-89312396D01*
X187427714Y-89147653D01*
X187207481Y-88940840D01*
X187207482Y-88940840D01*
X187207477Y-88940836D01*
X187207476Y-88940835D01*
X186963066Y-88763262D01*
X186963062Y-88763259D01*
X186698315Y-88617714D01*
X186698311Y-88617712D01*
X186417418Y-88506499D01*
X186124793Y-88431364D01*
X185825061Y-88393500D01*
X185825058Y-88393500D01*
X185522942Y-88393500D01*
X185522938Y-88393500D01*
X185223206Y-88431364D01*
X184930581Y-88506499D01*
X184930580Y-88506499D01*
X184649688Y-88617712D01*
X184649684Y-88617714D01*
X184384937Y-88763259D01*
X184384933Y-88763262D01*
X184140523Y-88940835D01*
X184140522Y-88940836D01*
X183920289Y-89147649D01*
X183727709Y-89380437D01*
X183565836Y-89635508D01*
X183565826Y-89635527D01*
X183437192Y-89908885D01*
X183343835Y-90196212D01*
X183343831Y-90196227D01*
X183287225Y-90492963D01*
X183287222Y-90492986D01*
X183268253Y-90794496D01*
X183268253Y-90794503D01*
X173050700Y-90794503D01*
X173050700Y-87435922D01*
X173052894Y-87371688D01*
X173042918Y-87330753D01*
X173041471Y-87323138D01*
X173035735Y-87281402D01*
X173035734Y-87281398D01*
X173029866Y-87267889D01*
X173021635Y-87243414D01*
X173018146Y-87229094D01*
X172997489Y-87192356D01*
X172994045Y-87185421D01*
X172977263Y-87146784D01*
X172967963Y-87135353D01*
X172953434Y-87114006D01*
X172946216Y-87101169D01*
X172946214Y-87101165D01*
X172916424Y-87071375D01*
X172911238Y-87065629D01*
X172884642Y-87032938D01*
X172872598Y-87024436D01*
X172852853Y-87007804D01*
X171579973Y-85734924D01*
X171536108Y-85687956D01*
X171536107Y-85687955D01*
X171536106Y-85687954D01*
X171514629Y-85674893D01*
X171500105Y-85666060D01*
X171493701Y-85661702D01*
X171477103Y-85649116D01*
X171460128Y-85636243D01*
X171446421Y-85630838D01*
X171423301Y-85619355D01*
X171410706Y-85611695D01*
X171370141Y-85600330D01*
X171362787Y-85597858D01*
X171323597Y-85582403D01*
X171323595Y-85582402D01*
X171308927Y-85580894D01*
X171283578Y-85576076D01*
X171269387Y-85572100D01*
X171269383Y-85572100D01*
X171227259Y-85572100D01*
X171219518Y-85571703D01*
X171193361Y-85569014D01*
X171177603Y-85567394D01*
X171177597Y-85567394D01*
X171163071Y-85569899D01*
X171137349Y-85572100D01*
X159884079Y-85572100D01*
X159808379Y-85551816D01*
X159752963Y-85496400D01*
X159732679Y-85420700D01*
X159748551Y-85353215D01*
X159821167Y-85207382D01*
X159846436Y-85156636D01*
X159906359Y-84946030D01*
X159921500Y-84782629D01*
X159921500Y-83873371D01*
X159906359Y-83709970D01*
X159846436Y-83499364D01*
X159748835Y-83303356D01*
X159748834Y-83303355D01*
X159748834Y-83303354D01*
X159722017Y-83267842D01*
X179935500Y-83267842D01*
X179976102Y-83511154D01*
X179976105Y-83511163D01*
X180056199Y-83744473D01*
X180056201Y-83744476D01*
X180173603Y-83961416D01*
X180173605Y-83961419D01*
X180173607Y-83961422D01*
X180187572Y-83979364D01*
X180325123Y-84156089D01*
X180506606Y-84323157D01*
X180506607Y-84323158D01*
X180506609Y-84323159D01*
X180506611Y-84323161D01*
X180583388Y-84373322D01*
X180713123Y-84458083D01*
X180939028Y-84557174D01*
X181020118Y-84577708D01*
X181178161Y-84617730D01*
X181362441Y-84633000D01*
X181362444Y-84633000D01*
X181485556Y-84633000D01*
X181485559Y-84633000D01*
X181669839Y-84617730D01*
X181908971Y-84557174D01*
X182134876Y-84458083D01*
X182341389Y-84323161D01*
X182522878Y-84156088D01*
X182674393Y-83961422D01*
X182791800Y-83744473D01*
X182871897Y-83511157D01*
X182902349Y-83328670D01*
X182912500Y-83267842D01*
X188435500Y-83267842D01*
X188476102Y-83511154D01*
X188476105Y-83511163D01*
X188556199Y-83744473D01*
X188556201Y-83744476D01*
X188673603Y-83961416D01*
X188673605Y-83961419D01*
X188673607Y-83961422D01*
X188687572Y-83979364D01*
X188825123Y-84156089D01*
X189006606Y-84323157D01*
X189006607Y-84323158D01*
X189006609Y-84323159D01*
X189006611Y-84323161D01*
X189083388Y-84373322D01*
X189213123Y-84458083D01*
X189439028Y-84557174D01*
X189520118Y-84577708D01*
X189678161Y-84617730D01*
X189862441Y-84633000D01*
X189862444Y-84633000D01*
X189985556Y-84633000D01*
X189985559Y-84633000D01*
X190169839Y-84617730D01*
X190408971Y-84557174D01*
X190634876Y-84458083D01*
X190841389Y-84323161D01*
X191022878Y-84156088D01*
X191174393Y-83961422D01*
X191291800Y-83744473D01*
X191371897Y-83511157D01*
X191402349Y-83328670D01*
X191412500Y-83267842D01*
X191412500Y-83021157D01*
X191373381Y-82786735D01*
X191371897Y-82777843D01*
X191291800Y-82544527D01*
X191291800Y-82544526D01*
X191291798Y-82544523D01*
X191174396Y-82327583D01*
X191174395Y-82327581D01*
X191174393Y-82327578D01*
X191022878Y-82132912D01*
X191022876Y-82132910D01*
X190841393Y-81965842D01*
X190841392Y-81965841D01*
X190634876Y-81830916D01*
X190408971Y-81731825D01*
X190169840Y-81671270D01*
X190169834Y-81671269D01*
X190040465Y-81660549D01*
X189985559Y-81656000D01*
X189862441Y-81656000D01*
X189812495Y-81660138D01*
X189678165Y-81671269D01*
X189678159Y-81671270D01*
X189439028Y-81731825D01*
X189213123Y-81830916D01*
X189006607Y-81965841D01*
X189006606Y-81965842D01*
X188825123Y-82132910D01*
X188673603Y-82327583D01*
X188556201Y-82544523D01*
X188556199Y-82544526D01*
X188476105Y-82777836D01*
X188476102Y-82777845D01*
X188435500Y-83021157D01*
X188435500Y-83267842D01*
X182912500Y-83267842D01*
X182912500Y-83021157D01*
X182873381Y-82786735D01*
X182871897Y-82777843D01*
X182791800Y-82544527D01*
X182791800Y-82544526D01*
X182791798Y-82544523D01*
X182674396Y-82327583D01*
X182674395Y-82327581D01*
X182674393Y-82327578D01*
X182522878Y-82132912D01*
X182522876Y-82132910D01*
X182341393Y-81965842D01*
X182341392Y-81965841D01*
X182134876Y-81830916D01*
X181908971Y-81731825D01*
X181669840Y-81671270D01*
X181669834Y-81671269D01*
X181540465Y-81660549D01*
X181485559Y-81656000D01*
X181362441Y-81656000D01*
X181312495Y-81660138D01*
X181178165Y-81671269D01*
X181178159Y-81671270D01*
X180939028Y-81731825D01*
X180713123Y-81830916D01*
X180506607Y-81965841D01*
X180506606Y-81965842D01*
X180325123Y-82132910D01*
X180173603Y-82327583D01*
X180056201Y-82544523D01*
X180056199Y-82544526D01*
X179976105Y-82777836D01*
X179976102Y-82777845D01*
X179935500Y-83021157D01*
X179935500Y-83267842D01*
X159722017Y-83267842D01*
X159616885Y-83128624D01*
X159616883Y-83128622D01*
X159616880Y-83128618D01*
X159455063Y-82981103D01*
X159268896Y-82865833D01*
X159268890Y-82865830D01*
X159064722Y-82786735D01*
X159064714Y-82786733D01*
X158849484Y-82746500D01*
X158849482Y-82746500D01*
X158630518Y-82746500D01*
X158630515Y-82746500D01*
X158415285Y-82786733D01*
X158415277Y-82786735D01*
X158211109Y-82865830D01*
X158211101Y-82865834D01*
X158024935Y-82981104D01*
X157863118Y-83128620D01*
X157863114Y-83128624D01*
X157731165Y-83303354D01*
X157633564Y-83499363D01*
X157633561Y-83499369D01*
X157615620Y-83562428D01*
X157575394Y-83629687D01*
X157506928Y-83667822D01*
X157428567Y-83666615D01*
X157361308Y-83626389D01*
X157324380Y-83562428D01*
X157306438Y-83499369D01*
X157306436Y-83499364D01*
X157208835Y-83303356D01*
X157208834Y-83303355D01*
X157208834Y-83303354D01*
X157076885Y-83128624D01*
X157076883Y-83128622D01*
X157076880Y-83128618D01*
X156915063Y-82981103D01*
X156728896Y-82865833D01*
X156728890Y-82865830D01*
X156524722Y-82786735D01*
X156524714Y-82786733D01*
X156309484Y-82746500D01*
X156309482Y-82746500D01*
X156090518Y-82746500D01*
X156090515Y-82746500D01*
X155875285Y-82786733D01*
X155875277Y-82786735D01*
X155671109Y-82865830D01*
X155671101Y-82865834D01*
X155484935Y-82981104D01*
X155323118Y-83128620D01*
X155323114Y-83128624D01*
X155191165Y-83303354D01*
X155093564Y-83499363D01*
X155093561Y-83499369D01*
X155075620Y-83562428D01*
X155035394Y-83629687D01*
X154966928Y-83667822D01*
X154888567Y-83666615D01*
X154821308Y-83626389D01*
X154784380Y-83562428D01*
X154766438Y-83499369D01*
X154766436Y-83499364D01*
X154668835Y-83303356D01*
X154668834Y-83303355D01*
X154668834Y-83303354D01*
X154536885Y-83128624D01*
X154536883Y-83128622D01*
X154536880Y-83128618D01*
X154375063Y-82981103D01*
X154188896Y-82865833D01*
X154188890Y-82865830D01*
X153984722Y-82786735D01*
X153984714Y-82786733D01*
X153769484Y-82746500D01*
X153769482Y-82746500D01*
X153550518Y-82746500D01*
X153550515Y-82746500D01*
X153335285Y-82786733D01*
X153335277Y-82786735D01*
X153131109Y-82865830D01*
X153131101Y-82865834D01*
X152944935Y-82981104D01*
X152783118Y-83128620D01*
X152783114Y-83128624D01*
X152651165Y-83303354D01*
X152553564Y-83499363D01*
X152553561Y-83499369D01*
X152535620Y-83562428D01*
X152495394Y-83629687D01*
X152426928Y-83667822D01*
X152348567Y-83666615D01*
X152281308Y-83626389D01*
X152244380Y-83562428D01*
X152226438Y-83499369D01*
X152226436Y-83499364D01*
X152128835Y-83303356D01*
X152128834Y-83303355D01*
X152128834Y-83303354D01*
X151996885Y-83128624D01*
X151996883Y-83128622D01*
X151996880Y-83128618D01*
X151835063Y-82981103D01*
X151648896Y-82865833D01*
X151648890Y-82865830D01*
X151444722Y-82786735D01*
X151444714Y-82786733D01*
X151229484Y-82746500D01*
X151229482Y-82746500D01*
X151010518Y-82746500D01*
X151010515Y-82746500D01*
X150795285Y-82786733D01*
X150795277Y-82786735D01*
X150591109Y-82865830D01*
X150591101Y-82865834D01*
X150404935Y-82981104D01*
X150243118Y-83128620D01*
X150243114Y-83128624D01*
X150111165Y-83303354D01*
X150013564Y-83499363D01*
X150013561Y-83499369D01*
X149995620Y-83562428D01*
X149955394Y-83629687D01*
X149886928Y-83667822D01*
X149808567Y-83666615D01*
X149741308Y-83626389D01*
X149704380Y-83562428D01*
X149686438Y-83499369D01*
X149686436Y-83499364D01*
X149588835Y-83303356D01*
X149588834Y-83303355D01*
X149588834Y-83303354D01*
X149456885Y-83128624D01*
X149456883Y-83128622D01*
X149456880Y-83128618D01*
X149295063Y-82981103D01*
X149108896Y-82865833D01*
X149108890Y-82865830D01*
X148904722Y-82786735D01*
X148904714Y-82786733D01*
X148689484Y-82746500D01*
X148689482Y-82746500D01*
X148470518Y-82746500D01*
X148470515Y-82746500D01*
X148255285Y-82786733D01*
X148255277Y-82786735D01*
X148051109Y-82865830D01*
X148051101Y-82865834D01*
X147864935Y-82981104D01*
X147703118Y-83128620D01*
X147703114Y-83128624D01*
X147571165Y-83303354D01*
X147473564Y-83499363D01*
X147473561Y-83499369D01*
X147455620Y-83562428D01*
X147415394Y-83629687D01*
X147346928Y-83667822D01*
X147268567Y-83666615D01*
X147201308Y-83626389D01*
X147164380Y-83562428D01*
X147146438Y-83499369D01*
X147146436Y-83499364D01*
X147048835Y-83303356D01*
X147048834Y-83303355D01*
X147048834Y-83303354D01*
X146916885Y-83128624D01*
X146916883Y-83128622D01*
X146916880Y-83128618D01*
X146755063Y-82981103D01*
X146568896Y-82865833D01*
X146568890Y-82865830D01*
X146364722Y-82786735D01*
X146364714Y-82786733D01*
X146149484Y-82746500D01*
X146149482Y-82746500D01*
X145930518Y-82746500D01*
X145930515Y-82746500D01*
X145715285Y-82786733D01*
X145715277Y-82786735D01*
X145511109Y-82865830D01*
X145511101Y-82865834D01*
X145324935Y-82981104D01*
X145163118Y-83128620D01*
X145163114Y-83128624D01*
X145031165Y-83303354D01*
X144933564Y-83499363D01*
X144933561Y-83499369D01*
X144915620Y-83562428D01*
X144875394Y-83629687D01*
X144806928Y-83667822D01*
X144728567Y-83666615D01*
X144661308Y-83626389D01*
X144624380Y-83562428D01*
X144606438Y-83499369D01*
X144606436Y-83499364D01*
X144508835Y-83303356D01*
X144508834Y-83303355D01*
X144508834Y-83303354D01*
X144376885Y-83128624D01*
X144376883Y-83128622D01*
X144376880Y-83128618D01*
X144215063Y-82981103D01*
X144028896Y-82865833D01*
X144028890Y-82865830D01*
X143824722Y-82786735D01*
X143824714Y-82786733D01*
X143609484Y-82746500D01*
X143609482Y-82746500D01*
X143390518Y-82746500D01*
X143390515Y-82746500D01*
X143175285Y-82786733D01*
X143175277Y-82786735D01*
X142971109Y-82865830D01*
X142971101Y-82865834D01*
X142784935Y-82981104D01*
X142623118Y-83128620D01*
X142623114Y-83128624D01*
X142491165Y-83303354D01*
X142393564Y-83499363D01*
X142393561Y-83499369D01*
X142375620Y-83562428D01*
X142335394Y-83629687D01*
X142266928Y-83667822D01*
X142188567Y-83666615D01*
X142121308Y-83626389D01*
X142084380Y-83562428D01*
X142066438Y-83499369D01*
X142066436Y-83499364D01*
X141968835Y-83303356D01*
X141968834Y-83303355D01*
X141968834Y-83303354D01*
X141836885Y-83128624D01*
X141836883Y-83128622D01*
X141836880Y-83128618D01*
X141675063Y-82981103D01*
X141488896Y-82865833D01*
X141488890Y-82865830D01*
X141284722Y-82786735D01*
X141284714Y-82786733D01*
X141069484Y-82746500D01*
X141069482Y-82746500D01*
X140850518Y-82746500D01*
X140850515Y-82746500D01*
X140635285Y-82786733D01*
X140635277Y-82786735D01*
X140431109Y-82865830D01*
X140431101Y-82865834D01*
X140244935Y-82981104D01*
X140083118Y-83128620D01*
X140083114Y-83128624D01*
X139951165Y-83303354D01*
X139853564Y-83499363D01*
X139853562Y-83499369D01*
X139793642Y-83709963D01*
X139793641Y-83709971D01*
X139791167Y-83736670D01*
X139763985Y-83810175D01*
X139703692Y-83860242D01*
X139640413Y-83874100D01*
X137799763Y-83874100D01*
X137724063Y-83853816D01*
X137668647Y-83798400D01*
X137664235Y-83790184D01*
X137660836Y-83783359D01*
X137660835Y-83783356D01*
X137660832Y-83783352D01*
X137660831Y-83783350D01*
X137528885Y-83608624D01*
X137528883Y-83608622D01*
X137528880Y-83608618D01*
X137367063Y-83461103D01*
X137180896Y-83345833D01*
X137180890Y-83345830D01*
X136976722Y-83266735D01*
X136976714Y-83266733D01*
X136761484Y-83226500D01*
X136761482Y-83226500D01*
X136542518Y-83226500D01*
X136542515Y-83226500D01*
X136327285Y-83266733D01*
X136327277Y-83266735D01*
X136123109Y-83345830D01*
X136123101Y-83345834D01*
X135936935Y-83461104D01*
X135775118Y-83608620D01*
X135775114Y-83608624D01*
X135643165Y-83783354D01*
X135545564Y-83979363D01*
X135545562Y-83979369D01*
X135485642Y-84189963D01*
X135485640Y-84189972D01*
X135465438Y-84407998D01*
X135465438Y-84408001D01*
X135485640Y-84626027D01*
X135485642Y-84626036D01*
X135545562Y-84836630D01*
X135545564Y-84836636D01*
X135643165Y-85032645D01*
X135775114Y-85207375D01*
X135775116Y-85207377D01*
X135775120Y-85207382D01*
X135936937Y-85354897D01*
X136123104Y-85470167D01*
X136327282Y-85549266D01*
X136542518Y-85589500D01*
X136542522Y-85589500D01*
X136761478Y-85589500D01*
X136761482Y-85589500D01*
X136976718Y-85549266D01*
X137180896Y-85470167D01*
X137367063Y-85354897D01*
X137528880Y-85207382D01*
X137660835Y-85032644D01*
X137664235Y-85025816D01*
X137716135Y-84967093D01*
X137790442Y-84942187D01*
X137799763Y-84941900D01*
X139678134Y-84941900D01*
X139753834Y-84962184D01*
X139809250Y-85017600D01*
X139823754Y-85051867D01*
X139853562Y-85156630D01*
X139853564Y-85156636D01*
X139951165Y-85352645D01*
X140083114Y-85527375D01*
X140083116Y-85527377D01*
X140083120Y-85527382D01*
X140244937Y-85674897D01*
X140431104Y-85790167D01*
X140431108Y-85790168D01*
X140431109Y-85790169D01*
X140493303Y-85814263D01*
X140635282Y-85869266D01*
X140850518Y-85909500D01*
X140850522Y-85909500D01*
X141069478Y-85909500D01*
X141069482Y-85909500D01*
X141284718Y-85869266D01*
X141488896Y-85790167D01*
X141675063Y-85674897D01*
X141836880Y-85527382D01*
X141968835Y-85352644D01*
X142066436Y-85156636D01*
X142084380Y-85093571D01*
X142124605Y-85026312D01*
X142193072Y-84988177D01*
X142271433Y-84989384D01*
X142338692Y-85029609D01*
X142375620Y-85093571D01*
X142393562Y-85156630D01*
X142393564Y-85156636D01*
X142491165Y-85352645D01*
X142623114Y-85527375D01*
X142623116Y-85527377D01*
X142623120Y-85527382D01*
X142784937Y-85674897D01*
X142971104Y-85790167D01*
X142971108Y-85790168D01*
X142971109Y-85790169D01*
X143033303Y-85814263D01*
X143175282Y-85869266D01*
X143390518Y-85909500D01*
X143390522Y-85909500D01*
X143609478Y-85909500D01*
X143609482Y-85909500D01*
X143824718Y-85869266D01*
X144028896Y-85790167D01*
X144215063Y-85674897D01*
X144376880Y-85527382D01*
X144508835Y-85352644D01*
X144606436Y-85156636D01*
X144624380Y-85093571D01*
X144664605Y-85026312D01*
X144733072Y-84988177D01*
X144811433Y-84989384D01*
X144878692Y-85029609D01*
X144915620Y-85093571D01*
X144933562Y-85156630D01*
X144933564Y-85156636D01*
X145031165Y-85352645D01*
X145163114Y-85527375D01*
X145163116Y-85527377D01*
X145163120Y-85527382D01*
X145324937Y-85674897D01*
X145511104Y-85790167D01*
X145511108Y-85790168D01*
X145511109Y-85790169D01*
X145573303Y-85814263D01*
X145715282Y-85869266D01*
X145930518Y-85909500D01*
X145930522Y-85909500D01*
X146149478Y-85909500D01*
X146149482Y-85909500D01*
X146364718Y-85869266D01*
X146568896Y-85790167D01*
X146755063Y-85674897D01*
X146916880Y-85527382D01*
X147048835Y-85352644D01*
X147146436Y-85156636D01*
X147164380Y-85093571D01*
X147204605Y-85026312D01*
X147273072Y-84988177D01*
X147351433Y-84989384D01*
X147418692Y-85029609D01*
X147455620Y-85093571D01*
X147473562Y-85156630D01*
X147473564Y-85156636D01*
X147571165Y-85352645D01*
X147703114Y-85527375D01*
X147703116Y-85527377D01*
X147703120Y-85527382D01*
X147864937Y-85674897D01*
X148051104Y-85790167D01*
X148051108Y-85790168D01*
X148051109Y-85790169D01*
X148113303Y-85814263D01*
X148255282Y-85869266D01*
X148470518Y-85909500D01*
X148470522Y-85909500D01*
X148689478Y-85909500D01*
X148689482Y-85909500D01*
X148904718Y-85869266D01*
X149108896Y-85790167D01*
X149295063Y-85674897D01*
X149456880Y-85527382D01*
X149588835Y-85352644D01*
X149686436Y-85156636D01*
X149704380Y-85093571D01*
X149744605Y-85026312D01*
X149813072Y-84988177D01*
X149891433Y-84989384D01*
X149958692Y-85029609D01*
X149995620Y-85093571D01*
X150013562Y-85156630D01*
X150013564Y-85156636D01*
X150111165Y-85352645D01*
X150243114Y-85527375D01*
X150243116Y-85527377D01*
X150243120Y-85527382D01*
X150404937Y-85674897D01*
X150591104Y-85790167D01*
X150591108Y-85790168D01*
X150591109Y-85790169D01*
X150653303Y-85814263D01*
X150795282Y-85869266D01*
X151010518Y-85909500D01*
X151010522Y-85909500D01*
X151229478Y-85909500D01*
X151229482Y-85909500D01*
X151444718Y-85869266D01*
X151648896Y-85790167D01*
X151835063Y-85674897D01*
X151996880Y-85527382D01*
X152128835Y-85352644D01*
X152226436Y-85156636D01*
X152244380Y-85093571D01*
X152284605Y-85026312D01*
X152353072Y-84988177D01*
X152431433Y-84989384D01*
X152498692Y-85029609D01*
X152535620Y-85093571D01*
X152553562Y-85156630D01*
X152553564Y-85156636D01*
X152651165Y-85352645D01*
X152783114Y-85527375D01*
X152783116Y-85527377D01*
X152783120Y-85527382D01*
X152944937Y-85674897D01*
X153131104Y-85790167D01*
X153131108Y-85790168D01*
X153131109Y-85790169D01*
X153193303Y-85814263D01*
X153335282Y-85869266D01*
X153550518Y-85909500D01*
X153550522Y-85909500D01*
X153769478Y-85909500D01*
X153769482Y-85909500D01*
X153984718Y-85869266D01*
X154188896Y-85790167D01*
X154375063Y-85674897D01*
X154536880Y-85527382D01*
X154668835Y-85352644D01*
X154766436Y-85156636D01*
X154784380Y-85093571D01*
X154824605Y-85026312D01*
X154893072Y-84988177D01*
X154971433Y-84989384D01*
X155038692Y-85029609D01*
X155075620Y-85093571D01*
X155093562Y-85156630D01*
X155093564Y-85156636D01*
X155191165Y-85352645D01*
X155323114Y-85527375D01*
X155323116Y-85527377D01*
X155323120Y-85527382D01*
X155484937Y-85674897D01*
X155581884Y-85734924D01*
X155593027Y-85741823D01*
X155646710Y-85798919D01*
X155664653Y-85875208D01*
X155664637Y-85875713D01*
X155663906Y-85897113D01*
X155673879Y-85938041D01*
X155675326Y-85945656D01*
X155681064Y-85987394D01*
X155681067Y-85987404D01*
X155686937Y-86000920D01*
X155695162Y-86025379D01*
X155698653Y-86039704D01*
X155698654Y-86039706D01*
X155719309Y-86076441D01*
X155722751Y-86083372D01*
X155739536Y-86122014D01*
X155739537Y-86122015D01*
X155748836Y-86133445D01*
X155763358Y-86154782D01*
X155770584Y-86167633D01*
X155800369Y-86197418D01*
X155805565Y-86203176D01*
X155820228Y-86221198D01*
X155832158Y-86235862D01*
X155844200Y-86244362D01*
X155863946Y-86260995D01*
X157197113Y-87594161D01*
X157240995Y-87641147D01*
X157276995Y-87663039D01*
X157283402Y-87667400D01*
X157316971Y-87692856D01*
X157330679Y-87698261D01*
X157353804Y-87709748D01*
X157366395Y-87717405D01*
X157384300Y-87722421D01*
X157406960Y-87728770D01*
X157414316Y-87731244D01*
X157453500Y-87746697D01*
X157453501Y-87746697D01*
X157453504Y-87746698D01*
X157468169Y-87748205D01*
X157493527Y-87753025D01*
X157501569Y-87755278D01*
X157507717Y-87757001D01*
X157507718Y-87757001D01*
X157549842Y-87757001D01*
X157557582Y-87757397D01*
X157599500Y-87761707D01*
X157609128Y-87760046D01*
X157614030Y-87759202D01*
X157639752Y-87757001D01*
X169743240Y-87757001D01*
X169818940Y-87777285D01*
X169850296Y-87801345D01*
X171278156Y-89229205D01*
X171317341Y-89297076D01*
X171322500Y-89336261D01*
X171322500Y-89937939D01*
X171302216Y-90013639D01*
X171246800Y-90069055D01*
X171171100Y-90089339D01*
X171095400Y-90069055D01*
X171064044Y-90044995D01*
X169293973Y-88274924D01*
X169250108Y-88227956D01*
X169250107Y-88227955D01*
X169250106Y-88227954D01*
X169229329Y-88215319D01*
X169214105Y-88206060D01*
X169207701Y-88201702D01*
X169186381Y-88185535D01*
X169174128Y-88176243D01*
X169160421Y-88170838D01*
X169137301Y-88159355D01*
X169124706Y-88151695D01*
X169084141Y-88140330D01*
X169076787Y-88137858D01*
X169037597Y-88122403D01*
X169037595Y-88122402D01*
X169022927Y-88120894D01*
X168997578Y-88116076D01*
X168983387Y-88112100D01*
X168983383Y-88112100D01*
X168941259Y-88112100D01*
X168933518Y-88111703D01*
X168907361Y-88109014D01*
X168891603Y-88107394D01*
X168891597Y-88107394D01*
X168877071Y-88109899D01*
X168851349Y-88112100D01*
X155431739Y-88112100D01*
X155367488Y-88109905D01*
X155326549Y-88119880D01*
X155318935Y-88121327D01*
X155277204Y-88127064D01*
X155277195Y-88127067D01*
X155263677Y-88132938D01*
X155239221Y-88141161D01*
X155224895Y-88144652D01*
X155224893Y-88144653D01*
X155188170Y-88165301D01*
X155181227Y-88168750D01*
X155142587Y-88185535D01*
X155142584Y-88185537D01*
X155131143Y-88194844D01*
X155109814Y-88209360D01*
X155096969Y-88216583D01*
X155096961Y-88216588D01*
X155067173Y-88246376D01*
X155061417Y-88251570D01*
X155028737Y-88278158D01*
X155020237Y-88290200D01*
X155003606Y-88309943D01*
X153288924Y-90024626D01*
X153241953Y-90068494D01*
X153220063Y-90104488D01*
X153215703Y-90110895D01*
X153190247Y-90144465D01*
X153190244Y-90144470D01*
X153184836Y-90158184D01*
X153173357Y-90181295D01*
X153165695Y-90193894D01*
X153154328Y-90234465D01*
X153151856Y-90241816D01*
X153136402Y-90281001D01*
X153134894Y-90295673D01*
X153130075Y-90321026D01*
X153126100Y-90335213D01*
X153126100Y-90377341D01*
X153125703Y-90385080D01*
X153123860Y-90403013D01*
X153121887Y-90422202D01*
X153093968Y-90495430D01*
X153050984Y-90535440D01*
X152944936Y-90601102D01*
X152783118Y-90748620D01*
X152783114Y-90748624D01*
X152651165Y-90923354D01*
X152553564Y-91119363D01*
X152553561Y-91119369D01*
X152535620Y-91182428D01*
X152495394Y-91249687D01*
X152426928Y-91287822D01*
X152348567Y-91286615D01*
X152281308Y-91246389D01*
X152244380Y-91182428D01*
X152226438Y-91119369D01*
X152226436Y-91119364D01*
X152128835Y-90923356D01*
X152128834Y-90923355D01*
X152128834Y-90923354D01*
X151996885Y-90748624D01*
X151996883Y-90748622D01*
X151996880Y-90748618D01*
X151835063Y-90601103D01*
X151664396Y-90495430D01*
X151648898Y-90485834D01*
X151648890Y-90485830D01*
X151444722Y-90406735D01*
X151444714Y-90406733D01*
X151229484Y-90366500D01*
X151229482Y-90366500D01*
X151010518Y-90366500D01*
X151010515Y-90366500D01*
X150795285Y-90406733D01*
X150795277Y-90406735D01*
X150591109Y-90485830D01*
X150591101Y-90485834D01*
X150404935Y-90601104D01*
X150243118Y-90748620D01*
X150243114Y-90748624D01*
X150111165Y-90923354D01*
X150013564Y-91119363D01*
X150013561Y-91119369D01*
X149995620Y-91182428D01*
X149955394Y-91249687D01*
X149886928Y-91287822D01*
X149808567Y-91286615D01*
X149741308Y-91246389D01*
X149704380Y-91182428D01*
X149686438Y-91119369D01*
X149686436Y-91119364D01*
X149588835Y-90923356D01*
X149588834Y-90923355D01*
X149588834Y-90923354D01*
X149456885Y-90748624D01*
X149456883Y-90748622D01*
X149456880Y-90748618D01*
X149295063Y-90601103D01*
X149124396Y-90495430D01*
X149108898Y-90485834D01*
X149108890Y-90485830D01*
X148904722Y-90406735D01*
X148904714Y-90406733D01*
X148689484Y-90366500D01*
X148689482Y-90366500D01*
X148470518Y-90366500D01*
X148470515Y-90366500D01*
X148255285Y-90406733D01*
X148255277Y-90406735D01*
X148051109Y-90485830D01*
X148051101Y-90485834D01*
X147864935Y-90601104D01*
X147703118Y-90748620D01*
X147703114Y-90748624D01*
X147571165Y-90923354D01*
X147473564Y-91119363D01*
X147473561Y-91119369D01*
X147455620Y-91182428D01*
X147415394Y-91249687D01*
X147346928Y-91287822D01*
X147268567Y-91286615D01*
X147201308Y-91246389D01*
X147164380Y-91182428D01*
X147146438Y-91119369D01*
X147146436Y-91119364D01*
X147048835Y-90923356D01*
X147048834Y-90923355D01*
X147048834Y-90923354D01*
X146916885Y-90748624D01*
X146916883Y-90748622D01*
X146916880Y-90748618D01*
X146755063Y-90601103D01*
X146584396Y-90495430D01*
X146568898Y-90485834D01*
X146568890Y-90485830D01*
X146364722Y-90406735D01*
X146364714Y-90406733D01*
X146149484Y-90366500D01*
X146149482Y-90366500D01*
X145930518Y-90366500D01*
X145930515Y-90366500D01*
X145715285Y-90406733D01*
X145715277Y-90406735D01*
X145511109Y-90485830D01*
X145511101Y-90485834D01*
X145324935Y-90601104D01*
X145163118Y-90748620D01*
X145163114Y-90748624D01*
X145031165Y-90923354D01*
X144933564Y-91119363D01*
X144933561Y-91119369D01*
X144915620Y-91182428D01*
X144875394Y-91249687D01*
X144806928Y-91287822D01*
X144728567Y-91286615D01*
X144661308Y-91246389D01*
X144624380Y-91182428D01*
X144606438Y-91119369D01*
X144606436Y-91119364D01*
X144508835Y-90923356D01*
X144508834Y-90923355D01*
X144508834Y-90923354D01*
X144376885Y-90748624D01*
X144376883Y-90748622D01*
X144376880Y-90748618D01*
X144215063Y-90601103D01*
X144044396Y-90495430D01*
X144028898Y-90485834D01*
X144028890Y-90485830D01*
X143824722Y-90406735D01*
X143824714Y-90406733D01*
X143609484Y-90366500D01*
X143609482Y-90366500D01*
X143390518Y-90366500D01*
X143390515Y-90366500D01*
X143175285Y-90406733D01*
X143175277Y-90406735D01*
X142971109Y-90485830D01*
X142971101Y-90485834D01*
X142784935Y-90601104D01*
X142623118Y-90748620D01*
X142623114Y-90748624D01*
X142491165Y-90923354D01*
X142393564Y-91119363D01*
X142393561Y-91119369D01*
X142375620Y-91182428D01*
X142335394Y-91249687D01*
X142266928Y-91287822D01*
X142188567Y-91286615D01*
X142121308Y-91246389D01*
X142084380Y-91182428D01*
X142066438Y-91119369D01*
X142066436Y-91119364D01*
X141968835Y-90923356D01*
X141968834Y-90923355D01*
X141968834Y-90923354D01*
X141836885Y-90748624D01*
X141836883Y-90748622D01*
X141836880Y-90748618D01*
X141675063Y-90601103D01*
X141504396Y-90495430D01*
X141488898Y-90485834D01*
X141488890Y-90485830D01*
X141284722Y-90406735D01*
X141284714Y-90406733D01*
X141069484Y-90366500D01*
X141069482Y-90366500D01*
X140850518Y-90366500D01*
X140850515Y-90366500D01*
X140635285Y-90406733D01*
X140635277Y-90406735D01*
X140431109Y-90485830D01*
X140431101Y-90485834D01*
X140244935Y-90601104D01*
X140083118Y-90748620D01*
X140083114Y-90748624D01*
X139951165Y-90923354D01*
X139853564Y-91119363D01*
X139853562Y-91119369D01*
X139793642Y-91329963D01*
X139793640Y-91329972D01*
X139778501Y-91493355D01*
X139778500Y-91493380D01*
X139778500Y-92402619D01*
X139778501Y-92402644D01*
X139793640Y-92566027D01*
X139793642Y-92566036D01*
X139853562Y-92776630D01*
X139853564Y-92776636D01*
X139951165Y-92972645D01*
X140083114Y-93147375D01*
X140083116Y-93147377D01*
X140083120Y-93147382D01*
X140121989Y-93182815D01*
X140164266Y-93248803D01*
X140167885Y-93327090D01*
X140131876Y-93396698D01*
X140065887Y-93438976D01*
X140019990Y-93446100D01*
X133562322Y-93446100D01*
X133498088Y-93443906D01*
X133498087Y-93443906D01*
X133498086Y-93443906D01*
X133457156Y-93453879D01*
X133449540Y-93455326D01*
X133407810Y-93461062D01*
X133407800Y-93461065D01*
X133394276Y-93466939D01*
X133369820Y-93475162D01*
X133355500Y-93478652D01*
X133355493Y-93478654D01*
X133318777Y-93499299D01*
X133311833Y-93502748D01*
X133273186Y-93519535D01*
X133273182Y-93519537D01*
X133261747Y-93528841D01*
X133240415Y-93543360D01*
X133227565Y-93550586D01*
X133227564Y-93550586D01*
X133227562Y-93550588D01*
X133197773Y-93580376D01*
X133192017Y-93585570D01*
X133159337Y-93612158D01*
X133150837Y-93624200D01*
X133134206Y-93643943D01*
X129689724Y-97088426D01*
X129642753Y-97132294D01*
X129620863Y-97168288D01*
X129616503Y-97174695D01*
X129591047Y-97208265D01*
X129591044Y-97208270D01*
X129585636Y-97221984D01*
X129574157Y-97245095D01*
X129566495Y-97257694D01*
X129555128Y-97298265D01*
X129552656Y-97305616D01*
X129537202Y-97344801D01*
X129535694Y-97359473D01*
X129530875Y-97384826D01*
X129526900Y-97399013D01*
X129526900Y-97441140D01*
X129526503Y-97448886D01*
X129522194Y-97490795D01*
X129522194Y-97490802D01*
X129524699Y-97505329D01*
X129526900Y-97531051D01*
X129526900Y-114988862D01*
X129506616Y-115064562D01*
X129451200Y-115119978D01*
X129375500Y-115140262D01*
X129313670Y-115125720D01*
X129313423Y-115126361D01*
X129308835Y-115124583D01*
X129308020Y-115124392D01*
X129306896Y-115123832D01*
X129102722Y-115044735D01*
X129102714Y-115044733D01*
X128887484Y-115004500D01*
X128887482Y-115004500D01*
X128668518Y-115004500D01*
X128668515Y-115004500D01*
X128453285Y-115044733D01*
X128453277Y-115044735D01*
X128249109Y-115123830D01*
X128249101Y-115123834D01*
X128062935Y-115239104D01*
X127901118Y-115386620D01*
X127901114Y-115386624D01*
X127769165Y-115561354D01*
X127671564Y-115757363D01*
X127671561Y-115757369D01*
X127653620Y-115820428D01*
X127613394Y-115887687D01*
X127544928Y-115925822D01*
X127466567Y-115924615D01*
X127399308Y-115884389D01*
X127362380Y-115820428D01*
X127344438Y-115757369D01*
X127344436Y-115757364D01*
X127246835Y-115561356D01*
X127246834Y-115561355D01*
X127246834Y-115561354D01*
X127114885Y-115386624D01*
X127114883Y-115386622D01*
X127114880Y-115386618D01*
X126953063Y-115239103D01*
X126769944Y-115125720D01*
X126766898Y-115123834D01*
X126766890Y-115123830D01*
X126562722Y-115044735D01*
X126562714Y-115044733D01*
X126347484Y-115004500D01*
X126347482Y-115004500D01*
X126128518Y-115004500D01*
X126128515Y-115004500D01*
X125913285Y-115044733D01*
X125913277Y-115044735D01*
X125709109Y-115123830D01*
X125709101Y-115123834D01*
X125522935Y-115239104D01*
X125361118Y-115386620D01*
X125361114Y-115386624D01*
X125229165Y-115561354D01*
X125131564Y-115757363D01*
X125131561Y-115757369D01*
X125113620Y-115820428D01*
X125073394Y-115887687D01*
X125004928Y-115925822D01*
X124926567Y-115924615D01*
X124859308Y-115884389D01*
X124822380Y-115820428D01*
X124804438Y-115757369D01*
X124804436Y-115757364D01*
X124706835Y-115561356D01*
X124706834Y-115561355D01*
X124706834Y-115561354D01*
X124574885Y-115386624D01*
X124574883Y-115386622D01*
X124574880Y-115386618D01*
X124413063Y-115239103D01*
X124229944Y-115125720D01*
X124226898Y-115123834D01*
X124226890Y-115123830D01*
X124022722Y-115044735D01*
X124022714Y-115044733D01*
X123807484Y-115004500D01*
X123807482Y-115004500D01*
X123588518Y-115004500D01*
X123588515Y-115004500D01*
X123373285Y-115044733D01*
X123373277Y-115044735D01*
X123169109Y-115123830D01*
X123169101Y-115123834D01*
X122982935Y-115239104D01*
X122821118Y-115386620D01*
X122821114Y-115386624D01*
X122689165Y-115561354D01*
X122591564Y-115757363D01*
X122591561Y-115757369D01*
X122573620Y-115820428D01*
X122533394Y-115887687D01*
X122464928Y-115925822D01*
X122386567Y-115924615D01*
X122319308Y-115884389D01*
X122282380Y-115820428D01*
X122264438Y-115757369D01*
X122264436Y-115757364D01*
X122166835Y-115561356D01*
X122166834Y-115561355D01*
X122166834Y-115561354D01*
X122034885Y-115386624D01*
X122034883Y-115386622D01*
X122034880Y-115386618D01*
X121873063Y-115239103D01*
X121689944Y-115125720D01*
X121686898Y-115123834D01*
X121686890Y-115123830D01*
X121482722Y-115044735D01*
X121482714Y-115044733D01*
X121267484Y-115004500D01*
X121267482Y-115004500D01*
X121048518Y-115004500D01*
X121048515Y-115004500D01*
X120833285Y-115044733D01*
X120833277Y-115044735D01*
X120629109Y-115123830D01*
X120629101Y-115123834D01*
X120442935Y-115239104D01*
X120281118Y-115386620D01*
X120281114Y-115386624D01*
X120149165Y-115561354D01*
X120051564Y-115757363D01*
X120051561Y-115757369D01*
X120033620Y-115820428D01*
X119993394Y-115887687D01*
X119924928Y-115925822D01*
X119846567Y-115924615D01*
X119779308Y-115884389D01*
X119742380Y-115820428D01*
X119724438Y-115757369D01*
X119724436Y-115757364D01*
X119626835Y-115561356D01*
X119626834Y-115561355D01*
X119626834Y-115561354D01*
X119494885Y-115386624D01*
X119494883Y-115386622D01*
X119494880Y-115386618D01*
X119333063Y-115239103D01*
X119149944Y-115125720D01*
X119146898Y-115123834D01*
X119146890Y-115123830D01*
X118942722Y-115044735D01*
X118942714Y-115044733D01*
X118727484Y-115004500D01*
X118727482Y-115004500D01*
X118508518Y-115004500D01*
X118508515Y-115004500D01*
X118293285Y-115044733D01*
X118293277Y-115044735D01*
X118089109Y-115123830D01*
X118089101Y-115123834D01*
X117902935Y-115239104D01*
X117741118Y-115386620D01*
X117741114Y-115386624D01*
X117609165Y-115561354D01*
X117511564Y-115757363D01*
X117511562Y-115757369D01*
X117451642Y-115967963D01*
X117451640Y-115967972D01*
X117436501Y-116131355D01*
X117436500Y-116131380D01*
X117436500Y-117040619D01*
X117436501Y-117040644D01*
X117451640Y-117204027D01*
X117451642Y-117204036D01*
X117511562Y-117414630D01*
X117511564Y-117414636D01*
X117609165Y-117610645D01*
X117741114Y-117785375D01*
X117741116Y-117785377D01*
X117741120Y-117785382D01*
X117902937Y-117932897D01*
X118089104Y-118048167D01*
X118293282Y-118127266D01*
X118508518Y-118167500D01*
X118508522Y-118167500D01*
X118727478Y-118167500D01*
X118727482Y-118167500D01*
X118942718Y-118127266D01*
X119146896Y-118048167D01*
X119333063Y-117932897D01*
X119494880Y-117785382D01*
X119626835Y-117610644D01*
X119724436Y-117414636D01*
X119742380Y-117351571D01*
X119782605Y-117284312D01*
X119851072Y-117246177D01*
X119929433Y-117247384D01*
X119996692Y-117287609D01*
X120033620Y-117351571D01*
X120051562Y-117414630D01*
X120051564Y-117414636D01*
X120149165Y-117610645D01*
X120281114Y-117785375D01*
X120281116Y-117785377D01*
X120281120Y-117785382D01*
X120442937Y-117932897D01*
X120629104Y-118048167D01*
X120833282Y-118127266D01*
X121048518Y-118167500D01*
X121048522Y-118167500D01*
X121267478Y-118167500D01*
X121267482Y-118167500D01*
X121482718Y-118127266D01*
X121686896Y-118048167D01*
X121873063Y-117932897D01*
X122034880Y-117785382D01*
X122166835Y-117610644D01*
X122264436Y-117414636D01*
X122282380Y-117351571D01*
X122322605Y-117284312D01*
X122391072Y-117246177D01*
X122469433Y-117247384D01*
X122536692Y-117287609D01*
X122573620Y-117351571D01*
X122591562Y-117414630D01*
X122591564Y-117414636D01*
X122689165Y-117610645D01*
X122821114Y-117785375D01*
X122821116Y-117785377D01*
X122821120Y-117785382D01*
X122982937Y-117932897D01*
X123169104Y-118048167D01*
X123373282Y-118127266D01*
X123588518Y-118167500D01*
X123588522Y-118167500D01*
X123807478Y-118167500D01*
X123807482Y-118167500D01*
X124022718Y-118127266D01*
X124226896Y-118048167D01*
X124413063Y-117932897D01*
X124574880Y-117785382D01*
X124706835Y-117610644D01*
X124804436Y-117414636D01*
X124822380Y-117351571D01*
X124862605Y-117284312D01*
X124931072Y-117246177D01*
X125009433Y-117247384D01*
X125076692Y-117287609D01*
X125113620Y-117351571D01*
X125131562Y-117414630D01*
X125131564Y-117414636D01*
X125229165Y-117610645D01*
X125361114Y-117785375D01*
X125361116Y-117785377D01*
X125361120Y-117785382D01*
X125522937Y-117932897D01*
X125709104Y-118048167D01*
X125913282Y-118127266D01*
X126128518Y-118167500D01*
X126128522Y-118167500D01*
X126347478Y-118167500D01*
X126347482Y-118167500D01*
X126562718Y-118127266D01*
X126766896Y-118048167D01*
X126953063Y-117932897D01*
X127114880Y-117785382D01*
X127246835Y-117610644D01*
X127344436Y-117414636D01*
X127362380Y-117351571D01*
X127402605Y-117284312D01*
X127471072Y-117246177D01*
X127549433Y-117247384D01*
X127616692Y-117287609D01*
X127653620Y-117351571D01*
X127671562Y-117414630D01*
X127671564Y-117414636D01*
X127769165Y-117610645D01*
X127901114Y-117785375D01*
X127901116Y-117785377D01*
X127901120Y-117785382D01*
X128062937Y-117932897D01*
X128249104Y-118048167D01*
X128453282Y-118127266D01*
X128668518Y-118167500D01*
X128668522Y-118167500D01*
X128887478Y-118167500D01*
X128887482Y-118167500D01*
X129102718Y-118127266D01*
X129306896Y-118048167D01*
X129306912Y-118048157D01*
X129308005Y-118047614D01*
X129308677Y-118047477D01*
X129313423Y-118045639D01*
X129313737Y-118046450D01*
X129384809Y-118032023D01*
X129459118Y-118056923D01*
X129511023Y-118115642D01*
X129526900Y-118183137D01*
X129526900Y-130228862D01*
X129506616Y-130304562D01*
X129451200Y-130359978D01*
X129375500Y-130380262D01*
X129313670Y-130365720D01*
X129313423Y-130366361D01*
X129308835Y-130364583D01*
X129308020Y-130364392D01*
X129306896Y-130363832D01*
X129102722Y-130284735D01*
X129102714Y-130284733D01*
X128887484Y-130244500D01*
X128887482Y-130244500D01*
X128668518Y-130244500D01*
X128668515Y-130244500D01*
X128453285Y-130284733D01*
X128453277Y-130284735D01*
X128249109Y-130363830D01*
X128249101Y-130363834D01*
X128062935Y-130479104D01*
X127901118Y-130626620D01*
X127901114Y-130626624D01*
X127769165Y-130801354D01*
X127671564Y-130997363D01*
X127671561Y-130997369D01*
X127653620Y-131060428D01*
X127613394Y-131127687D01*
X127544928Y-131165822D01*
X127466567Y-131164615D01*
X127399308Y-131124389D01*
X127362380Y-131060428D01*
X127344438Y-130997369D01*
X127344436Y-130997364D01*
X127246835Y-130801356D01*
X127246834Y-130801355D01*
X127246834Y-130801354D01*
X127114885Y-130626624D01*
X127114883Y-130626622D01*
X127114880Y-130626618D01*
X126953063Y-130479103D01*
X126769944Y-130365720D01*
X126766898Y-130363834D01*
X126766890Y-130363830D01*
X126562722Y-130284735D01*
X126562714Y-130284733D01*
X126347484Y-130244500D01*
X126347482Y-130244500D01*
X126128518Y-130244500D01*
X126128515Y-130244500D01*
X125913285Y-130284733D01*
X125913277Y-130284735D01*
X125709109Y-130363830D01*
X125709101Y-130363834D01*
X125522935Y-130479104D01*
X125361118Y-130626620D01*
X125361114Y-130626624D01*
X125229165Y-130801354D01*
X125131564Y-130997363D01*
X125131561Y-130997369D01*
X125113620Y-131060428D01*
X125073394Y-131127687D01*
X125004928Y-131165822D01*
X124926567Y-131164615D01*
X124859308Y-131124389D01*
X124822380Y-131060428D01*
X124804438Y-130997369D01*
X124804436Y-130997364D01*
X124706835Y-130801356D01*
X124706834Y-130801355D01*
X124706834Y-130801354D01*
X124574885Y-130626624D01*
X124574883Y-130626622D01*
X124574880Y-130626618D01*
X124413063Y-130479103D01*
X124229944Y-130365720D01*
X124226898Y-130363834D01*
X124226890Y-130363830D01*
X124022722Y-130284735D01*
X124022714Y-130284733D01*
X123807484Y-130244500D01*
X123807482Y-130244500D01*
X123588518Y-130244500D01*
X123588515Y-130244500D01*
X123373285Y-130284733D01*
X123373277Y-130284735D01*
X123169109Y-130363830D01*
X123169101Y-130363834D01*
X122982935Y-130479104D01*
X122821118Y-130626620D01*
X122821114Y-130626624D01*
X122689165Y-130801354D01*
X122591564Y-130997363D01*
X122591561Y-130997369D01*
X122573620Y-131060428D01*
X122533394Y-131127687D01*
X122464928Y-131165822D01*
X122386567Y-131164615D01*
X122319308Y-131124389D01*
X122282380Y-131060428D01*
X122264438Y-130997369D01*
X122264436Y-130997364D01*
X122166835Y-130801356D01*
X122166834Y-130801355D01*
X122166834Y-130801354D01*
X122034885Y-130626624D01*
X122034883Y-130626622D01*
X122034880Y-130626618D01*
X121873063Y-130479103D01*
X121689944Y-130365720D01*
X121686898Y-130363834D01*
X121686890Y-130363830D01*
X121482722Y-130284735D01*
X121482714Y-130284733D01*
X121267484Y-130244500D01*
X121267482Y-130244500D01*
X121048518Y-130244500D01*
X121048515Y-130244500D01*
X120833285Y-130284733D01*
X120833277Y-130284735D01*
X120629109Y-130363830D01*
X120629101Y-130363834D01*
X120442935Y-130479104D01*
X120281118Y-130626620D01*
X120281114Y-130626624D01*
X120149165Y-130801354D01*
X120051564Y-130997363D01*
X120051561Y-130997369D01*
X120033620Y-131060428D01*
X119993394Y-131127687D01*
X119924928Y-131165822D01*
X119846567Y-131164615D01*
X119779308Y-131124389D01*
X119742380Y-131060428D01*
X119724438Y-130997369D01*
X119724436Y-130997364D01*
X119626835Y-130801356D01*
X119626834Y-130801355D01*
X119626834Y-130801354D01*
X119494885Y-130626624D01*
X119494883Y-130626622D01*
X119494880Y-130626618D01*
X119333063Y-130479103D01*
X119149944Y-130365720D01*
X119146898Y-130363834D01*
X119146890Y-130363830D01*
X118942722Y-130284735D01*
X118942714Y-130284733D01*
X118727484Y-130244500D01*
X118727482Y-130244500D01*
X118508518Y-130244500D01*
X118508515Y-130244500D01*
X118293285Y-130284733D01*
X118293277Y-130284735D01*
X118089109Y-130363830D01*
X118089101Y-130363834D01*
X117902935Y-130479104D01*
X117741118Y-130626620D01*
X117741114Y-130626624D01*
X117609165Y-130801354D01*
X117511564Y-130997363D01*
X117511562Y-130997369D01*
X117451642Y-131207963D01*
X117451640Y-131207972D01*
X117436501Y-131371355D01*
X117436500Y-131371380D01*
X117436500Y-132280619D01*
X117436501Y-132280644D01*
X117451640Y-132444027D01*
X117451642Y-132444036D01*
X117511562Y-132654630D01*
X117511564Y-132654636D01*
X117609165Y-132850645D01*
X117741114Y-133025375D01*
X117741116Y-133025377D01*
X117741120Y-133025382D01*
X117902937Y-133172897D01*
X118089104Y-133288167D01*
X118293282Y-133367266D01*
X118508518Y-133407500D01*
X118508522Y-133407500D01*
X118727478Y-133407500D01*
X118727482Y-133407500D01*
X118942718Y-133367266D01*
X119146896Y-133288167D01*
X119333063Y-133172897D01*
X119494880Y-133025382D01*
X119626835Y-132850644D01*
X119724436Y-132654636D01*
X119742380Y-132591571D01*
X119782605Y-132524312D01*
X119851072Y-132486177D01*
X119929433Y-132487384D01*
X119996692Y-132527609D01*
X120033620Y-132591571D01*
X120051562Y-132654630D01*
X120051564Y-132654636D01*
X120149165Y-132850645D01*
X120281114Y-133025375D01*
X120281116Y-133025377D01*
X120281120Y-133025382D01*
X120442937Y-133172897D01*
X120629104Y-133288167D01*
X120833282Y-133367266D01*
X121048518Y-133407500D01*
X121048522Y-133407500D01*
X121267478Y-133407500D01*
X121267482Y-133407500D01*
X121482718Y-133367266D01*
X121686896Y-133288167D01*
X121873063Y-133172897D01*
X122034880Y-133025382D01*
X122166835Y-132850644D01*
X122264436Y-132654636D01*
X122282380Y-132591571D01*
X122322605Y-132524312D01*
X122391072Y-132486177D01*
X122469433Y-132487384D01*
X122536692Y-132527609D01*
X122573620Y-132591571D01*
X122591562Y-132654630D01*
X122591564Y-132654636D01*
X122689165Y-132850645D01*
X122821114Y-133025375D01*
X122821116Y-133025377D01*
X122821120Y-133025382D01*
X122982937Y-133172897D01*
X123169104Y-133288167D01*
X123373282Y-133367266D01*
X123588518Y-133407500D01*
X123588522Y-133407500D01*
X123807478Y-133407500D01*
X123807482Y-133407500D01*
X124022718Y-133367266D01*
X124226896Y-133288167D01*
X124413063Y-133172897D01*
X124574880Y-133025382D01*
X124706835Y-132850644D01*
X124804436Y-132654636D01*
X124822380Y-132591571D01*
X124862605Y-132524312D01*
X124931072Y-132486177D01*
X125009433Y-132487384D01*
X125076692Y-132527609D01*
X125113620Y-132591571D01*
X125131562Y-132654630D01*
X125131564Y-132654636D01*
X125229165Y-132850645D01*
X125361114Y-133025375D01*
X125361116Y-133025377D01*
X125361120Y-133025382D01*
X125522937Y-133172897D01*
X125709104Y-133288167D01*
X125913282Y-133367266D01*
X126128518Y-133407500D01*
X126128522Y-133407500D01*
X126347478Y-133407500D01*
X126347482Y-133407500D01*
X126562718Y-133367266D01*
X126766896Y-133288167D01*
X126953063Y-133172897D01*
X127114880Y-133025382D01*
X127246835Y-132850644D01*
X127344436Y-132654636D01*
X127362380Y-132591571D01*
X127402605Y-132524312D01*
X127471072Y-132486177D01*
X127549433Y-132487384D01*
X127616692Y-132527609D01*
X127653620Y-132591571D01*
X127671562Y-132654630D01*
X127671564Y-132654636D01*
X127769165Y-132850645D01*
X127901114Y-133025375D01*
X127901116Y-133025377D01*
X127901120Y-133025382D01*
X128062937Y-133172897D01*
X128249104Y-133288167D01*
X128453282Y-133367266D01*
X128668518Y-133407500D01*
X128668522Y-133407500D01*
X128887478Y-133407500D01*
X128887482Y-133407500D01*
X129102718Y-133367266D01*
X129306896Y-133288167D01*
X129493063Y-133172897D01*
X129654880Y-133025382D01*
X129786835Y-132850644D01*
X129884436Y-132654636D01*
X129902380Y-132591571D01*
X129942605Y-132524312D01*
X130011072Y-132486177D01*
X130089433Y-132487384D01*
X130156692Y-132527609D01*
X130193620Y-132591571D01*
X130211562Y-132654630D01*
X130211564Y-132654636D01*
X130309165Y-132850645D01*
X130441114Y-133025375D01*
X130441116Y-133025377D01*
X130441120Y-133025382D01*
X130602937Y-133172897D01*
X130789104Y-133288167D01*
X130993282Y-133367266D01*
X131208518Y-133407500D01*
X131208522Y-133407500D01*
X131427478Y-133407500D01*
X131427482Y-133407500D01*
X131642718Y-133367266D01*
X131846896Y-133288167D01*
X132033063Y-133172897D01*
X132194880Y-133025382D01*
X132326835Y-132850644D01*
X132424436Y-132654636D01*
X132442380Y-132591571D01*
X132482605Y-132524312D01*
X132551072Y-132486177D01*
X132629433Y-132487384D01*
X132696692Y-132527609D01*
X132733620Y-132591571D01*
X132751562Y-132654630D01*
X132751564Y-132654636D01*
X132849165Y-132850645D01*
X132981114Y-133025375D01*
X132981116Y-133025377D01*
X132981120Y-133025382D01*
X133142937Y-133172897D01*
X133329104Y-133288167D01*
X133533282Y-133367266D01*
X133748518Y-133407500D01*
X133748522Y-133407500D01*
X133967478Y-133407500D01*
X133967482Y-133407500D01*
X134182718Y-133367266D01*
X134386896Y-133288167D01*
X134573063Y-133172897D01*
X134734880Y-133025382D01*
X134866835Y-132850644D01*
X134964436Y-132654636D01*
X134982380Y-132591571D01*
X135022605Y-132524312D01*
X135091072Y-132486177D01*
X135169433Y-132487384D01*
X135236692Y-132527609D01*
X135273620Y-132591571D01*
X135291562Y-132654630D01*
X135291564Y-132654636D01*
X135389165Y-132850645D01*
X135521114Y-133025375D01*
X135521116Y-133025377D01*
X135521120Y-133025382D01*
X135682937Y-133172897D01*
X135869104Y-133288167D01*
X136073282Y-133367266D01*
X136288518Y-133407500D01*
X136288522Y-133407500D01*
X136507478Y-133407500D01*
X136507482Y-133407500D01*
X136722718Y-133367266D01*
X136926896Y-133288167D01*
X137113063Y-133172897D01*
X137274880Y-133025382D01*
X137406835Y-132850644D01*
X137504436Y-132654636D01*
X137522380Y-132591571D01*
X137562605Y-132524312D01*
X137631072Y-132486177D01*
X137709433Y-132487384D01*
X137776692Y-132527609D01*
X137813620Y-132591571D01*
X137831562Y-132654630D01*
X137831564Y-132654636D01*
X137929165Y-132850645D01*
X138061114Y-133025375D01*
X138061116Y-133025377D01*
X138061120Y-133025382D01*
X138222937Y-133172897D01*
X138409104Y-133288167D01*
X138613282Y-133367266D01*
X138828518Y-133407500D01*
X138828522Y-133407500D01*
X139047478Y-133407500D01*
X139047482Y-133407500D01*
X139262718Y-133367266D01*
X139466896Y-133288167D01*
X139653063Y-133172897D01*
X139814880Y-133025382D01*
X139946835Y-132850644D01*
X140044436Y-132654636D01*
X140062380Y-132591571D01*
X140102605Y-132524312D01*
X140171072Y-132486177D01*
X140249433Y-132487384D01*
X140316692Y-132527609D01*
X140353620Y-132591571D01*
X140371562Y-132654630D01*
X140371564Y-132654636D01*
X140469165Y-132850645D01*
X140601114Y-133025375D01*
X140601116Y-133025377D01*
X140601120Y-133025382D01*
X140762937Y-133172897D01*
X140949104Y-133288167D01*
X141153282Y-133367266D01*
X141368518Y-133407500D01*
X141368522Y-133407500D01*
X141587478Y-133407500D01*
X141587482Y-133407500D01*
X141802718Y-133367266D01*
X142006896Y-133288167D01*
X142193063Y-133172897D01*
X142354880Y-133025382D01*
X142486835Y-132850644D01*
X142584436Y-132654636D01*
X142602380Y-132591571D01*
X142642605Y-132524312D01*
X142711072Y-132486177D01*
X142789433Y-132487384D01*
X142856692Y-132527609D01*
X142893620Y-132591571D01*
X142911562Y-132654630D01*
X142911564Y-132654636D01*
X143009165Y-132850645D01*
X143141114Y-133025375D01*
X143141116Y-133025377D01*
X143141120Y-133025382D01*
X143302937Y-133172897D01*
X143489104Y-133288167D01*
X143693282Y-133367266D01*
X143908518Y-133407500D01*
X143908522Y-133407500D01*
X144127478Y-133407500D01*
X144127482Y-133407500D01*
X144342718Y-133367266D01*
X144546896Y-133288167D01*
X144733063Y-133172897D01*
X144894880Y-133025382D01*
X145026835Y-132850644D01*
X145124436Y-132654636D01*
X145142380Y-132591571D01*
X145182605Y-132524312D01*
X145251072Y-132486177D01*
X145329433Y-132487384D01*
X145396692Y-132527609D01*
X145433620Y-132591571D01*
X145451562Y-132654630D01*
X145451564Y-132654636D01*
X145549165Y-132850645D01*
X145681114Y-133025375D01*
X145681116Y-133025377D01*
X145681120Y-133025382D01*
X145842937Y-133172897D01*
X146029104Y-133288167D01*
X146233282Y-133367266D01*
X146448518Y-133407500D01*
X146448522Y-133407500D01*
X146667478Y-133407500D01*
X146667482Y-133407500D01*
X146882718Y-133367266D01*
X147086896Y-133288167D01*
X147273063Y-133172897D01*
X147434880Y-133025382D01*
X147566835Y-132850644D01*
X147664436Y-132654636D01*
X147682380Y-132591571D01*
X147722605Y-132524312D01*
X147791072Y-132486177D01*
X147869433Y-132487384D01*
X147936692Y-132527609D01*
X147973620Y-132591571D01*
X147991562Y-132654630D01*
X147991564Y-132654636D01*
X148089165Y-132850645D01*
X148221114Y-133025375D01*
X148221116Y-133025377D01*
X148221120Y-133025382D01*
X148382937Y-133172897D01*
X148569104Y-133288167D01*
X148773282Y-133367266D01*
X148894351Y-133389897D01*
X148907086Y-133392278D01*
X148977770Y-133426126D01*
X149016850Y-133483176D01*
X149027759Y-133460397D01*
X149092414Y-133416107D01*
X149142733Y-133407500D01*
X149207478Y-133407500D01*
X149207482Y-133407500D01*
X149422718Y-133367266D01*
X149626896Y-133288167D01*
X149813063Y-133172897D01*
X149974880Y-133025382D01*
X150106835Y-132850644D01*
X150204436Y-132654636D01*
X150222380Y-132591571D01*
X150262605Y-132524312D01*
X150331072Y-132486177D01*
X150409433Y-132487384D01*
X150476692Y-132527609D01*
X150513620Y-132591571D01*
X150531562Y-132654630D01*
X150531564Y-132654636D01*
X150629165Y-132850645D01*
X150761114Y-133025375D01*
X150761116Y-133025377D01*
X150761120Y-133025382D01*
X150922937Y-133172897D01*
X151109104Y-133288167D01*
X151313282Y-133367266D01*
X151528518Y-133407500D01*
X151528522Y-133407500D01*
X151747478Y-133407500D01*
X151747482Y-133407500D01*
X151962718Y-133367266D01*
X152166896Y-133288167D01*
X152353063Y-133172897D01*
X152514880Y-133025382D01*
X152646835Y-132850644D01*
X152744436Y-132654636D01*
X152762380Y-132591571D01*
X152802605Y-132524312D01*
X152871072Y-132486177D01*
X152949433Y-132487384D01*
X153016692Y-132527609D01*
X153053620Y-132591571D01*
X153071562Y-132654630D01*
X153071564Y-132654636D01*
X153169165Y-132850645D01*
X153301114Y-133025375D01*
X153301116Y-133025377D01*
X153301120Y-133025382D01*
X153462937Y-133172897D01*
X153649104Y-133288167D01*
X153853282Y-133367266D01*
X154068518Y-133407500D01*
X154068522Y-133407500D01*
X154287478Y-133407500D01*
X154287482Y-133407500D01*
X154502718Y-133367266D01*
X154706896Y-133288167D01*
X154893063Y-133172897D01*
X155054880Y-133025382D01*
X155186835Y-132850644D01*
X155284436Y-132654636D01*
X155302380Y-132591571D01*
X155342605Y-132524312D01*
X155411072Y-132486177D01*
X155489433Y-132487384D01*
X155556692Y-132527609D01*
X155593620Y-132591571D01*
X155611562Y-132654630D01*
X155611564Y-132654636D01*
X155709165Y-132850645D01*
X155841114Y-133025375D01*
X155841116Y-133025377D01*
X155841120Y-133025382D01*
X156002937Y-133172897D01*
X156189104Y-133288167D01*
X156393282Y-133367266D01*
X156608518Y-133407500D01*
X156608522Y-133407500D01*
X156827478Y-133407500D01*
X156827482Y-133407500D01*
X157042718Y-133367266D01*
X157246896Y-133288167D01*
X157433063Y-133172897D01*
X157594880Y-133025382D01*
X157726835Y-132850644D01*
X157824436Y-132654636D01*
X157842380Y-132591571D01*
X157882605Y-132524312D01*
X157951072Y-132486177D01*
X158029433Y-132487384D01*
X158096692Y-132527609D01*
X158133620Y-132591571D01*
X158151562Y-132654630D01*
X158151564Y-132654636D01*
X158249165Y-132850645D01*
X158381114Y-133025375D01*
X158381116Y-133025377D01*
X158381120Y-133025382D01*
X158542937Y-133172897D01*
X158729104Y-133288167D01*
X158933282Y-133367266D01*
X159148518Y-133407500D01*
X159148522Y-133407500D01*
X159367478Y-133407500D01*
X159367482Y-133407500D01*
X159582718Y-133367266D01*
X159786896Y-133288167D01*
X159973063Y-133172897D01*
X160134880Y-133025382D01*
X160266835Y-132850644D01*
X160364436Y-132654636D01*
X160382380Y-132591571D01*
X160422605Y-132524312D01*
X160491072Y-132486177D01*
X160569433Y-132487384D01*
X160636692Y-132527609D01*
X160673620Y-132591571D01*
X160691562Y-132654630D01*
X160691564Y-132654636D01*
X160789165Y-132850645D01*
X160921114Y-133025375D01*
X160921116Y-133025377D01*
X160921120Y-133025382D01*
X161082937Y-133172897D01*
X161269104Y-133288167D01*
X161269108Y-133288168D01*
X161269109Y-133288169D01*
X161395256Y-133337039D01*
X161458517Y-133383299D01*
X161490172Y-133454991D01*
X161481740Y-133532907D01*
X161435480Y-133596168D01*
X161363788Y-133627823D01*
X161339925Y-133629613D01*
X161290000Y-133629400D01*
X161290000Y-134671478D01*
X161269716Y-134747178D01*
X161214300Y-134802594D01*
X161138600Y-134822878D01*
X161062900Y-134802594D01*
X161017780Y-134762717D01*
X160969942Y-134699369D01*
X160896880Y-134602618D01*
X160735063Y-134455103D01*
X160548896Y-134339833D01*
X160548890Y-134339830D01*
X160344722Y-134260735D01*
X160344714Y-134260733D01*
X160129484Y-134220500D01*
X160129482Y-134220500D01*
X159910518Y-134220500D01*
X159910515Y-134220500D01*
X159695285Y-134260733D01*
X159695277Y-134260735D01*
X159491109Y-134339830D01*
X159491101Y-134339834D01*
X159304935Y-134455104D01*
X159143118Y-134602620D01*
X159143114Y-134602624D01*
X159011165Y-134777354D01*
X158913564Y-134973363D01*
X158913562Y-134973369D01*
X158853642Y-135183963D01*
X158853640Y-135183972D01*
X158833438Y-135401998D01*
X158833438Y-135402001D01*
X158853640Y-135620027D01*
X158853642Y-135620036D01*
X158913562Y-135830630D01*
X158913564Y-135830636D01*
X159011165Y-136026645D01*
X159143114Y-136201375D01*
X159143116Y-136201377D01*
X159143120Y-136201382D01*
X159304937Y-136348897D01*
X159491104Y-136464167D01*
X159695282Y-136543266D01*
X159910518Y-136583500D01*
X159910522Y-136583500D01*
X160129478Y-136583500D01*
X160129482Y-136583500D01*
X160344718Y-136543266D01*
X160548896Y-136464167D01*
X160735063Y-136348897D01*
X160896880Y-136201382D01*
X161017780Y-136041282D01*
X161079586Y-135993096D01*
X161157204Y-135982268D01*
X161229838Y-136011701D01*
X161278025Y-136073507D01*
X161290000Y-136132521D01*
X161290000Y-138538900D01*
X161269716Y-138614600D01*
X161214300Y-138670016D01*
X161138600Y-138690300D01*
X153558061Y-138690300D01*
X153482361Y-138670016D01*
X153451005Y-138645956D01*
X150814258Y-136009209D01*
X155740500Y-136009209D01*
X155751303Y-136083357D01*
X155751304Y-136083361D01*
X155807224Y-136197746D01*
X155897254Y-136287776D01*
X156011639Y-136343696D01*
X156085794Y-136354500D01*
X156085795Y-136354500D01*
X157858205Y-136354500D01*
X157858206Y-136354500D01*
X157932361Y-136343696D01*
X158046746Y-136287776D01*
X158136776Y-136197746D01*
X158192696Y-136083361D01*
X158203500Y-136009206D01*
X158203500Y-134236794D01*
X158192696Y-134162639D01*
X158136776Y-134048254D01*
X158046746Y-133958224D01*
X157932361Y-133902304D01*
X157932359Y-133902303D01*
X157932357Y-133902303D01*
X157858209Y-133891500D01*
X157858206Y-133891500D01*
X156085794Y-133891500D01*
X156085790Y-133891500D01*
X156011642Y-133902303D01*
X156011639Y-133902304D01*
X155897253Y-133958224D01*
X155807224Y-134048253D01*
X155751304Y-134162639D01*
X155751303Y-134162642D01*
X155740500Y-134236790D01*
X155740500Y-136009209D01*
X150814258Y-136009209D01*
X150110459Y-135305410D01*
X150071274Y-135237539D01*
X150071274Y-135159169D01*
X150071867Y-135157020D01*
X150090359Y-135092030D01*
X150110562Y-134874000D01*
X150090359Y-134655970D01*
X150030436Y-134445364D01*
X149932835Y-134249356D01*
X149932834Y-134249355D01*
X149932834Y-134249354D01*
X149800885Y-134074624D01*
X149800883Y-134074622D01*
X149800880Y-134074618D01*
X149639063Y-133927103D01*
X149452896Y-133811833D01*
X149452890Y-133811830D01*
X149248722Y-133732735D01*
X149248714Y-133732733D01*
X149114914Y-133707722D01*
X149044230Y-133673874D01*
X149005149Y-133616823D01*
X148994241Y-133639603D01*
X148929586Y-133683893D01*
X148879267Y-133692500D01*
X148814515Y-133692500D01*
X148599285Y-133732733D01*
X148599277Y-133732735D01*
X148395109Y-133811830D01*
X148395101Y-133811834D01*
X148208935Y-133927104D01*
X148047118Y-134074620D01*
X148047114Y-134074624D01*
X147915165Y-134249354D01*
X147817564Y-134445363D01*
X147817562Y-134445369D01*
X147757642Y-134655963D01*
X147757640Y-134655972D01*
X147737438Y-134873998D01*
X147737438Y-134874003D01*
X147743052Y-134934596D01*
X147729839Y-135011845D01*
X147679771Y-135072137D01*
X147606266Y-135099318D01*
X147529017Y-135086105D01*
X147512773Y-135076681D01*
X147448177Y-135045102D01*
X147393361Y-135018304D01*
X147393359Y-135018303D01*
X147393357Y-135018303D01*
X147319209Y-135007500D01*
X147319206Y-135007500D01*
X145796794Y-135007500D01*
X145796790Y-135007500D01*
X145722642Y-135018303D01*
X145722639Y-135018304D01*
X145608253Y-135074224D01*
X145518224Y-135164253D01*
X145462304Y-135278639D01*
X145462303Y-135278642D01*
X145451500Y-135352790D01*
X145451500Y-136875209D01*
X145462303Y-136949357D01*
X145462304Y-136949361D01*
X145518224Y-137063746D01*
X145608254Y-137153776D01*
X145722639Y-137209696D01*
X145796794Y-137220500D01*
X145796795Y-137220500D01*
X147319205Y-137220500D01*
X147319206Y-137220500D01*
X147393361Y-137209696D01*
X147507746Y-137153776D01*
X147597776Y-137063746D01*
X147653696Y-136949361D01*
X147664500Y-136875206D01*
X147664500Y-135618426D01*
X147684784Y-135542726D01*
X147740200Y-135487310D01*
X147815900Y-135467026D01*
X147891600Y-135487310D01*
X147936720Y-135527188D01*
X148047114Y-135673375D01*
X148047116Y-135673377D01*
X148047120Y-135673382D01*
X148208937Y-135820897D01*
X148395104Y-135936167D01*
X148599282Y-136015266D01*
X148814518Y-136055500D01*
X148814522Y-136055500D01*
X149033478Y-136055500D01*
X149033482Y-136055500D01*
X149222087Y-136020244D01*
X149300224Y-136026272D01*
X149356961Y-136062010D01*
X152890226Y-139595275D01*
X152934094Y-139642246D01*
X152970094Y-139664138D01*
X152976497Y-139668496D01*
X153010070Y-139693955D01*
X153023778Y-139699360D01*
X153046903Y-139710847D01*
X153059494Y-139718504D01*
X153077399Y-139723520D01*
X153100059Y-139729869D01*
X153107415Y-139732343D01*
X153146599Y-139747796D01*
X153146600Y-139747796D01*
X153146603Y-139747797D01*
X153161268Y-139749304D01*
X153186626Y-139754124D01*
X153194668Y-139756377D01*
X153200816Y-139758100D01*
X153200817Y-139758100D01*
X153242941Y-139758100D01*
X153250681Y-139758496D01*
X153292599Y-139762806D01*
X153302227Y-139761145D01*
X153307129Y-139760301D01*
X153332851Y-139758100D01*
X175472678Y-139758100D01*
X175536912Y-139760294D01*
X175566598Y-139753059D01*
X175577841Y-139750320D01*
X175585460Y-139748871D01*
X175627199Y-139743135D01*
X175640717Y-139737262D01*
X175665183Y-139729035D01*
X175679506Y-139725546D01*
X175716250Y-139704884D01*
X175723163Y-139701451D01*
X175761814Y-139684664D01*
X175773245Y-139675363D01*
X175794587Y-139660837D01*
X175807435Y-139653614D01*
X175837231Y-139623816D01*
X175842968Y-139618639D01*
X175875662Y-139592042D01*
X175884163Y-139579997D01*
X175900790Y-139560257D01*
X176440005Y-139021044D01*
X176507876Y-138981859D01*
X176547061Y-138976700D01*
X190626212Y-138976700D01*
X190701912Y-138996984D01*
X190757328Y-139052400D01*
X190777612Y-139128100D01*
X190777612Y-140536206D01*
X190788416Y-140610361D01*
X190844336Y-140724746D01*
X190934366Y-140814776D01*
X191048751Y-140870696D01*
X191122906Y-140881500D01*
X192322852Y-140881500D01*
X192398552Y-140901784D01*
X192429908Y-140925844D01*
X192715756Y-141211692D01*
X192754941Y-141279563D01*
X192760100Y-141318748D01*
X192760100Y-145898100D01*
X192739816Y-145973800D01*
X192684400Y-146029216D01*
X192608700Y-146049500D01*
X192305294Y-146049500D01*
X192305292Y-146049500D01*
X192301129Y-146049802D01*
X192295656Y-146050000D01*
X191770000Y-146050000D01*
X191770000Y-153264600D01*
X191749716Y-153340300D01*
X191694300Y-153395716D01*
X191618600Y-153416000D01*
X189889400Y-153416000D01*
X189813700Y-153395716D01*
X189758284Y-153340300D01*
X189738000Y-153264600D01*
X189738000Y-146050000D01*
X189212344Y-146050000D01*
X189206871Y-146049802D01*
X189202707Y-146049500D01*
X189202706Y-146049500D01*
X187225294Y-146049500D01*
X187225292Y-146049500D01*
X187221129Y-146049802D01*
X187215656Y-146050000D01*
X186672344Y-146050000D01*
X186666871Y-146049802D01*
X186662707Y-146049500D01*
X186662706Y-146049500D01*
X184685294Y-146049500D01*
X184685292Y-146049500D01*
X184681129Y-146049802D01*
X184675656Y-146050000D01*
X184132344Y-146050000D01*
X184126871Y-146049802D01*
X184122707Y-146049500D01*
X184122706Y-146049500D01*
X182145294Y-146049500D01*
X182145292Y-146049500D01*
X182141129Y-146049802D01*
X182135656Y-146050000D01*
X181592344Y-146050000D01*
X181586871Y-146049802D01*
X181582707Y-146049500D01*
X181582706Y-146049500D01*
X179605294Y-146049500D01*
X179605292Y-146049500D01*
X179601129Y-146049802D01*
X179595656Y-146050000D01*
X179052344Y-146050000D01*
X179046871Y-146049802D01*
X179042707Y-146049500D01*
X179042706Y-146049500D01*
X177065294Y-146049500D01*
X177065292Y-146049500D01*
X177061129Y-146049802D01*
X177055656Y-146050000D01*
X176512344Y-146050000D01*
X176506871Y-146049802D01*
X176502707Y-146049500D01*
X176502706Y-146049500D01*
X174525294Y-146049500D01*
X174525292Y-146049500D01*
X174521129Y-146049802D01*
X174515656Y-146050000D01*
X173972344Y-146050000D01*
X173966871Y-146049802D01*
X173962707Y-146049500D01*
X173962706Y-146049500D01*
X171985294Y-146049500D01*
X171985292Y-146049500D01*
X171981129Y-146049802D01*
X171975656Y-146050000D01*
X171432344Y-146050000D01*
X171426871Y-146049802D01*
X171422707Y-146049500D01*
X171422706Y-146049500D01*
X169445294Y-146049500D01*
X169445292Y-146049500D01*
X169441129Y-146049802D01*
X169435656Y-146050000D01*
X168910000Y-146050000D01*
X168910000Y-153264600D01*
X168889716Y-153340300D01*
X168834300Y-153395716D01*
X168758600Y-153416000D01*
X167029400Y-153416000D01*
X166953700Y-153395716D01*
X166898284Y-153340300D01*
X166878000Y-153264600D01*
X166878000Y-146050000D01*
X166352344Y-146050000D01*
X166346871Y-146049802D01*
X166342707Y-146049500D01*
X166342706Y-146049500D01*
X164365294Y-146049500D01*
X164365292Y-146049500D01*
X164361129Y-146049802D01*
X164355656Y-146050000D01*
X163812344Y-146050000D01*
X163806871Y-146049802D01*
X163802707Y-146049500D01*
X163802706Y-146049500D01*
X161825294Y-146049500D01*
X161825292Y-146049500D01*
X161821129Y-146049802D01*
X161815656Y-146050000D01*
X161272344Y-146050000D01*
X161266871Y-146049802D01*
X161262707Y-146049500D01*
X161262706Y-146049500D01*
X159285294Y-146049500D01*
X159285292Y-146049500D01*
X159281129Y-146049802D01*
X159275656Y-146050000D01*
X158732344Y-146050000D01*
X158726871Y-146049802D01*
X158722707Y-146049500D01*
X158722706Y-146049500D01*
X156745294Y-146049500D01*
X156745292Y-146049500D01*
X156741129Y-146049802D01*
X156735656Y-146050000D01*
X156192344Y-146050000D01*
X156186871Y-146049802D01*
X156182707Y-146049500D01*
X156182706Y-146049500D01*
X154205294Y-146049500D01*
X154205292Y-146049500D01*
X154201129Y-146049802D01*
X154195656Y-146050000D01*
X153652344Y-146050000D01*
X153646871Y-146049802D01*
X153642707Y-146049500D01*
X153642706Y-146049500D01*
X151665294Y-146049500D01*
X151665292Y-146049500D01*
X151661129Y-146049802D01*
X151655656Y-146050000D01*
X151112344Y-146050000D01*
X151106871Y-146049802D01*
X151102707Y-146049500D01*
X151102706Y-146049500D01*
X149125294Y-146049500D01*
X149125292Y-146049500D01*
X149121129Y-146049802D01*
X149115656Y-146050000D01*
X148572344Y-146050000D01*
X148566871Y-146049802D01*
X148562707Y-146049500D01*
X148562706Y-146049500D01*
X146585294Y-146049500D01*
X146585292Y-146049500D01*
X146581129Y-146049802D01*
X146575656Y-146050000D01*
X146032344Y-146050000D01*
X146026871Y-146049802D01*
X146022707Y-146049500D01*
X146022706Y-146049500D01*
X144045294Y-146049500D01*
X144045292Y-146049500D01*
X144041129Y-146049802D01*
X144035656Y-146050000D01*
X143492344Y-146050000D01*
X143486871Y-146049802D01*
X143482707Y-146049500D01*
X143482706Y-146049500D01*
X141505294Y-146049500D01*
X141505292Y-146049500D01*
X141501129Y-146049802D01*
X141495656Y-146050000D01*
X140952344Y-146050000D01*
X140946871Y-146049802D01*
X140942707Y-146049500D01*
X140942706Y-146049500D01*
X138965294Y-146049500D01*
X138965292Y-146049500D01*
X138961129Y-146049802D01*
X138955656Y-146050000D01*
X138412344Y-146050000D01*
X138406871Y-146049802D01*
X138402707Y-146049500D01*
X138402706Y-146049500D01*
X136425294Y-146049500D01*
X136425292Y-146049500D01*
X136421129Y-146049802D01*
X136415656Y-146050000D01*
X135872344Y-146050000D01*
X135866871Y-146049802D01*
X135862707Y-146049500D01*
X135862706Y-146049500D01*
X133885294Y-146049500D01*
X133885292Y-146049500D01*
X133881129Y-146049802D01*
X133875656Y-146050000D01*
X133332344Y-146050000D01*
X133326871Y-146049802D01*
X133322707Y-146049500D01*
X133322706Y-146049500D01*
X131345294Y-146049500D01*
X131345292Y-146049500D01*
X131341129Y-146049802D01*
X131335656Y-146050000D01*
X130792344Y-146050000D01*
X130786871Y-146049802D01*
X130782707Y-146049500D01*
X130782706Y-146049500D01*
X128805294Y-146049500D01*
X128805292Y-146049500D01*
X128801129Y-146049802D01*
X128795656Y-146050000D01*
X128252344Y-146050000D01*
X128246871Y-146049802D01*
X128242707Y-146049500D01*
X128242706Y-146049500D01*
X126265294Y-146049500D01*
X126265292Y-146049500D01*
X126261129Y-146049802D01*
X126255656Y-146050000D01*
X125712344Y-146050000D01*
X125706871Y-146049802D01*
X125702707Y-146049500D01*
X125702706Y-146049500D01*
X123725294Y-146049500D01*
X123725292Y-146049500D01*
X123721129Y-146049802D01*
X123715656Y-146050000D01*
X123172344Y-146050000D01*
X123166871Y-146049802D01*
X123162707Y-146049500D01*
X123162706Y-146049500D01*
X121185294Y-146049500D01*
X121185292Y-146049500D01*
X121181129Y-146049802D01*
X121175656Y-146050000D01*
X120632344Y-146050000D01*
X120626871Y-146049802D01*
X120622707Y-146049500D01*
X120622706Y-146049500D01*
X118645294Y-146049500D01*
X118645292Y-146049500D01*
X118641129Y-146049802D01*
X118635656Y-146050000D01*
X118092344Y-146050000D01*
X118086871Y-146049802D01*
X118082707Y-146049500D01*
X118082706Y-146049500D01*
X116105294Y-146049500D01*
X116105292Y-146049500D01*
X116101129Y-146049802D01*
X116095656Y-146050000D01*
X115552344Y-146050000D01*
X115546871Y-146049802D01*
X115542707Y-146049500D01*
X115542706Y-146049500D01*
X113565294Y-146049500D01*
X113565292Y-146049500D01*
X113561129Y-146049802D01*
X113555656Y-146050000D01*
X112319947Y-146050000D01*
X112244247Y-146029716D01*
X112188831Y-145974300D01*
X112168547Y-145898600D01*
X112168558Y-145896771D01*
X112224356Y-141279563D01*
X112268000Y-137668000D01*
X111836333Y-136114000D01*
X127666760Y-136114000D01*
X127674856Y-136201375D01*
X127685681Y-136318188D01*
X127685682Y-136318196D01*
X127727215Y-136464167D01*
X127741800Y-136515426D01*
X127833205Y-136698992D01*
X127956784Y-136862638D01*
X128108328Y-137000789D01*
X128282678Y-137108741D01*
X128473895Y-137182819D01*
X128675468Y-137220500D01*
X128675472Y-137220500D01*
X128880528Y-137220500D01*
X128880532Y-137220500D01*
X129082105Y-137182819D01*
X129273322Y-137108741D01*
X129447672Y-137000789D01*
X129599216Y-136862638D01*
X129722795Y-136698992D01*
X129814200Y-136515426D01*
X129870319Y-136318190D01*
X129889240Y-136114000D01*
X130206760Y-136114000D01*
X130214856Y-136201375D01*
X130225681Y-136318188D01*
X130225682Y-136318196D01*
X130267215Y-136464167D01*
X130281800Y-136515426D01*
X130373205Y-136698992D01*
X130496784Y-136862638D01*
X130648328Y-137000789D01*
X130822678Y-137108741D01*
X131013895Y-137182819D01*
X131215468Y-137220500D01*
X131215472Y-137220500D01*
X131420528Y-137220500D01*
X131420532Y-137220500D01*
X131622105Y-137182819D01*
X131813322Y-137108741D01*
X131987672Y-137000789D01*
X132139216Y-136862638D01*
X132262795Y-136698992D01*
X132354200Y-136515426D01*
X132410319Y-136318190D01*
X132429240Y-136114000D01*
X132746760Y-136114000D01*
X132754856Y-136201375D01*
X132765681Y-136318188D01*
X132765682Y-136318196D01*
X132807215Y-136464167D01*
X132821800Y-136515426D01*
X132913205Y-136698992D01*
X133036784Y-136862638D01*
X133188328Y-137000789D01*
X133362678Y-137108741D01*
X133553895Y-137182819D01*
X133755468Y-137220500D01*
X133755472Y-137220500D01*
X133960528Y-137220500D01*
X133960532Y-137220500D01*
X134162105Y-137182819D01*
X134353322Y-137108741D01*
X134527672Y-137000789D01*
X134679216Y-136862638D01*
X134802795Y-136698992D01*
X134894200Y-136515426D01*
X134950319Y-136318190D01*
X134969240Y-136114000D01*
X135286760Y-136114000D01*
X135294856Y-136201375D01*
X135305681Y-136318188D01*
X135305682Y-136318196D01*
X135347215Y-136464167D01*
X135361800Y-136515426D01*
X135453205Y-136698992D01*
X135576784Y-136862638D01*
X135728328Y-137000789D01*
X135902678Y-137108741D01*
X136093895Y-137182819D01*
X136295468Y-137220500D01*
X136295472Y-137220500D01*
X136500528Y-137220500D01*
X136500532Y-137220500D01*
X136702105Y-137182819D01*
X136893322Y-137108741D01*
X137067672Y-137000789D01*
X137219216Y-136862638D01*
X137342795Y-136698992D01*
X137434200Y-136515426D01*
X137490319Y-136318190D01*
X137509240Y-136114000D01*
X137826760Y-136114000D01*
X137834856Y-136201375D01*
X137845681Y-136318188D01*
X137845682Y-136318196D01*
X137887215Y-136464167D01*
X137901800Y-136515426D01*
X137993205Y-136698992D01*
X138116784Y-136862638D01*
X138268328Y-137000789D01*
X138442678Y-137108741D01*
X138633895Y-137182819D01*
X138835468Y-137220500D01*
X138835472Y-137220500D01*
X139040528Y-137220500D01*
X139040532Y-137220500D01*
X139242105Y-137182819D01*
X139433322Y-137108741D01*
X139607672Y-137000789D01*
X139759216Y-136862638D01*
X139882795Y-136698992D01*
X139974200Y-136515426D01*
X140030319Y-136318190D01*
X140049240Y-136114000D01*
X140366760Y-136114000D01*
X140374856Y-136201375D01*
X140385681Y-136318188D01*
X140385682Y-136318196D01*
X140427215Y-136464167D01*
X140441800Y-136515426D01*
X140533205Y-136698992D01*
X140656784Y-136862638D01*
X140808328Y-137000789D01*
X140982678Y-137108741D01*
X141173895Y-137182819D01*
X141375468Y-137220500D01*
X141375472Y-137220500D01*
X141580528Y-137220500D01*
X141580532Y-137220500D01*
X141782105Y-137182819D01*
X141973322Y-137108741D01*
X142147672Y-137000789D01*
X142299216Y-136862638D01*
X142422795Y-136698992D01*
X142514200Y-136515426D01*
X142570319Y-136318190D01*
X142589240Y-136114000D01*
X142906760Y-136114000D01*
X142914856Y-136201375D01*
X142925681Y-136318188D01*
X142925682Y-136318196D01*
X142967215Y-136464167D01*
X142981800Y-136515426D01*
X143073205Y-136698992D01*
X143196784Y-136862638D01*
X143348328Y-137000789D01*
X143522678Y-137108741D01*
X143713895Y-137182819D01*
X143915468Y-137220500D01*
X143915472Y-137220500D01*
X144120528Y-137220500D01*
X144120532Y-137220500D01*
X144322105Y-137182819D01*
X144513322Y-137108741D01*
X144687672Y-137000789D01*
X144839216Y-136862638D01*
X144962795Y-136698992D01*
X145054200Y-136515426D01*
X145110319Y-136318190D01*
X145129240Y-136114000D01*
X145110319Y-135909810D01*
X145054200Y-135712574D01*
X144962795Y-135529008D01*
X144839216Y-135365362D01*
X144818017Y-135346036D01*
X144687671Y-135227210D01*
X144577779Y-135159169D01*
X144513322Y-135119259D01*
X144513320Y-135119258D01*
X144322109Y-135045182D01*
X144322103Y-135045180D01*
X144120532Y-135007500D01*
X143915468Y-135007500D01*
X143915467Y-135007500D01*
X143713896Y-135045180D01*
X143713890Y-135045182D01*
X143522679Y-135119258D01*
X143348328Y-135227210D01*
X143196784Y-135365361D01*
X143073204Y-135529009D01*
X142981800Y-135712573D01*
X142981798Y-135712579D01*
X142925682Y-135909803D01*
X142925681Y-135909809D01*
X142925681Y-135909810D01*
X142920275Y-135968148D01*
X142910384Y-136074895D01*
X142906760Y-136114000D01*
X142589240Y-136114000D01*
X142570319Y-135909810D01*
X142514200Y-135712574D01*
X142422795Y-135529008D01*
X142299216Y-135365362D01*
X142278017Y-135346036D01*
X142147671Y-135227210D01*
X142037779Y-135159169D01*
X141973322Y-135119259D01*
X141973320Y-135119258D01*
X141782109Y-135045182D01*
X141782103Y-135045180D01*
X141580532Y-135007500D01*
X141375468Y-135007500D01*
X141375467Y-135007500D01*
X141173896Y-135045180D01*
X141173890Y-135045182D01*
X140982679Y-135119258D01*
X140808328Y-135227210D01*
X140656784Y-135365361D01*
X140533204Y-135529009D01*
X140441800Y-135712573D01*
X140441798Y-135712579D01*
X140385682Y-135909803D01*
X140385681Y-135909809D01*
X140385681Y-135909810D01*
X140380275Y-135968148D01*
X140370384Y-136074895D01*
X140366760Y-136114000D01*
X140049240Y-136114000D01*
X140030319Y-135909810D01*
X139974200Y-135712574D01*
X139882795Y-135529008D01*
X139759216Y-135365362D01*
X139738017Y-135346036D01*
X139607671Y-135227210D01*
X139497779Y-135159169D01*
X139433322Y-135119259D01*
X139433320Y-135119258D01*
X139242109Y-135045182D01*
X139242103Y-135045180D01*
X139040532Y-135007500D01*
X138835468Y-135007500D01*
X138835467Y-135007500D01*
X138633896Y-135045180D01*
X138633890Y-135045182D01*
X138442679Y-135119258D01*
X138268328Y-135227210D01*
X138116784Y-135365361D01*
X137993204Y-135529009D01*
X137901800Y-135712573D01*
X137901798Y-135712579D01*
X137845682Y-135909803D01*
X137845681Y-135909809D01*
X137845681Y-135909810D01*
X137840275Y-135968148D01*
X137830384Y-136074895D01*
X137826760Y-136114000D01*
X137509240Y-136114000D01*
X137490319Y-135909810D01*
X137434200Y-135712574D01*
X137342795Y-135529008D01*
X137219216Y-135365362D01*
X137198017Y-135346036D01*
X137067671Y-135227210D01*
X136957779Y-135159169D01*
X136893322Y-135119259D01*
X136893320Y-135119258D01*
X136702109Y-135045182D01*
X136702103Y-135045180D01*
X136500532Y-135007500D01*
X136295468Y-135007500D01*
X136295467Y-135007500D01*
X136093896Y-135045180D01*
X136093890Y-135045182D01*
X135902679Y-135119258D01*
X135728328Y-135227210D01*
X135576784Y-135365361D01*
X135453204Y-135529009D01*
X135361800Y-135712573D01*
X135361798Y-135712579D01*
X135305682Y-135909803D01*
X135305681Y-135909809D01*
X135305681Y-135909810D01*
X135300275Y-135968148D01*
X135290384Y-136074895D01*
X135286760Y-136114000D01*
X134969240Y-136114000D01*
X134950319Y-135909810D01*
X134894200Y-135712574D01*
X134802795Y-135529008D01*
X134679216Y-135365362D01*
X134658017Y-135346036D01*
X134527671Y-135227210D01*
X134417779Y-135159169D01*
X134353322Y-135119259D01*
X134353320Y-135119258D01*
X134162109Y-135045182D01*
X134162103Y-135045180D01*
X133960532Y-135007500D01*
X133755468Y-135007500D01*
X133755467Y-135007500D01*
X133553896Y-135045180D01*
X133553890Y-135045182D01*
X133362679Y-135119258D01*
X133188328Y-135227210D01*
X133036784Y-135365361D01*
X132913204Y-135529009D01*
X132821800Y-135712573D01*
X132821798Y-135712579D01*
X132765682Y-135909803D01*
X132765681Y-135909809D01*
X132765681Y-135909810D01*
X132760275Y-135968148D01*
X132750384Y-136074895D01*
X132746760Y-136114000D01*
X132429240Y-136114000D01*
X132410319Y-135909810D01*
X132354200Y-135712574D01*
X132262795Y-135529008D01*
X132139216Y-135365362D01*
X132118017Y-135346036D01*
X131987671Y-135227210D01*
X131877779Y-135159169D01*
X131813322Y-135119259D01*
X131813320Y-135119258D01*
X131622109Y-135045182D01*
X131622103Y-135045180D01*
X131420532Y-135007500D01*
X131215468Y-135007500D01*
X131215467Y-135007500D01*
X131013896Y-135045180D01*
X131013890Y-135045182D01*
X130822679Y-135119258D01*
X130648328Y-135227210D01*
X130496784Y-135365361D01*
X130373204Y-135529009D01*
X130281800Y-135712573D01*
X130281798Y-135712579D01*
X130225682Y-135909803D01*
X130225681Y-135909809D01*
X130225681Y-135909810D01*
X130220275Y-135968148D01*
X130210384Y-136074895D01*
X130206760Y-136114000D01*
X129889240Y-136114000D01*
X129870319Y-135909810D01*
X129814200Y-135712574D01*
X129722795Y-135529008D01*
X129599216Y-135365362D01*
X129578017Y-135346036D01*
X129447671Y-135227210D01*
X129337779Y-135159169D01*
X129273322Y-135119259D01*
X129273320Y-135119258D01*
X129082109Y-135045182D01*
X129082103Y-135045180D01*
X128880532Y-135007500D01*
X128675468Y-135007500D01*
X128675467Y-135007500D01*
X128473896Y-135045180D01*
X128473890Y-135045182D01*
X128282679Y-135119258D01*
X128108328Y-135227210D01*
X127956784Y-135365361D01*
X127833204Y-135529009D01*
X127741800Y-135712573D01*
X127741798Y-135712579D01*
X127685682Y-135909803D01*
X127685681Y-135909809D01*
X127685681Y-135909810D01*
X127680275Y-135968148D01*
X127670384Y-136074895D01*
X127666760Y-136114000D01*
X111836333Y-136114000D01*
X109733706Y-128544544D01*
X109728190Y-128502673D01*
X109735373Y-127698253D01*
X109982000Y-100076000D01*
X109750287Y-82234174D01*
X117876249Y-82234174D01*
X117876249Y-108336014D01*
X125309157Y-108336014D01*
X125309157Y-82234174D01*
X117876249Y-82234174D01*
X109750287Y-82234174D01*
X109729985Y-80670911D01*
X109749284Y-80594958D01*
X109803976Y-80538827D01*
X109879406Y-80517562D01*
X109880883Y-80517550D01*
X195937816Y-80264441D01*
X196013573Y-80284502D01*
G37*
%TD.AperFunction*%
%TA.AperFunction,Conductor*%
G36*
X167939839Y-90470184D02*
G01*
X167971195Y-90494244D01*
X169931956Y-92455005D01*
X169971141Y-92522876D01*
X169976300Y-92562061D01*
X169976300Y-118511939D01*
X169956016Y-118587639D01*
X169931956Y-118618995D01*
X167359602Y-121191349D01*
X167291731Y-121230534D01*
X167252546Y-121235693D01*
X149003529Y-121235693D01*
X148939295Y-121233499D01*
X148939294Y-121233499D01*
X148939292Y-121233499D01*
X148898366Y-121243472D01*
X148890750Y-121244919D01*
X148849009Y-121250657D01*
X148849006Y-121250658D01*
X148835485Y-121256531D01*
X148811027Y-121264755D01*
X148796704Y-121268245D01*
X148796698Y-121268248D01*
X148759977Y-121288895D01*
X148753034Y-121292343D01*
X148714393Y-121309128D01*
X148714391Y-121309130D01*
X148702950Y-121318437D01*
X148681621Y-121332953D01*
X148668776Y-121340176D01*
X148668768Y-121340181D01*
X148638980Y-121369969D01*
X148633224Y-121375163D01*
X148600544Y-121401751D01*
X148592044Y-121413793D01*
X148575413Y-121433536D01*
X139661763Y-130347186D01*
X139593892Y-130386371D01*
X139515522Y-130386371D01*
X139475009Y-130368855D01*
X139466904Y-130363837D01*
X139466890Y-130363830D01*
X139262722Y-130284735D01*
X139262714Y-130284733D01*
X139047484Y-130244500D01*
X139047482Y-130244500D01*
X138828518Y-130244500D01*
X138828515Y-130244500D01*
X138613285Y-130284733D01*
X138613276Y-130284735D01*
X138420792Y-130359304D01*
X138342876Y-130367736D01*
X138271183Y-130336081D01*
X138224924Y-130272820D01*
X138214700Y-130218128D01*
X138214700Y-117040619D01*
X140296500Y-117040619D01*
X140296501Y-117040644D01*
X140311640Y-117204027D01*
X140311642Y-117204036D01*
X140371562Y-117414630D01*
X140371564Y-117414636D01*
X140469165Y-117610645D01*
X140601114Y-117785375D01*
X140601116Y-117785377D01*
X140601120Y-117785382D01*
X140762937Y-117932897D01*
X140949104Y-118048167D01*
X141153282Y-118127266D01*
X141368518Y-118167500D01*
X141368522Y-118167500D01*
X141587478Y-118167500D01*
X141587482Y-118167500D01*
X141802718Y-118127266D01*
X142006896Y-118048167D01*
X142193063Y-117932897D01*
X142354880Y-117785382D01*
X142486835Y-117610644D01*
X142584436Y-117414636D01*
X142602380Y-117351571D01*
X142642605Y-117284312D01*
X142711072Y-117246177D01*
X142789433Y-117247384D01*
X142856692Y-117287609D01*
X142893620Y-117351571D01*
X142911562Y-117414630D01*
X142911564Y-117414636D01*
X143009165Y-117610645D01*
X143141114Y-117785375D01*
X143141116Y-117785377D01*
X143141120Y-117785382D01*
X143302937Y-117932897D01*
X143489104Y-118048167D01*
X143693282Y-118127266D01*
X143908518Y-118167500D01*
X143908522Y-118167500D01*
X144127478Y-118167500D01*
X144127482Y-118167500D01*
X144342718Y-118127266D01*
X144546896Y-118048167D01*
X144733063Y-117932897D01*
X144894880Y-117785382D01*
X145026835Y-117610644D01*
X145124436Y-117414636D01*
X145142380Y-117351571D01*
X145182605Y-117284312D01*
X145251072Y-117246177D01*
X145329433Y-117247384D01*
X145396692Y-117287609D01*
X145433620Y-117351571D01*
X145451562Y-117414630D01*
X145451564Y-117414636D01*
X145549165Y-117610645D01*
X145681114Y-117785375D01*
X145681116Y-117785377D01*
X145681120Y-117785382D01*
X145842937Y-117932897D01*
X146029104Y-118048167D01*
X146233282Y-118127266D01*
X146448518Y-118167500D01*
X146448522Y-118167500D01*
X146667478Y-118167500D01*
X146667482Y-118167500D01*
X146882718Y-118127266D01*
X147086896Y-118048167D01*
X147273063Y-117932897D01*
X147434880Y-117785382D01*
X147566835Y-117610644D01*
X147664436Y-117414636D01*
X147682380Y-117351571D01*
X147722605Y-117284312D01*
X147791072Y-117246177D01*
X147869433Y-117247384D01*
X147936692Y-117287609D01*
X147973620Y-117351571D01*
X147991562Y-117414630D01*
X147991564Y-117414636D01*
X148089165Y-117610645D01*
X148221114Y-117785375D01*
X148221116Y-117785377D01*
X148221120Y-117785382D01*
X148382937Y-117932897D01*
X148569104Y-118048167D01*
X148773282Y-118127266D01*
X148988518Y-118167500D01*
X148988522Y-118167500D01*
X149207478Y-118167500D01*
X149207482Y-118167500D01*
X149422718Y-118127266D01*
X149626896Y-118048167D01*
X149813063Y-117932897D01*
X149974880Y-117785382D01*
X150106835Y-117610644D01*
X150204436Y-117414636D01*
X150222380Y-117351571D01*
X150262605Y-117284312D01*
X150331072Y-117246177D01*
X150409433Y-117247384D01*
X150476692Y-117287609D01*
X150513620Y-117351571D01*
X150531562Y-117414630D01*
X150531564Y-117414636D01*
X150629165Y-117610645D01*
X150761114Y-117785375D01*
X150761116Y-117785377D01*
X150761120Y-117785382D01*
X150922937Y-117932897D01*
X151109104Y-118048167D01*
X151313282Y-118127266D01*
X151528518Y-118167500D01*
X151528522Y-118167500D01*
X151747478Y-118167500D01*
X151747482Y-118167500D01*
X151962718Y-118127266D01*
X152166896Y-118048167D01*
X152353063Y-117932897D01*
X152514880Y-117785382D01*
X152646835Y-117610644D01*
X152744436Y-117414636D01*
X152762380Y-117351571D01*
X152802605Y-117284312D01*
X152871072Y-117246177D01*
X152949433Y-117247384D01*
X153016692Y-117287609D01*
X153053620Y-117351571D01*
X153071562Y-117414630D01*
X153071564Y-117414636D01*
X153169165Y-117610645D01*
X153301114Y-117785375D01*
X153301116Y-117785377D01*
X153301120Y-117785382D01*
X153462937Y-117932897D01*
X153649104Y-118048167D01*
X153853282Y-118127266D01*
X154068518Y-118167500D01*
X154068522Y-118167500D01*
X154287478Y-118167500D01*
X154287482Y-118167500D01*
X154502718Y-118127266D01*
X154706896Y-118048167D01*
X154893063Y-117932897D01*
X155054880Y-117785382D01*
X155186835Y-117610644D01*
X155284436Y-117414636D01*
X155302380Y-117351571D01*
X155342605Y-117284312D01*
X155411072Y-117246177D01*
X155489433Y-117247384D01*
X155556692Y-117287609D01*
X155593620Y-117351571D01*
X155611562Y-117414630D01*
X155611564Y-117414636D01*
X155709165Y-117610645D01*
X155841114Y-117785375D01*
X155841116Y-117785377D01*
X155841120Y-117785382D01*
X156002937Y-117932897D01*
X156189104Y-118048167D01*
X156393282Y-118127266D01*
X156608518Y-118167500D01*
X156608522Y-118167500D01*
X156827478Y-118167500D01*
X156827482Y-118167500D01*
X157042718Y-118127266D01*
X157246896Y-118048167D01*
X157433063Y-117932897D01*
X157594880Y-117785382D01*
X157726835Y-117610644D01*
X157824436Y-117414636D01*
X157842380Y-117351571D01*
X157882605Y-117284312D01*
X157951072Y-117246177D01*
X158029433Y-117247384D01*
X158096692Y-117287609D01*
X158133620Y-117351571D01*
X158151562Y-117414630D01*
X158151564Y-117414636D01*
X158249165Y-117610645D01*
X158381114Y-117785375D01*
X158381116Y-117785377D01*
X158381120Y-117785382D01*
X158542937Y-117932897D01*
X158729104Y-118048167D01*
X158933282Y-118127266D01*
X159148518Y-118167500D01*
X159148522Y-118167500D01*
X159367478Y-118167500D01*
X159367482Y-118167500D01*
X159582718Y-118127266D01*
X159786896Y-118048167D01*
X159973063Y-117932897D01*
X160134880Y-117785382D01*
X160266835Y-117610644D01*
X160364436Y-117414636D01*
X160382380Y-117351571D01*
X160422605Y-117284312D01*
X160491072Y-117246177D01*
X160569433Y-117247384D01*
X160636692Y-117287609D01*
X160673620Y-117351571D01*
X160691562Y-117414630D01*
X160691564Y-117414636D01*
X160789165Y-117610645D01*
X160921114Y-117785375D01*
X160921116Y-117785377D01*
X160921120Y-117785382D01*
X161082937Y-117932897D01*
X161269104Y-118048167D01*
X161473282Y-118127266D01*
X161688518Y-118167500D01*
X161688522Y-118167500D01*
X161907478Y-118167500D01*
X161907482Y-118167500D01*
X162122718Y-118127266D01*
X162326896Y-118048167D01*
X162513063Y-117932897D01*
X162674880Y-117785382D01*
X162806835Y-117610644D01*
X162904436Y-117414636D01*
X162922380Y-117351571D01*
X162962605Y-117284312D01*
X163031072Y-117246177D01*
X163109433Y-117247384D01*
X163176692Y-117287609D01*
X163213620Y-117351571D01*
X163231562Y-117414630D01*
X163231564Y-117414636D01*
X163329165Y-117610645D01*
X163461114Y-117785375D01*
X163461116Y-117785377D01*
X163461120Y-117785382D01*
X163622937Y-117932897D01*
X163809104Y-118048167D01*
X164013282Y-118127266D01*
X164228518Y-118167500D01*
X164228522Y-118167500D01*
X164447478Y-118167500D01*
X164447482Y-118167500D01*
X164662718Y-118127266D01*
X164866896Y-118048167D01*
X165053063Y-117932897D01*
X165214880Y-117785382D01*
X165346835Y-117610644D01*
X165409573Y-117484649D01*
X165461472Y-117425929D01*
X165535780Y-117401023D01*
X165612585Y-117416608D01*
X165671307Y-117468508D01*
X165696213Y-117542816D01*
X165696500Y-117552136D01*
X165696500Y-117822209D01*
X165707303Y-117896357D01*
X165707304Y-117896361D01*
X165763224Y-118010746D01*
X165853254Y-118100776D01*
X165967639Y-118156696D01*
X166041794Y-118167500D01*
X166041795Y-118167500D01*
X167714205Y-118167500D01*
X167714206Y-118167500D01*
X167788361Y-118156696D01*
X167902746Y-118100776D01*
X167992776Y-118010746D01*
X168048696Y-117896361D01*
X168059500Y-117822206D01*
X168059500Y-115349794D01*
X168048696Y-115275639D01*
X167992776Y-115161254D01*
X167902746Y-115071224D01*
X167788361Y-115015304D01*
X167788359Y-115015303D01*
X167788357Y-115015303D01*
X167714209Y-115004500D01*
X167714206Y-115004500D01*
X166041794Y-115004500D01*
X166041790Y-115004500D01*
X165967642Y-115015303D01*
X165967639Y-115015304D01*
X165853253Y-115071224D01*
X165763224Y-115161253D01*
X165707304Y-115275639D01*
X165707303Y-115275642D01*
X165696500Y-115349790D01*
X165696500Y-115619863D01*
X165676216Y-115695563D01*
X165620800Y-115750979D01*
X165545100Y-115771263D01*
X165469400Y-115750979D01*
X165413984Y-115695563D01*
X165409572Y-115687348D01*
X165346834Y-115561354D01*
X165214885Y-115386624D01*
X165214883Y-115386622D01*
X165214880Y-115386618D01*
X165053063Y-115239103D01*
X164869944Y-115125720D01*
X164866898Y-115123834D01*
X164866890Y-115123830D01*
X164662722Y-115044735D01*
X164662714Y-115044733D01*
X164447484Y-115004500D01*
X164447482Y-115004500D01*
X164228518Y-115004500D01*
X164228515Y-115004500D01*
X164013285Y-115044733D01*
X164013277Y-115044735D01*
X163809109Y-115123830D01*
X163809101Y-115123834D01*
X163622935Y-115239104D01*
X163461118Y-115386620D01*
X163461114Y-115386624D01*
X163329165Y-115561354D01*
X163231564Y-115757363D01*
X163231561Y-115757369D01*
X163213620Y-115820428D01*
X163173394Y-115887687D01*
X163104928Y-115925822D01*
X163026567Y-115924615D01*
X162959308Y-115884389D01*
X162922380Y-115820428D01*
X162904438Y-115757369D01*
X162904436Y-115757364D01*
X162806835Y-115561356D01*
X162806834Y-115561355D01*
X162806834Y-115561354D01*
X162674885Y-115386624D01*
X162674883Y-115386622D01*
X162674880Y-115386618D01*
X162513063Y-115239103D01*
X162329944Y-115125720D01*
X162326898Y-115123834D01*
X162326890Y-115123830D01*
X162122722Y-115044735D01*
X162122714Y-115044733D01*
X161907484Y-115004500D01*
X161907482Y-115004500D01*
X161688518Y-115004500D01*
X161688515Y-115004500D01*
X161473285Y-115044733D01*
X161473277Y-115044735D01*
X161269109Y-115123830D01*
X161269101Y-115123834D01*
X161082935Y-115239104D01*
X160921118Y-115386620D01*
X160921114Y-115386624D01*
X160789165Y-115561354D01*
X160691564Y-115757363D01*
X160691561Y-115757369D01*
X160673620Y-115820428D01*
X160633394Y-115887687D01*
X160564928Y-115925822D01*
X160486567Y-115924615D01*
X160419308Y-115884389D01*
X160382380Y-115820428D01*
X160364438Y-115757369D01*
X160364436Y-115757364D01*
X160266835Y-115561356D01*
X160266834Y-115561355D01*
X160266834Y-115561354D01*
X160134885Y-115386624D01*
X160134883Y-115386622D01*
X160134880Y-115386618D01*
X159973063Y-115239103D01*
X159789944Y-115125720D01*
X159786898Y-115123834D01*
X159786890Y-115123830D01*
X159582722Y-115044735D01*
X159582714Y-115044733D01*
X159367484Y-115004500D01*
X159367482Y-115004500D01*
X159148518Y-115004500D01*
X159148515Y-115004500D01*
X158933285Y-115044733D01*
X158933277Y-115044735D01*
X158729109Y-115123830D01*
X158729101Y-115123834D01*
X158542935Y-115239104D01*
X158381118Y-115386620D01*
X158381114Y-115386624D01*
X158249165Y-115561354D01*
X158151564Y-115757363D01*
X158151561Y-115757369D01*
X158133620Y-115820428D01*
X158093394Y-115887687D01*
X158024928Y-115925822D01*
X157946567Y-115924615D01*
X157879308Y-115884389D01*
X157842380Y-115820428D01*
X157824438Y-115757369D01*
X157824436Y-115757364D01*
X157726835Y-115561356D01*
X157726834Y-115561355D01*
X157726834Y-115561354D01*
X157594885Y-115386624D01*
X157594883Y-115386622D01*
X157594880Y-115386618D01*
X157433063Y-115239103D01*
X157249944Y-115125720D01*
X157246898Y-115123834D01*
X157246890Y-115123830D01*
X157042722Y-115044735D01*
X157042714Y-115044733D01*
X156827484Y-115004500D01*
X156827482Y-115004500D01*
X156608518Y-115004500D01*
X156608515Y-115004500D01*
X156393285Y-115044733D01*
X156393277Y-115044735D01*
X156189109Y-115123830D01*
X156189101Y-115123834D01*
X156002935Y-115239104D01*
X155841118Y-115386620D01*
X155841114Y-115386624D01*
X155709165Y-115561354D01*
X155611564Y-115757363D01*
X155611561Y-115757369D01*
X155593620Y-115820428D01*
X155553394Y-115887687D01*
X155484928Y-115925822D01*
X155406567Y-115924615D01*
X155339308Y-115884389D01*
X155302380Y-115820428D01*
X155284438Y-115757369D01*
X155284436Y-115757364D01*
X155186835Y-115561356D01*
X155186834Y-115561355D01*
X155186834Y-115561354D01*
X155054885Y-115386624D01*
X155054883Y-115386622D01*
X155054880Y-115386618D01*
X154893063Y-115239103D01*
X154709944Y-115125720D01*
X154706898Y-115123834D01*
X154706890Y-115123830D01*
X154502722Y-115044735D01*
X154502714Y-115044733D01*
X154287484Y-115004500D01*
X154287482Y-115004500D01*
X154068518Y-115004500D01*
X154068515Y-115004500D01*
X153853285Y-115044733D01*
X153853277Y-115044735D01*
X153649109Y-115123830D01*
X153649101Y-115123834D01*
X153462935Y-115239104D01*
X153301118Y-115386620D01*
X153301114Y-115386624D01*
X153169165Y-115561354D01*
X153071564Y-115757363D01*
X153071561Y-115757369D01*
X153053620Y-115820428D01*
X153013394Y-115887687D01*
X152944928Y-115925822D01*
X152866567Y-115924615D01*
X152799308Y-115884389D01*
X152762380Y-115820428D01*
X152744438Y-115757369D01*
X152744436Y-115757364D01*
X152646835Y-115561356D01*
X152646834Y-115561355D01*
X152646834Y-115561354D01*
X152514885Y-115386624D01*
X152514883Y-115386622D01*
X152514880Y-115386618D01*
X152353063Y-115239103D01*
X152169944Y-115125720D01*
X152166898Y-115123834D01*
X152166890Y-115123830D01*
X151962722Y-115044735D01*
X151962714Y-115044733D01*
X151747484Y-115004500D01*
X151747482Y-115004500D01*
X151528518Y-115004500D01*
X151528515Y-115004500D01*
X151313285Y-115044733D01*
X151313277Y-115044735D01*
X151109109Y-115123830D01*
X151109101Y-115123834D01*
X150922935Y-115239104D01*
X150761118Y-115386620D01*
X150761114Y-115386624D01*
X150629165Y-115561354D01*
X150531564Y-115757363D01*
X150531561Y-115757369D01*
X150513620Y-115820428D01*
X150473394Y-115887687D01*
X150404928Y-115925822D01*
X150326567Y-115924615D01*
X150259308Y-115884389D01*
X150222380Y-115820428D01*
X150204438Y-115757369D01*
X150204436Y-115757364D01*
X150106835Y-115561356D01*
X150106834Y-115561355D01*
X150106834Y-115561354D01*
X149974885Y-115386624D01*
X149974883Y-115386622D01*
X149974880Y-115386618D01*
X149813063Y-115239103D01*
X149629944Y-115125720D01*
X149626898Y-115123834D01*
X149626890Y-115123830D01*
X149422722Y-115044735D01*
X149422714Y-115044733D01*
X149207484Y-115004500D01*
X149207482Y-115004500D01*
X148988518Y-115004500D01*
X148988515Y-115004500D01*
X148773285Y-115044733D01*
X148773277Y-115044735D01*
X148569109Y-115123830D01*
X148569101Y-115123834D01*
X148382935Y-115239104D01*
X148221118Y-115386620D01*
X148221114Y-115386624D01*
X148089165Y-115561354D01*
X147991564Y-115757363D01*
X147991561Y-115757369D01*
X147973620Y-115820428D01*
X147933394Y-115887687D01*
X147864928Y-115925822D01*
X147786567Y-115924615D01*
X147719308Y-115884389D01*
X147682380Y-115820428D01*
X147664438Y-115757369D01*
X147664436Y-115757364D01*
X147566835Y-115561356D01*
X147566834Y-115561355D01*
X147566834Y-115561354D01*
X147434885Y-115386624D01*
X147434883Y-115386622D01*
X147434880Y-115386618D01*
X147273063Y-115239103D01*
X147089944Y-115125720D01*
X147086898Y-115123834D01*
X147086890Y-115123830D01*
X146882722Y-115044735D01*
X146882714Y-115044733D01*
X146667484Y-115004500D01*
X146667482Y-115004500D01*
X146448518Y-115004500D01*
X146448515Y-115004500D01*
X146233285Y-115044733D01*
X146233277Y-115044735D01*
X146029109Y-115123830D01*
X146029101Y-115123834D01*
X145842935Y-115239104D01*
X145681118Y-115386620D01*
X145681114Y-115386624D01*
X145549165Y-115561354D01*
X145451564Y-115757363D01*
X145451561Y-115757369D01*
X145433620Y-115820428D01*
X145393394Y-115887687D01*
X145324928Y-115925822D01*
X145246567Y-115924615D01*
X145179308Y-115884389D01*
X145142380Y-115820428D01*
X145124438Y-115757369D01*
X145124436Y-115757364D01*
X145026835Y-115561356D01*
X145026834Y-115561355D01*
X145026834Y-115561354D01*
X144894885Y-115386624D01*
X144894883Y-115386622D01*
X144894880Y-115386618D01*
X144733063Y-115239103D01*
X144549944Y-115125720D01*
X144546898Y-115123834D01*
X144546890Y-115123830D01*
X144342722Y-115044735D01*
X144342714Y-115044733D01*
X144127484Y-115004500D01*
X144127482Y-115004500D01*
X143908518Y-115004500D01*
X143908515Y-115004500D01*
X143693285Y-115044733D01*
X143693277Y-115044735D01*
X143489109Y-115123830D01*
X143489101Y-115123834D01*
X143302935Y-115239104D01*
X143141118Y-115386620D01*
X143141114Y-115386624D01*
X143009165Y-115561354D01*
X142911564Y-115757363D01*
X142911561Y-115757369D01*
X142893620Y-115820428D01*
X142853394Y-115887687D01*
X142784928Y-115925822D01*
X142706567Y-115924615D01*
X142639308Y-115884389D01*
X142602380Y-115820428D01*
X142584438Y-115757369D01*
X142584436Y-115757364D01*
X142486835Y-115561356D01*
X142486834Y-115561355D01*
X142486834Y-115561354D01*
X142354885Y-115386624D01*
X142354883Y-115386622D01*
X142354880Y-115386618D01*
X142193063Y-115239103D01*
X142009944Y-115125720D01*
X142006898Y-115123834D01*
X142006890Y-115123830D01*
X141802722Y-115044735D01*
X141802714Y-115044733D01*
X141587484Y-115004500D01*
X141587482Y-115004500D01*
X141368518Y-115004500D01*
X141368515Y-115004500D01*
X141153285Y-115044733D01*
X141153277Y-115044735D01*
X140949109Y-115123830D01*
X140949101Y-115123834D01*
X140762935Y-115239104D01*
X140601118Y-115386620D01*
X140601114Y-115386624D01*
X140469165Y-115561354D01*
X140371564Y-115757363D01*
X140371562Y-115757369D01*
X140311642Y-115967963D01*
X140311640Y-115967972D01*
X140296501Y-116131355D01*
X140296500Y-116131380D01*
X140296500Y-117040619D01*
X138214700Y-117040619D01*
X138214700Y-111789209D01*
X139609500Y-111789209D01*
X139613680Y-111817897D01*
X139620304Y-111863361D01*
X139676224Y-111977746D01*
X139766254Y-112067776D01*
X139880639Y-112123696D01*
X139954794Y-112134500D01*
X139954795Y-112134500D01*
X141477205Y-112134500D01*
X141477206Y-112134500D01*
X141551361Y-112123696D01*
X141665746Y-112067776D01*
X141755776Y-111977746D01*
X141811696Y-111863361D01*
X141822500Y-111789206D01*
X141822500Y-111028000D01*
X142144760Y-111028000D01*
X142156475Y-111154430D01*
X142163681Y-111232188D01*
X142163682Y-111232196D01*
X142219798Y-111429420D01*
X142219800Y-111429426D01*
X142311205Y-111612992D01*
X142434784Y-111776638D01*
X142586328Y-111914789D01*
X142760678Y-112022741D01*
X142951895Y-112096819D01*
X143153468Y-112134500D01*
X143153472Y-112134500D01*
X143358528Y-112134500D01*
X143358532Y-112134500D01*
X143560105Y-112096819D01*
X143751322Y-112022741D01*
X143925672Y-111914789D01*
X144077216Y-111776638D01*
X144200795Y-111612992D01*
X144292200Y-111429426D01*
X144348319Y-111232190D01*
X144367240Y-111028000D01*
X144684760Y-111028000D01*
X144696475Y-111154430D01*
X144703681Y-111232188D01*
X144703682Y-111232196D01*
X144759798Y-111429420D01*
X144759800Y-111429426D01*
X144851205Y-111612992D01*
X144974784Y-111776638D01*
X145126328Y-111914789D01*
X145300678Y-112022741D01*
X145491895Y-112096819D01*
X145693468Y-112134500D01*
X145693472Y-112134500D01*
X145898528Y-112134500D01*
X145898532Y-112134500D01*
X146100105Y-112096819D01*
X146291322Y-112022741D01*
X146465672Y-111914789D01*
X146617216Y-111776638D01*
X146740795Y-111612992D01*
X146832200Y-111429426D01*
X146888319Y-111232190D01*
X146907240Y-111028000D01*
X147224760Y-111028000D01*
X147236475Y-111154430D01*
X147243681Y-111232188D01*
X147243682Y-111232196D01*
X147299798Y-111429420D01*
X147299800Y-111429426D01*
X147391205Y-111612992D01*
X147514784Y-111776638D01*
X147666328Y-111914789D01*
X147840678Y-112022741D01*
X148031895Y-112096819D01*
X148233468Y-112134500D01*
X148233472Y-112134500D01*
X148438528Y-112134500D01*
X148438532Y-112134500D01*
X148640105Y-112096819D01*
X148831322Y-112022741D01*
X149005672Y-111914789D01*
X149157216Y-111776638D01*
X149280795Y-111612992D01*
X149372200Y-111429426D01*
X149428319Y-111232190D01*
X149447240Y-111028000D01*
X149764760Y-111028000D01*
X149776475Y-111154430D01*
X149783681Y-111232188D01*
X149783682Y-111232196D01*
X149839798Y-111429420D01*
X149839800Y-111429426D01*
X149931205Y-111612992D01*
X150054784Y-111776638D01*
X150206328Y-111914789D01*
X150380678Y-112022741D01*
X150571895Y-112096819D01*
X150773468Y-112134500D01*
X150773472Y-112134500D01*
X150978528Y-112134500D01*
X150978532Y-112134500D01*
X151180105Y-112096819D01*
X151371322Y-112022741D01*
X151545672Y-111914789D01*
X151697216Y-111776638D01*
X151820795Y-111612992D01*
X151912200Y-111429426D01*
X151968319Y-111232190D01*
X151987240Y-111028000D01*
X152304760Y-111028000D01*
X152316475Y-111154430D01*
X152323681Y-111232188D01*
X152323682Y-111232196D01*
X152379798Y-111429420D01*
X152379800Y-111429426D01*
X152471205Y-111612992D01*
X152594784Y-111776638D01*
X152746328Y-111914789D01*
X152920678Y-112022741D01*
X153111895Y-112096819D01*
X153313468Y-112134500D01*
X153313472Y-112134500D01*
X153518528Y-112134500D01*
X153518532Y-112134500D01*
X153720105Y-112096819D01*
X153911322Y-112022741D01*
X154085672Y-111914789D01*
X154237216Y-111776638D01*
X154360795Y-111612992D01*
X154452200Y-111429426D01*
X154508319Y-111232190D01*
X154527240Y-111028000D01*
X154844760Y-111028000D01*
X154856475Y-111154430D01*
X154863681Y-111232188D01*
X154863682Y-111232196D01*
X154919798Y-111429420D01*
X154919800Y-111429426D01*
X155011205Y-111612992D01*
X155134784Y-111776638D01*
X155286328Y-111914789D01*
X155460678Y-112022741D01*
X155651895Y-112096819D01*
X155853468Y-112134500D01*
X155853472Y-112134500D01*
X156058528Y-112134500D01*
X156058532Y-112134500D01*
X156260105Y-112096819D01*
X156451322Y-112022741D01*
X156625672Y-111914789D01*
X156777216Y-111776638D01*
X156900795Y-111612992D01*
X156992200Y-111429426D01*
X157048319Y-111232190D01*
X157067240Y-111028000D01*
X157384760Y-111028000D01*
X157396475Y-111154430D01*
X157403681Y-111232188D01*
X157403682Y-111232196D01*
X157459798Y-111429420D01*
X157459800Y-111429426D01*
X157551205Y-111612992D01*
X157674784Y-111776638D01*
X157826328Y-111914789D01*
X158000678Y-112022741D01*
X158191895Y-112096819D01*
X158393468Y-112134500D01*
X158393472Y-112134500D01*
X158598528Y-112134500D01*
X158598532Y-112134500D01*
X158800105Y-112096819D01*
X158991322Y-112022741D01*
X159165672Y-111914789D01*
X159317216Y-111776638D01*
X159440795Y-111612992D01*
X159532200Y-111429426D01*
X159588319Y-111232190D01*
X159607240Y-111028000D01*
X159604460Y-110998000D01*
X160546796Y-110998000D01*
X160565576Y-111212664D01*
X160621348Y-111420809D01*
X160686742Y-111561044D01*
X160712416Y-111616102D01*
X160836013Y-111792617D01*
X160988383Y-111944987D01*
X161164898Y-112068584D01*
X161360191Y-112159651D01*
X161360189Y-112159651D01*
X161568335Y-112215423D01*
X161568334Y-112215423D01*
X161585604Y-112216933D01*
X161783000Y-112234204D01*
X161997665Y-112215423D01*
X162205807Y-112159652D01*
X162401102Y-112068584D01*
X162577617Y-111944987D01*
X162729987Y-111792617D01*
X162853584Y-111616102D01*
X162915785Y-111482711D01*
X162966161Y-111422677D01*
X163039805Y-111395873D01*
X163116985Y-111409482D01*
X163177020Y-111459858D01*
X163190214Y-111482711D01*
X163252416Y-111616102D01*
X163376013Y-111792617D01*
X163528383Y-111944987D01*
X163704898Y-112068584D01*
X163900191Y-112159651D01*
X163900189Y-112159651D01*
X164108335Y-112215423D01*
X164108334Y-112215423D01*
X164125604Y-112216933D01*
X164323000Y-112234204D01*
X164537665Y-112215423D01*
X164745807Y-112159652D01*
X164941102Y-112068584D01*
X165117617Y-111944987D01*
X165269987Y-111792617D01*
X165356082Y-111669660D01*
X165416116Y-111619287D01*
X165493295Y-111605678D01*
X165566940Y-111632482D01*
X165617315Y-111692518D01*
X165631500Y-111756502D01*
X165631500Y-111884209D01*
X165640355Y-111944987D01*
X165642304Y-111958361D01*
X165698224Y-112072746D01*
X165788254Y-112162776D01*
X165902639Y-112218696D01*
X165976794Y-112229500D01*
X165976795Y-112229500D01*
X167749205Y-112229500D01*
X167749206Y-112229500D01*
X167823361Y-112218696D01*
X167937746Y-112162776D01*
X168027776Y-112072746D01*
X168083696Y-111958361D01*
X168094500Y-111884206D01*
X168094500Y-110111794D01*
X168083696Y-110037639D01*
X168027776Y-109923254D01*
X167937746Y-109833224D01*
X167823361Y-109777304D01*
X167823359Y-109777303D01*
X167823357Y-109777303D01*
X167749209Y-109766500D01*
X167749206Y-109766500D01*
X165976794Y-109766500D01*
X165976790Y-109766500D01*
X165902642Y-109777303D01*
X165902639Y-109777304D01*
X165788253Y-109833224D01*
X165698224Y-109923253D01*
X165642304Y-110037639D01*
X165642303Y-110037642D01*
X165631500Y-110111790D01*
X165631500Y-110239497D01*
X165611216Y-110315197D01*
X165555800Y-110370613D01*
X165480100Y-110390897D01*
X165404400Y-110370613D01*
X165356081Y-110326337D01*
X165269986Y-110203382D01*
X165117620Y-110051016D01*
X165117617Y-110051013D01*
X164941102Y-109927416D01*
X164941100Y-109927415D01*
X164745808Y-109836348D01*
X164745810Y-109836348D01*
X164537664Y-109780576D01*
X164537665Y-109780576D01*
X164323000Y-109761796D01*
X164108335Y-109780576D01*
X163900190Y-109836348D01*
X163704899Y-109927415D01*
X163659534Y-109959180D01*
X163553739Y-110033259D01*
X163528379Y-110051016D01*
X163376016Y-110203379D01*
X163252415Y-110379899D01*
X163190215Y-110513287D01*
X163139839Y-110573322D01*
X163066194Y-110600126D01*
X162989015Y-110586517D01*
X162928980Y-110536141D01*
X162915785Y-110513287D01*
X162882715Y-110442369D01*
X162853584Y-110379898D01*
X162729987Y-110203383D01*
X162577617Y-110051013D01*
X162401102Y-109927416D01*
X162401100Y-109927415D01*
X162205808Y-109836348D01*
X162205810Y-109836348D01*
X161997664Y-109780576D01*
X161997665Y-109780576D01*
X161783000Y-109761796D01*
X161568335Y-109780576D01*
X161360190Y-109836348D01*
X161164899Y-109927415D01*
X161119534Y-109959180D01*
X161013739Y-110033259D01*
X160988379Y-110051016D01*
X160836016Y-110203379D01*
X160712415Y-110379899D01*
X160621348Y-110575190D01*
X160565576Y-110783335D01*
X160546796Y-110998000D01*
X159604460Y-110998000D01*
X159588319Y-110823810D01*
X159532200Y-110626574D01*
X159440795Y-110443008D01*
X159317216Y-110279362D01*
X159165672Y-110141211D01*
X159165671Y-110141210D01*
X158991320Y-110033258D01*
X158800109Y-109959182D01*
X158800103Y-109959180D01*
X158598532Y-109921500D01*
X158393468Y-109921500D01*
X158393467Y-109921500D01*
X158191896Y-109959180D01*
X158191890Y-109959182D01*
X158000679Y-110033258D01*
X157826328Y-110141210D01*
X157674784Y-110279361D01*
X157551204Y-110443009D01*
X157459800Y-110626573D01*
X157459798Y-110626579D01*
X157403682Y-110823803D01*
X157403681Y-110823809D01*
X157403681Y-110823810D01*
X157384760Y-111028000D01*
X157067240Y-111028000D01*
X157048319Y-110823810D01*
X156992200Y-110626574D01*
X156900795Y-110443008D01*
X156777216Y-110279362D01*
X156625672Y-110141211D01*
X156625671Y-110141210D01*
X156451320Y-110033258D01*
X156260109Y-109959182D01*
X156260103Y-109959180D01*
X156058532Y-109921500D01*
X155853468Y-109921500D01*
X155853467Y-109921500D01*
X155651896Y-109959180D01*
X155651890Y-109959182D01*
X155460679Y-110033258D01*
X155286328Y-110141210D01*
X155134784Y-110279361D01*
X155011204Y-110443009D01*
X154919800Y-110626573D01*
X154919798Y-110626579D01*
X154863682Y-110823803D01*
X154863681Y-110823809D01*
X154863681Y-110823810D01*
X154844760Y-111028000D01*
X154527240Y-111028000D01*
X154508319Y-110823810D01*
X154452200Y-110626574D01*
X154360795Y-110443008D01*
X154237216Y-110279362D01*
X154085672Y-110141211D01*
X154085671Y-110141210D01*
X153911320Y-110033258D01*
X153720109Y-109959182D01*
X153720103Y-109959180D01*
X153518532Y-109921500D01*
X153313468Y-109921500D01*
X153313467Y-109921500D01*
X153111896Y-109959180D01*
X153111890Y-109959182D01*
X152920679Y-110033258D01*
X152746328Y-110141210D01*
X152594784Y-110279361D01*
X152471204Y-110443009D01*
X152379800Y-110626573D01*
X152379798Y-110626579D01*
X152323682Y-110823803D01*
X152323681Y-110823809D01*
X152323681Y-110823810D01*
X152304760Y-111028000D01*
X151987240Y-111028000D01*
X151968319Y-110823810D01*
X151912200Y-110626574D01*
X151820795Y-110443008D01*
X151697216Y-110279362D01*
X151545672Y-110141211D01*
X151545671Y-110141210D01*
X151371320Y-110033258D01*
X151180109Y-109959182D01*
X151180103Y-109959180D01*
X150978532Y-109921500D01*
X150773468Y-109921500D01*
X150773467Y-109921500D01*
X150571896Y-109959180D01*
X150571890Y-109959182D01*
X150380679Y-110033258D01*
X150206328Y-110141210D01*
X150054784Y-110279361D01*
X149931204Y-110443009D01*
X149839800Y-110626573D01*
X149839798Y-110626579D01*
X149783682Y-110823803D01*
X149783681Y-110823809D01*
X149783681Y-110823810D01*
X149764760Y-111028000D01*
X149447240Y-111028000D01*
X149428319Y-110823810D01*
X149372200Y-110626574D01*
X149280795Y-110443008D01*
X149157216Y-110279362D01*
X149005672Y-110141211D01*
X149005671Y-110141210D01*
X148831320Y-110033258D01*
X148640109Y-109959182D01*
X148640103Y-109959180D01*
X148438532Y-109921500D01*
X148233468Y-109921500D01*
X148233467Y-109921500D01*
X148031896Y-109959180D01*
X148031890Y-109959182D01*
X147840679Y-110033258D01*
X147666328Y-110141210D01*
X147514784Y-110279361D01*
X147391204Y-110443009D01*
X147299800Y-110626573D01*
X147299798Y-110626579D01*
X147243682Y-110823803D01*
X147243681Y-110823809D01*
X147243681Y-110823810D01*
X147224760Y-111028000D01*
X146907240Y-111028000D01*
X146888319Y-110823810D01*
X146832200Y-110626574D01*
X146740795Y-110443008D01*
X146617216Y-110279362D01*
X146465672Y-110141211D01*
X146465671Y-110141210D01*
X146291320Y-110033258D01*
X146100109Y-109959182D01*
X146100103Y-109959180D01*
X145898532Y-109921500D01*
X145693468Y-109921500D01*
X145693467Y-109921500D01*
X145491896Y-109959180D01*
X145491890Y-109959182D01*
X145300679Y-110033258D01*
X145126328Y-110141210D01*
X144974784Y-110279361D01*
X144851204Y-110443009D01*
X144759800Y-110626573D01*
X144759798Y-110626579D01*
X144703682Y-110823803D01*
X144703681Y-110823809D01*
X144703681Y-110823810D01*
X144684760Y-111028000D01*
X144367240Y-111028000D01*
X144348319Y-110823810D01*
X144292200Y-110626574D01*
X144200795Y-110443008D01*
X144077216Y-110279362D01*
X143925672Y-110141211D01*
X143925671Y-110141210D01*
X143751320Y-110033258D01*
X143560109Y-109959182D01*
X143560103Y-109959180D01*
X143358532Y-109921500D01*
X143153468Y-109921500D01*
X143153467Y-109921500D01*
X142951896Y-109959180D01*
X142951890Y-109959182D01*
X142760679Y-110033258D01*
X142586328Y-110141210D01*
X142434784Y-110279361D01*
X142311204Y-110443009D01*
X142219800Y-110626573D01*
X142219798Y-110626579D01*
X142163682Y-110823803D01*
X142163681Y-110823809D01*
X142163681Y-110823810D01*
X142144760Y-111028000D01*
X141822500Y-111028000D01*
X141822500Y-110266794D01*
X141811696Y-110192639D01*
X141755776Y-110078254D01*
X141665746Y-109988224D01*
X141551361Y-109932304D01*
X141551359Y-109932303D01*
X141551357Y-109932303D01*
X141477209Y-109921500D01*
X141477206Y-109921500D01*
X139954794Y-109921500D01*
X139954790Y-109921500D01*
X139880642Y-109932303D01*
X139880639Y-109932304D01*
X139766253Y-109988224D01*
X139676224Y-110078253D01*
X139620304Y-110192639D01*
X139620303Y-110192642D01*
X139609500Y-110266790D01*
X139609500Y-111789209D01*
X138214700Y-111789209D01*
X138214700Y-109935561D01*
X138234984Y-109859861D01*
X138259044Y-109828505D01*
X139305305Y-108782244D01*
X139373176Y-108743059D01*
X139412361Y-108737900D01*
X156861278Y-108737900D01*
X156925512Y-108740094D01*
X156955198Y-108732859D01*
X156966441Y-108730120D01*
X156974060Y-108728671D01*
X157015799Y-108722935D01*
X157029317Y-108717062D01*
X157053783Y-108708835D01*
X157068106Y-108705346D01*
X157104850Y-108684684D01*
X157111763Y-108681251D01*
X157150414Y-108664464D01*
X157161845Y-108655163D01*
X157183187Y-108640637D01*
X157196035Y-108633414D01*
X157225831Y-108603616D01*
X157231568Y-108598439D01*
X157264262Y-108571842D01*
X157272763Y-108559797D01*
X157289390Y-108540057D01*
X159121075Y-106708373D01*
X159163164Y-106669065D01*
X159168045Y-106664507D01*
X159168764Y-106663326D01*
X159189937Y-106628505D01*
X159194293Y-106622106D01*
X159219755Y-106588530D01*
X159225161Y-106574818D01*
X159236646Y-106551697D01*
X159244304Y-106539106D01*
X159255675Y-106498515D01*
X159258135Y-106491201D01*
X159273597Y-106451997D01*
X159275104Y-106437331D01*
X159279922Y-106411979D01*
X159280426Y-106410178D01*
X159320379Y-106342758D01*
X159346509Y-106322302D01*
X159465063Y-106248897D01*
X159626880Y-106101382D01*
X159758835Y-105926644D01*
X159856436Y-105730636D01*
X159916359Y-105520030D01*
X159931500Y-105356629D01*
X159931500Y-104447371D01*
X159916359Y-104283970D01*
X159856436Y-104073364D01*
X159758835Y-103877356D01*
X159758834Y-103877355D01*
X159758834Y-103877354D01*
X159626885Y-103702624D01*
X159626883Y-103702622D01*
X159626880Y-103702618D01*
X159465063Y-103555103D01*
X159278896Y-103439833D01*
X159278890Y-103439830D01*
X159074722Y-103360735D01*
X159074714Y-103360733D01*
X158859484Y-103320500D01*
X158859482Y-103320500D01*
X158640518Y-103320500D01*
X158640515Y-103320500D01*
X158425285Y-103360733D01*
X158425277Y-103360735D01*
X158221109Y-103439830D01*
X158221101Y-103439834D01*
X158034935Y-103555104D01*
X157873118Y-103702620D01*
X157873114Y-103702624D01*
X157741165Y-103877354D01*
X157643564Y-104073363D01*
X157643561Y-104073369D01*
X157625620Y-104136428D01*
X157585394Y-104203687D01*
X157516928Y-104241822D01*
X157438567Y-104240615D01*
X157371308Y-104200389D01*
X157334380Y-104136428D01*
X157316438Y-104073369D01*
X157316436Y-104073364D01*
X157218835Y-103877356D01*
X157218834Y-103877355D01*
X157218834Y-103877354D01*
X157086885Y-103702624D01*
X157086883Y-103702622D01*
X157086880Y-103702618D01*
X156925063Y-103555103D01*
X156738896Y-103439833D01*
X156738890Y-103439830D01*
X156534722Y-103360735D01*
X156534714Y-103360733D01*
X156319484Y-103320500D01*
X156319482Y-103320500D01*
X156100518Y-103320500D01*
X156100515Y-103320500D01*
X155885285Y-103360733D01*
X155885277Y-103360735D01*
X155681109Y-103439830D01*
X155681101Y-103439834D01*
X155494935Y-103555104D01*
X155333118Y-103702620D01*
X155333114Y-103702624D01*
X155201165Y-103877354D01*
X155103564Y-104073363D01*
X155103561Y-104073369D01*
X155085620Y-104136428D01*
X155045394Y-104203687D01*
X154976928Y-104241822D01*
X154898567Y-104240615D01*
X154831308Y-104200389D01*
X154794380Y-104136428D01*
X154776438Y-104073369D01*
X154776436Y-104073364D01*
X154678835Y-103877356D01*
X154678834Y-103877355D01*
X154678834Y-103877354D01*
X154546885Y-103702624D01*
X154546883Y-103702622D01*
X154546880Y-103702618D01*
X154385063Y-103555103D01*
X154198896Y-103439833D01*
X154198890Y-103439830D01*
X153994722Y-103360735D01*
X153994714Y-103360733D01*
X153779484Y-103320500D01*
X153779482Y-103320500D01*
X153560518Y-103320500D01*
X153560515Y-103320500D01*
X153345285Y-103360733D01*
X153345277Y-103360735D01*
X153141109Y-103439830D01*
X153141101Y-103439834D01*
X152954935Y-103555104D01*
X152793118Y-103702620D01*
X152793114Y-103702624D01*
X152661165Y-103877354D01*
X152563564Y-104073363D01*
X152563561Y-104073369D01*
X152545620Y-104136428D01*
X152505394Y-104203687D01*
X152436928Y-104241822D01*
X152358567Y-104240615D01*
X152291308Y-104200389D01*
X152254380Y-104136428D01*
X152236438Y-104073369D01*
X152236436Y-104073364D01*
X152138835Y-103877356D01*
X152138834Y-103877355D01*
X152138834Y-103877354D01*
X152006885Y-103702624D01*
X152006883Y-103702622D01*
X152006880Y-103702618D01*
X151845063Y-103555103D01*
X151658896Y-103439833D01*
X151658890Y-103439830D01*
X151454722Y-103360735D01*
X151454714Y-103360733D01*
X151239484Y-103320500D01*
X151239482Y-103320500D01*
X151020518Y-103320500D01*
X151020515Y-103320500D01*
X150805285Y-103360733D01*
X150805277Y-103360735D01*
X150601109Y-103439830D01*
X150601101Y-103439834D01*
X150414935Y-103555104D01*
X150253118Y-103702620D01*
X150253114Y-103702624D01*
X150121165Y-103877354D01*
X150023564Y-104073363D01*
X150023561Y-104073369D01*
X150005620Y-104136428D01*
X149965394Y-104203687D01*
X149896928Y-104241822D01*
X149818567Y-104240615D01*
X149751308Y-104200389D01*
X149714380Y-104136428D01*
X149696438Y-104073369D01*
X149696436Y-104073364D01*
X149598835Y-103877356D01*
X149598834Y-103877355D01*
X149598834Y-103877354D01*
X149466885Y-103702624D01*
X149466883Y-103702622D01*
X149466880Y-103702618D01*
X149305063Y-103555103D01*
X149118896Y-103439833D01*
X149118890Y-103439830D01*
X148914722Y-103360735D01*
X148914714Y-103360733D01*
X148699484Y-103320500D01*
X148699482Y-103320500D01*
X148480518Y-103320500D01*
X148480515Y-103320500D01*
X148265285Y-103360733D01*
X148265277Y-103360735D01*
X148061109Y-103439830D01*
X148061101Y-103439834D01*
X147874935Y-103555104D01*
X147713118Y-103702620D01*
X147713114Y-103702624D01*
X147581165Y-103877354D01*
X147483564Y-104073363D01*
X147483561Y-104073369D01*
X147465620Y-104136428D01*
X147425394Y-104203687D01*
X147356928Y-104241822D01*
X147278567Y-104240615D01*
X147211308Y-104200389D01*
X147174380Y-104136428D01*
X147156438Y-104073369D01*
X147156436Y-104073364D01*
X147058835Y-103877356D01*
X147058834Y-103877355D01*
X147058834Y-103877354D01*
X146926885Y-103702624D01*
X146926883Y-103702622D01*
X146926880Y-103702618D01*
X146765063Y-103555103D01*
X146578896Y-103439833D01*
X146578890Y-103439830D01*
X146374722Y-103360735D01*
X146374714Y-103360733D01*
X146159484Y-103320500D01*
X146159482Y-103320500D01*
X145940518Y-103320500D01*
X145940515Y-103320500D01*
X145725285Y-103360733D01*
X145725277Y-103360735D01*
X145521109Y-103439830D01*
X145521101Y-103439834D01*
X145334935Y-103555104D01*
X145173118Y-103702620D01*
X145173114Y-103702624D01*
X145041165Y-103877354D01*
X144943564Y-104073363D01*
X144943561Y-104073369D01*
X144925620Y-104136428D01*
X144885394Y-104203687D01*
X144816928Y-104241822D01*
X144738567Y-104240615D01*
X144671308Y-104200389D01*
X144634380Y-104136428D01*
X144616438Y-104073369D01*
X144616436Y-104073364D01*
X144518835Y-103877356D01*
X144518834Y-103877355D01*
X144518834Y-103877354D01*
X144386885Y-103702624D01*
X144386883Y-103702622D01*
X144386880Y-103702618D01*
X144225063Y-103555103D01*
X144038896Y-103439833D01*
X144038890Y-103439830D01*
X143834722Y-103360735D01*
X143834714Y-103360733D01*
X143619484Y-103320500D01*
X143619482Y-103320500D01*
X143400518Y-103320500D01*
X143400515Y-103320500D01*
X143185285Y-103360733D01*
X143185277Y-103360735D01*
X142981109Y-103439830D01*
X142981101Y-103439834D01*
X142794935Y-103555104D01*
X142633118Y-103702620D01*
X142633114Y-103702624D01*
X142501165Y-103877354D01*
X142403564Y-104073363D01*
X142403561Y-104073369D01*
X142385620Y-104136428D01*
X142345394Y-104203687D01*
X142276928Y-104241822D01*
X142198567Y-104240615D01*
X142131308Y-104200389D01*
X142094380Y-104136428D01*
X142076438Y-104073369D01*
X142076436Y-104073364D01*
X141978835Y-103877356D01*
X141978834Y-103877355D01*
X141978834Y-103877354D01*
X141846885Y-103702624D01*
X141846883Y-103702622D01*
X141846880Y-103702618D01*
X141685063Y-103555103D01*
X141498896Y-103439833D01*
X141498890Y-103439830D01*
X141294722Y-103360735D01*
X141294714Y-103360733D01*
X141079484Y-103320500D01*
X141079482Y-103320500D01*
X140860518Y-103320500D01*
X140860515Y-103320500D01*
X140645285Y-103360733D01*
X140645277Y-103360735D01*
X140441109Y-103439830D01*
X140441101Y-103439834D01*
X140254935Y-103555104D01*
X140093118Y-103702620D01*
X140093114Y-103702624D01*
X139961165Y-103877354D01*
X139863564Y-104073363D01*
X139863562Y-104073369D01*
X139803642Y-104283963D01*
X139803640Y-104283972D01*
X139788501Y-104447355D01*
X139788500Y-104447380D01*
X139788500Y-105356619D01*
X139788501Y-105356644D01*
X139803640Y-105520027D01*
X139803642Y-105520036D01*
X139863562Y-105730630D01*
X139863564Y-105730636D01*
X139961165Y-105926645D01*
X140093114Y-106101375D01*
X140093116Y-106101377D01*
X140093120Y-106101382D01*
X140254937Y-106248897D01*
X140373487Y-106322300D01*
X140441110Y-106364171D01*
X140447137Y-106367172D01*
X140505860Y-106419071D01*
X140530767Y-106493378D01*
X140515182Y-106570183D01*
X140463283Y-106628906D01*
X140388976Y-106653813D01*
X140379654Y-106654100D01*
X137092923Y-106654100D01*
X137028688Y-106651906D01*
X137028687Y-106651906D01*
X137028685Y-106651906D01*
X136987759Y-106661879D01*
X136980143Y-106663326D01*
X136938402Y-106669064D01*
X136938399Y-106669065D01*
X136924878Y-106674938D01*
X136900420Y-106683162D01*
X136886097Y-106686652D01*
X136886091Y-106686655D01*
X136849370Y-106707302D01*
X136842427Y-106710750D01*
X136803786Y-106727535D01*
X136803784Y-106727537D01*
X136792343Y-106736844D01*
X136771014Y-106751360D01*
X136758169Y-106758583D01*
X136758161Y-106758588D01*
X136728373Y-106788376D01*
X136722617Y-106793570D01*
X136689937Y-106820158D01*
X136681437Y-106832200D01*
X136664806Y-106851943D01*
X134769724Y-108747026D01*
X134722753Y-108790894D01*
X134700863Y-108826888D01*
X134696503Y-108833295D01*
X134671047Y-108866865D01*
X134671044Y-108866870D01*
X134665636Y-108880584D01*
X134654157Y-108903695D01*
X134646495Y-108916294D01*
X134635128Y-108956865D01*
X134632656Y-108964216D01*
X134617202Y-109003401D01*
X134615694Y-109018073D01*
X134610875Y-109043426D01*
X134606900Y-109057613D01*
X134606900Y-109099740D01*
X134606503Y-109107486D01*
X134602194Y-109149395D01*
X134602194Y-109149402D01*
X134604699Y-109163929D01*
X134606900Y-109189651D01*
X134606900Y-114988862D01*
X134586616Y-115064562D01*
X134531200Y-115119978D01*
X134455500Y-115140262D01*
X134393670Y-115125720D01*
X134393423Y-115126361D01*
X134388835Y-115124583D01*
X134388020Y-115124392D01*
X134386896Y-115123832D01*
X134182722Y-115044735D01*
X134182714Y-115044733D01*
X133967484Y-115004500D01*
X133967482Y-115004500D01*
X133748518Y-115004500D01*
X133748515Y-115004500D01*
X133533285Y-115044733D01*
X133533277Y-115044735D01*
X133327992Y-115124263D01*
X133250076Y-115132695D01*
X133178384Y-115101040D01*
X133132124Y-115037779D01*
X133121900Y-114983087D01*
X133121900Y-97667461D01*
X133142184Y-97591761D01*
X133166244Y-97560405D01*
X134898405Y-95828244D01*
X134966276Y-95789059D01*
X135005461Y-95783900D01*
X140029990Y-95783900D01*
X140105690Y-95804184D01*
X140161106Y-95859600D01*
X140181390Y-95935300D01*
X140161106Y-96011000D01*
X140131990Y-96047183D01*
X140127997Y-96050824D01*
X140093118Y-96082620D01*
X140093114Y-96082624D01*
X139961165Y-96257354D01*
X139863564Y-96453363D01*
X139863562Y-96453369D01*
X139803641Y-96663966D01*
X139803538Y-96664521D01*
X139803404Y-96664799D01*
X139801725Y-96670703D01*
X139800715Y-96670415D01*
X139769689Y-96735205D01*
X139705033Y-96779494D01*
X139654716Y-96788100D01*
X138053763Y-96788100D01*
X137978063Y-96767816D01*
X137922647Y-96712400D01*
X137918235Y-96704184D01*
X137914836Y-96697359D01*
X137914835Y-96697356D01*
X137914832Y-96697352D01*
X137914831Y-96697350D01*
X137782885Y-96522624D01*
X137782883Y-96522622D01*
X137782880Y-96522618D01*
X137621063Y-96375103D01*
X137434896Y-96259833D01*
X137434890Y-96259830D01*
X137230722Y-96180735D01*
X137230714Y-96180733D01*
X137015484Y-96140500D01*
X137015482Y-96140500D01*
X136796518Y-96140500D01*
X136796515Y-96140500D01*
X136581285Y-96180733D01*
X136581277Y-96180735D01*
X136377109Y-96259830D01*
X136377101Y-96259834D01*
X136190935Y-96375104D01*
X136029118Y-96522620D01*
X136029114Y-96522624D01*
X135897165Y-96697354D01*
X135799564Y-96893363D01*
X135799562Y-96893369D01*
X135739642Y-97103963D01*
X135739640Y-97103972D01*
X135719438Y-97321998D01*
X135719438Y-97322001D01*
X135739640Y-97540027D01*
X135739642Y-97540036D01*
X135799562Y-97750630D01*
X135799564Y-97750636D01*
X135897165Y-97946645D01*
X136029114Y-98121375D01*
X136029116Y-98121377D01*
X136029120Y-98121382D01*
X136190937Y-98268897D01*
X136377104Y-98384167D01*
X136581282Y-98463266D01*
X136796518Y-98503500D01*
X136796522Y-98503500D01*
X137015478Y-98503500D01*
X137015482Y-98503500D01*
X137230718Y-98463266D01*
X137434896Y-98384167D01*
X137621063Y-98268897D01*
X137782880Y-98121382D01*
X137914835Y-97946644D01*
X137918235Y-97939816D01*
X137970135Y-97881093D01*
X138044442Y-97856187D01*
X138053763Y-97855900D01*
X139676753Y-97855900D01*
X139752453Y-97876184D01*
X139807869Y-97931600D01*
X139822373Y-97965867D01*
X139863562Y-98110630D01*
X139863564Y-98110636D01*
X139961165Y-98306645D01*
X140093114Y-98481375D01*
X140093116Y-98481377D01*
X140093120Y-98481382D01*
X140254937Y-98628897D01*
X140441104Y-98744167D01*
X140645282Y-98823266D01*
X140860518Y-98863500D01*
X140860522Y-98863500D01*
X141079478Y-98863500D01*
X141079482Y-98863500D01*
X141294718Y-98823266D01*
X141498896Y-98744167D01*
X141685063Y-98628897D01*
X141846880Y-98481382D01*
X141978835Y-98306644D01*
X142076436Y-98110636D01*
X142094380Y-98047571D01*
X142134605Y-97980312D01*
X142203072Y-97942177D01*
X142281433Y-97943384D01*
X142348692Y-97983609D01*
X142385620Y-98047571D01*
X142403562Y-98110630D01*
X142403564Y-98110636D01*
X142501165Y-98306645D01*
X142633114Y-98481375D01*
X142633116Y-98481377D01*
X142633120Y-98481382D01*
X142794937Y-98628897D01*
X142981104Y-98744167D01*
X143185282Y-98823266D01*
X143400518Y-98863500D01*
X143400522Y-98863500D01*
X143619478Y-98863500D01*
X143619482Y-98863500D01*
X143834718Y-98823266D01*
X144038896Y-98744167D01*
X144225063Y-98628897D01*
X144386880Y-98481382D01*
X144518835Y-98306644D01*
X144616436Y-98110636D01*
X144634380Y-98047571D01*
X144674605Y-97980312D01*
X144743072Y-97942177D01*
X144821433Y-97943384D01*
X144888692Y-97983609D01*
X144925620Y-98047571D01*
X144943562Y-98110630D01*
X144943564Y-98110636D01*
X145041165Y-98306645D01*
X145173114Y-98481375D01*
X145173116Y-98481377D01*
X145173120Y-98481382D01*
X145334937Y-98628897D01*
X145521104Y-98744167D01*
X145725282Y-98823266D01*
X145940518Y-98863500D01*
X145940522Y-98863500D01*
X146159478Y-98863500D01*
X146159482Y-98863500D01*
X146374718Y-98823266D01*
X146578896Y-98744167D01*
X146765063Y-98628897D01*
X146926880Y-98481382D01*
X147058835Y-98306644D01*
X147156436Y-98110636D01*
X147174380Y-98047571D01*
X147214605Y-97980312D01*
X147283072Y-97942177D01*
X147361433Y-97943384D01*
X147428692Y-97983609D01*
X147465620Y-98047571D01*
X147483562Y-98110630D01*
X147483564Y-98110636D01*
X147581165Y-98306645D01*
X147713114Y-98481375D01*
X147713116Y-98481377D01*
X147713120Y-98481382D01*
X147874937Y-98628897D01*
X148061104Y-98744167D01*
X148265282Y-98823266D01*
X148480518Y-98863500D01*
X148480522Y-98863500D01*
X148699478Y-98863500D01*
X148699482Y-98863500D01*
X148914718Y-98823266D01*
X149118896Y-98744167D01*
X149305063Y-98628897D01*
X149466880Y-98481382D01*
X149598835Y-98306644D01*
X149696436Y-98110636D01*
X149714380Y-98047571D01*
X149754605Y-97980312D01*
X149823072Y-97942177D01*
X149901433Y-97943384D01*
X149968692Y-97983609D01*
X150005620Y-98047571D01*
X150023562Y-98110630D01*
X150023564Y-98110636D01*
X150121165Y-98306645D01*
X150253114Y-98481375D01*
X150253116Y-98481377D01*
X150253120Y-98481382D01*
X150414937Y-98628897D01*
X150601104Y-98744167D01*
X150805282Y-98823266D01*
X151020518Y-98863500D01*
X151020522Y-98863500D01*
X151239478Y-98863500D01*
X151239482Y-98863500D01*
X151454718Y-98823266D01*
X151658896Y-98744167D01*
X151845063Y-98628897D01*
X152006880Y-98481382D01*
X152138835Y-98306644D01*
X152236436Y-98110636D01*
X152254380Y-98047571D01*
X152294605Y-97980312D01*
X152363072Y-97942177D01*
X152441433Y-97943384D01*
X152508692Y-97983609D01*
X152545620Y-98047571D01*
X152563562Y-98110630D01*
X152563564Y-98110636D01*
X152661165Y-98306645D01*
X152793114Y-98481375D01*
X152793116Y-98481377D01*
X152793120Y-98481382D01*
X152954937Y-98628897D01*
X153141104Y-98744167D01*
X153345282Y-98823266D01*
X153560518Y-98863500D01*
X153560522Y-98863500D01*
X153779478Y-98863500D01*
X153779482Y-98863500D01*
X153994718Y-98823266D01*
X154198896Y-98744167D01*
X154385063Y-98628897D01*
X154546880Y-98481382D01*
X154678835Y-98306644D01*
X154776436Y-98110636D01*
X154794380Y-98047571D01*
X154834605Y-97980312D01*
X154903072Y-97942177D01*
X154981433Y-97943384D01*
X155048692Y-97983609D01*
X155085620Y-98047571D01*
X155103562Y-98110630D01*
X155103564Y-98110636D01*
X155201165Y-98306645D01*
X155333114Y-98481375D01*
X155333116Y-98481377D01*
X155333120Y-98481382D01*
X155494937Y-98628897D01*
X155681104Y-98744167D01*
X155885282Y-98823266D01*
X156100518Y-98863500D01*
X156100522Y-98863500D01*
X156319478Y-98863500D01*
X156319482Y-98863500D01*
X156534718Y-98823266D01*
X156738896Y-98744167D01*
X156925063Y-98628897D01*
X157086880Y-98481382D01*
X157218835Y-98306644D01*
X157316436Y-98110636D01*
X157334380Y-98047571D01*
X157374605Y-97980312D01*
X157443072Y-97942177D01*
X157521433Y-97943384D01*
X157588692Y-97983609D01*
X157625620Y-98047571D01*
X157643562Y-98110630D01*
X157643564Y-98110636D01*
X157741165Y-98306645D01*
X157873114Y-98481375D01*
X157873116Y-98481377D01*
X157873120Y-98481382D01*
X158034937Y-98628897D01*
X158221104Y-98744167D01*
X158425282Y-98823266D01*
X158640518Y-98863500D01*
X158640522Y-98863500D01*
X158859478Y-98863500D01*
X158859482Y-98863500D01*
X159074718Y-98823266D01*
X159278896Y-98744167D01*
X159465063Y-98628897D01*
X159626880Y-98481382D01*
X159758835Y-98306644D01*
X159856436Y-98110636D01*
X159916359Y-97900030D01*
X159931500Y-97736629D01*
X159931500Y-96827371D01*
X159916359Y-96663970D01*
X159856436Y-96453364D01*
X159758835Y-96257356D01*
X159758834Y-96257355D01*
X159758834Y-96257354D01*
X159626885Y-96082624D01*
X159626883Y-96082622D01*
X159626880Y-96082618D01*
X159515626Y-95981197D01*
X159465063Y-95935102D01*
X159355597Y-95867323D01*
X159301914Y-95810226D01*
X159283900Y-95738601D01*
X159283900Y-94979722D01*
X159286094Y-94915488D01*
X159276118Y-94874553D01*
X159274671Y-94866938D01*
X159268935Y-94825202D01*
X159268934Y-94825198D01*
X159263066Y-94811689D01*
X159254835Y-94787214D01*
X159251346Y-94772894D01*
X159230689Y-94736156D01*
X159227245Y-94729221D01*
X159225324Y-94724799D01*
X159210464Y-94690586D01*
X159210463Y-94690585D01*
X159210463Y-94690584D01*
X159201163Y-94679153D01*
X159186634Y-94657806D01*
X159179414Y-94644965D01*
X159149624Y-94615175D01*
X159144438Y-94609429D01*
X159117842Y-94576738D01*
X159105798Y-94568236D01*
X159086053Y-94551604D01*
X158279406Y-93744957D01*
X158240221Y-93677086D01*
X158240221Y-93598716D01*
X158279406Y-93530845D01*
X158347277Y-93491660D01*
X158414281Y-93489079D01*
X158428089Y-93491660D01*
X158630518Y-93529500D01*
X158630522Y-93529500D01*
X158849478Y-93529500D01*
X158849482Y-93529500D01*
X159064718Y-93489266D01*
X159268896Y-93410167D01*
X159455063Y-93294897D01*
X159616880Y-93147382D01*
X159748835Y-92972644D01*
X159846436Y-92776636D01*
X159906359Y-92566030D01*
X159921500Y-92402629D01*
X159921500Y-91493371D01*
X159906359Y-91329970D01*
X159846436Y-91119364D01*
X159748835Y-90923356D01*
X159748834Y-90923355D01*
X159748834Y-90923354D01*
X159616885Y-90748624D01*
X159616883Y-90748622D01*
X159616880Y-90748618D01*
X159578010Y-90713184D01*
X159535734Y-90647197D01*
X159532115Y-90568910D01*
X159568124Y-90499302D01*
X159634113Y-90457024D01*
X159680010Y-90449900D01*
X167864139Y-90449900D01*
X167939839Y-90470184D01*
G37*
%TD.AperFunction*%
%TD*%
M02*
